<svg width="400" height="396" viewBox="0 0 400 396" fill="none" xmlns="http://www.w3.org/2000/svg">
<path fill-rule="evenodd" clip-rule="evenodd" d="M194.695 6.86952C228.982 10.8817 263.871 15.1238 292.245 34.786C320.095 54.0846 333.7 86.062 351.01 115.189C370.506 147.995 399.631 177.934 399.995 216.094C400.376 256.056 379.126 293.506 353.001 323.749C326.852 354.02 291.774 375.224 253.244 385.975C215.046 396.634 172.283 401.606 136.696 384.104C102.649 367.36 91.9016 325.731 69.0946 295.41C48.211 267.645 18.4887 246.587 8.28167 213.378C-2.8444 177.18 -3.12727 137.72 9.6718 102.079C23.0756 64.7532 46.0165 28.2455 81.2807 10.0993C115.605 -7.56318 156.355 2.38299 194.695 6.86952Z" fill="white"/>
</svg>
