<svg width="400" height="394" viewBox="0 0 400 394" fill="none" xmlns="http://www.w3.org/2000/svg">
<path fill-rule="evenodd" clip-rule="evenodd" d="M199.339 8.68696C237.128 9.7051 275.947 -0.531815 310.252 15.3509C346.833 32.2877 379.772 61.2998 394.242 98.9249C408.436 135.829 392.613 175.776 387.006 214.917C381.396 254.08 384.414 296.177 361.379 328.343C337.49 361.702 300.194 387.453 259.529 392.924C220.563 398.166 187.247 368.643 149.751 356.816C113.222 345.293 69.9063 350.499 41.9686 324.296C13.2965 297.405 2.62875 255.8 0.214245 216.564C-2.09042 179.114 14.6486 144.802 28.7838 110.044C43.5439 73.7506 50.8361 29.2853 84.5177 9.26906C118.101 -10.6885 160.288 7.63482 199.339 8.68696Z" fill="white"/>
</svg>
