<svg width="200" height="200" viewBox="0 0 200 200" fill="none" xmlns="http://www.w3.org/2000/svg">
<circle cx="100" cy="100" r="100" fill="#F7F1FF"/>
<path d="M130.132 41.1531C130.132 39.2538 125.325 37.8294 120.278 37.3545C120.278 37.3545 119.315 35.7571 115.342 34.9889C111.368 34.2207 109.447 34.2207 109.447 34.2207H87.234C77.8624 33.9928 77.3614 42.6093 78.2824 46.946C78.8128 54.6192 87.3446 55.4612 91.5441 54.9231V63.6599C75.5416 61.7606 72.0567 70.8456 72.3146 75.6255C65.1533 75.6255 59.0897 87.148 56.9531 92.9092L69.3307 176.479C70.8337 186.279 79.6086 187.969 83.8081 187.59H117.736C126.4 186.298 129.598 179.644 130.114 176.479L140.612 92.9092C140.878 81.8932 130.85 76.7968 125.804 75.6255C126.069 65.6732 115.01 62.6153 109.447 62.3304V54.9231C117.581 54.9231 120.057 49.6051 120.278 46.946L130.132 46.946L130.132 41.1531Z" fill="#BD68A1"/>
<circle cx="135.94" cy="36.5992" r="3.31126" transform="rotate(-23.6348 135.94 36.5992)" fill="#BD68A1"/>
<circle cx="144.704" cy="25.499" r="6.62252" transform="rotate(-23.6348 144.704 25.499)" fill="#BD68A1"/>
<g filter="url(#filter0_d_290_147)">
<path d="M20.616 106.384C21.0427 106.384 21.5547 106.405 22.152 106.448C22.7707 106.491 23.3787 106.544 23.976 106.608C24.5733 106.651 25.096 106.715 25.544 106.8C26.0133 106.864 26.3333 106.928 26.504 106.992L26.088 110.896H25.8C25.8 109.915 25.4587 109.136 24.776 108.56C24.0933 107.984 23.112 107.696 21.832 107.696C20.808 107.696 19.976 107.92 19.336 108.368C18.7173 108.816 18.3867 109.413 18.344 110.16C18.3013 110.544 18.3653 110.896 18.536 111.216C18.728 111.515 18.984 111.781 19.304 112.016C19.6453 112.251 20.0187 112.485 20.424 112.72L25.448 115.824C26.3013 116.251 26.9733 116.869 27.464 117.68C27.9547 118.491 28.168 119.472 28.104 120.624C28.04 121.819 27.688 122.853 27.048 123.728C26.4293 124.603 25.5653 125.275 24.456 125.744C23.368 126.192 22.0773 126.416 20.584 126.416C19.6667 126.416 18.8133 126.341 18.024 126.192C17.2347 126.043 16.552 125.84 15.976 125.584C15.4213 125.328 14.9947 125.04 14.696 124.72C14.5253 124.293 14.4507 123.781 14.472 123.184C14.4933 122.565 14.5893 121.957 14.76 121.36C14.9307 120.741 15.144 120.229 15.4 119.824H15.656C15.592 120.784 15.7627 121.669 16.168 122.48C16.5947 123.291 17.2133 123.941 18.024 124.432C18.8347 124.901 19.8053 125.136 20.936 125.136C22.1733 125.136 23.1013 124.848 23.72 124.272C24.3387 123.696 24.648 123.024 24.648 122.256C24.648 121.68 24.456 121.168 24.072 120.72C23.7093 120.251 23.1013 119.792 22.248 119.344L17.704 116.464C16.6373 115.909 15.8587 115.173 15.368 114.256C14.8987 113.339 14.728 112.336 14.856 111.248C14.9627 110.224 15.2613 109.349 15.752 108.624C16.264 107.899 16.936 107.344 17.768 106.96C18.6 106.576 19.5493 106.384 20.616 106.384ZM26.504 106.672L26.472 107.248H23.048V106.672H26.504ZM37.1213 106.8V126H32.5133V106.8H37.1213ZM44.6093 124.72L45.3453 126H37.0573V124.72H44.6093ZM43.5213 115.856V117.136H37.0573V115.856H43.5213ZM44.9613 106.8V108.08H37.0573V106.8H44.9613ZM46.6573 120.112L45.4412 126H39.9053L40.8973 124.72C41.8146 124.72 42.6253 124.539 43.3293 124.176C44.0546 123.792 44.6733 123.259 45.1853 122.576C45.6973 121.872 46.0919 121.051 46.3693 120.112H46.6573ZM43.5213 117.072V119.888H43.2013V119.632C43.2013 118.928 42.9773 118.341 42.5293 117.872C42.1026 117.403 41.5159 117.157 40.7693 117.136V117.072H43.5213ZM43.5213 113.104V115.92H40.7693V115.856C41.5159 115.835 42.1026 115.589 42.5293 115.12C42.9773 114.629 43.2013 114.032 43.2013 113.328V113.104H43.5213ZM44.9613 108.016V111.408H44.6413V111.12C44.6413 110.181 44.3853 109.445 43.8733 108.912C43.3826 108.379 42.6679 108.101 41.7293 108.08V108.016H44.9613ZM44.9613 106.32V107.088L41.6013 106.8C42.2199 106.8 42.8706 106.747 43.5533 106.64C44.2359 106.512 44.7053 106.405 44.9613 106.32ZM32.5773 123.984L32.7373 126H30.3693V125.68C30.3693 125.68 30.4333 125.68 30.5613 125.68C30.6893 125.68 30.7639 125.68 30.7853 125.68C31.2546 125.68 31.6493 125.52 31.9693 125.2C32.3106 124.859 32.4919 124.453 32.5133 123.984H32.5773ZM32.5773 108.816H32.5133C32.4919 108.325 32.3106 107.92 31.9693 107.6C31.6493 107.28 31.2546 107.12 30.7853 107.12C30.7639 107.12 30.6893 107.12 30.5613 107.12C30.4333 107.12 30.3693 107.12 30.3693 107.12V106.8H32.7373L32.5773 108.816ZM54.9308 106.8H58.3868C59.2614 106.8 60.1148 106.896 60.9468 107.088C61.7788 107.259 62.5254 107.547 63.1868 107.952C63.8481 108.336 64.3708 108.869 64.7548 109.552C65.1601 110.213 65.3628 111.045 65.3628 112.048C65.3628 112.795 65.2028 113.541 64.8828 114.288C64.5841 115.013 64.1041 115.643 63.4428 116.176C62.8028 116.709 61.9601 117.061 60.9148 117.232C61.5334 117.424 62.1201 117.797 62.6748 118.352C63.2508 118.907 63.6988 119.429 64.0188 119.92C64.1041 120.091 64.2534 120.368 64.4668 120.752C64.6801 121.115 64.9468 121.541 65.2668 122.032C65.6081 122.501 65.9601 122.992 66.3228 123.504C66.7494 124.08 67.1228 124.528 67.4428 124.848C67.7628 125.147 68.0934 125.36 68.4348 125.488C68.7761 125.616 69.1708 125.68 69.6188 125.68V126H66.9308C65.7788 126 64.7974 125.915 63.9868 125.744C63.1974 125.573 62.5041 125.264 61.9068 124.816C61.3308 124.347 60.7974 123.717 60.3068 122.928C60.1148 122.651 59.9121 122.32 59.6988 121.936C59.4854 121.531 59.2721 121.125 59.0588 120.72C58.8454 120.315 58.6534 119.92 58.4828 119.536C58.3334 119.152 58.2268 118.832 58.1628 118.576C57.8854 117.893 57.5654 117.403 57.2028 117.104C56.8614 116.784 56.5414 116.624 56.2428 116.624V116.336C56.2428 116.336 56.3174 116.336 56.4668 116.336C56.6161 116.336 56.8081 116.336 57.0428 116.336C57.4908 116.336 57.9281 116.261 58.3548 116.112C58.8028 115.941 59.2081 115.632 59.5708 115.184C59.9334 114.715 60.2001 114.032 60.3708 113.136C60.4134 113.008 60.4454 112.827 60.4668 112.592C60.5094 112.357 60.5201 112.091 60.4988 111.792C60.4561 111.003 60.3068 110.373 60.0508 109.904C59.8161 109.413 59.5174 109.051 59.1548 108.816C58.7921 108.56 58.4188 108.389 58.0348 108.304C57.6721 108.197 57.3521 108.144 57.0748 108.144C56.6694 108.123 56.2961 108.123 55.9548 108.144C55.6348 108.144 55.3894 108.133 55.2188 108.112C55.1974 108.112 55.1654 108.005 55.1228 107.792C55.0801 107.557 55.0374 107.333 54.9948 107.12C54.9521 106.907 54.9308 106.8 54.9308 106.8ZM55.2508 106.8V126H50.6108V106.8H55.2508ZM50.7068 123.984L50.8348 126H48.5308V125.68C48.5521 125.68 48.6054 125.68 48.6908 125.68C48.7974 125.68 48.8721 125.68 48.9148 125.68C49.3841 125.68 49.7788 125.52 50.0988 125.2C50.4401 124.859 50.6214 124.453 50.6428 123.984H50.7068ZM50.7068 108.784H50.6428C50.6214 108.293 50.4401 107.899 50.0988 107.6C49.7788 107.28 49.3948 107.12 48.9468 107.12C48.8828 107.12 48.7974 107.12 48.6908 107.12C48.6054 107.12 48.5521 107.12 48.5308 107.12V106.8H50.8348L50.7068 108.784ZM55.1868 123.984H55.2508C55.2508 124.517 55.4321 124.933 55.7948 125.232C56.1788 125.531 56.5841 125.68 57.0108 125.68C57.0108 125.68 57.0534 125.68 57.1388 125.68C57.2241 125.68 57.2881 125.68 57.3308 125.68V126H55.0268L55.1868 123.984ZM76.1213 106.8V126H71.5133V106.8H76.1213ZM83.6093 124.72L84.3453 126H76.0573V124.72H83.6093ZM82.5213 115.856V117.136H76.0573V115.856H82.5213ZM83.9613 106.8V108.08H76.0573V106.8H83.9613ZM85.6573 120.112L84.4412 126H78.9053L79.8973 124.72C80.8146 124.72 81.6253 124.539 82.3293 124.176C83.0546 123.792 83.6733 123.259 84.1853 122.576C84.6973 121.872 85.0919 121.051 85.3693 120.112H85.6573ZM82.5213 117.072V119.888H82.2013V119.632C82.2013 118.928 81.9773 118.341 81.5293 117.872C81.1026 117.403 80.5159 117.157 79.7693 117.136V117.072H82.5213ZM82.5213 113.104V115.92H79.7693V115.856C80.5159 115.835 81.1026 115.589 81.5293 115.12C81.9773 114.629 82.2013 114.032 82.2013 113.328V113.104H82.5213ZM83.9613 108.016V111.408H83.6413V111.12C83.6413 110.181 83.3853 109.445 82.8733 108.912C82.3826 108.379 81.6679 108.101 80.7293 108.08V108.016H83.9613ZM83.9613 106.32V107.088L80.6013 106.8C81.2199 106.8 81.8706 106.747 82.5533 106.64C83.2359 106.512 83.7053 106.405 83.9613 106.32ZM71.5773 123.984L71.7373 126H69.3693V125.68C69.3693 125.68 69.4333 125.68 69.5613 125.68C69.6893 125.68 69.7639 125.68 69.7853 125.68C70.2546 125.68 70.6493 125.52 70.9693 125.2C71.3106 124.859 71.4919 124.453 71.5133 123.984H71.5773ZM71.5773 108.816H71.5133C71.4919 108.325 71.3106 107.92 70.9693 107.6C70.6493 107.28 70.2546 107.12 69.7853 107.12C69.7639 107.12 69.6893 107.12 69.5613 107.12C69.4333 107.12 69.3693 107.12 69.3693 107.12V106.8H71.7373L71.5773 108.816ZM89.2558 106.352L108.04 122.864L108.36 126.416L89.6078 109.904L89.2558 106.352ZM89.3838 124.048V126H87.0158V125.68C87.0158 125.68 87.1011 125.68 87.2718 125.68C87.4424 125.68 87.5278 125.68 87.5278 125.68C88.0184 125.68 88.4344 125.531 88.7758 125.232C89.1171 124.912 89.2878 124.517 89.2878 124.048H89.3838ZM93.6718 124.048C93.6931 124.517 93.8744 124.912 94.2158 125.232C94.5571 125.531 94.9624 125.68 95.4318 125.68C95.4318 125.68 95.5171 125.68 95.6878 125.68C95.8798 125.68 95.9758 125.68 95.9758 125.68V126H93.6078V124.048H93.6718ZM89.2558 106.352L93.6718 111.152V126H89.2878V110C89.2878 108.912 89.2344 108.037 89.1278 107.376C89.0211 106.693 88.9678 106.352 88.9678 106.352H89.2558ZM108.328 106.8V122.672C108.328 123.419 108.349 124.08 108.392 124.656C108.456 125.211 108.509 125.648 108.552 125.968C108.616 126.267 108.648 126.416 108.648 126.416H108.36L103.944 121.328V106.8H108.328ZM108.232 108.752V106.8H110.632V107.12C110.632 107.12 110.536 107.12 110.344 107.12C110.173 107.12 110.088 107.12 110.088 107.12C109.618 107.12 109.202 107.28 108.84 107.6C108.498 107.899 108.328 108.283 108.328 108.752H108.232ZM103.944 108.752C103.922 108.283 103.741 107.899 103.4 107.6C103.08 107.28 102.674 107.12 102.184 107.12C102.184 107.12 102.088 107.12 101.896 107.12C101.725 107.12 101.64 107.12 101.64 107.12V106.8H104.008V108.752H103.944ZM119.121 106.8V126H114.513V106.8H119.121ZM126.609 124.72L127.345 126H119.057V124.72H126.609ZM125.521 115.856V117.136H119.057V115.856H125.521ZM126.961 106.8V108.08H119.057V106.8H126.961ZM128.657 120.112L127.441 126H121.905L122.897 124.72C123.815 124.72 124.625 124.539 125.329 124.176C126.055 123.792 126.673 123.259 127.185 122.576C127.697 121.872 128.092 121.051 128.369 120.112H128.657ZM125.521 117.072V119.888H125.201V119.632C125.201 118.928 124.977 118.341 124.529 117.872C124.103 117.403 123.516 117.157 122.769 117.136V117.072H125.521ZM125.521 113.104V115.92H122.769V115.856C123.516 115.835 124.103 115.589 124.529 115.12C124.977 114.629 125.201 114.032 125.201 113.328V113.104H125.521ZM126.961 108.016V111.408H126.641V111.12C126.641 110.181 126.385 109.445 125.873 108.912C125.383 108.379 124.668 108.101 123.729 108.08V108.016H126.961ZM126.961 106.32V107.088L123.601 106.8C124.22 106.8 124.871 106.747 125.553 106.64C126.236 106.512 126.705 106.405 126.961 106.32ZM114.577 123.984L114.737 126H112.369V125.68C112.369 125.68 112.433 125.68 112.561 125.68C112.689 125.68 112.764 125.68 112.785 125.68C113.255 125.68 113.649 125.52 113.969 125.2C114.311 124.859 114.492 124.453 114.513 123.984H114.577ZM114.577 108.816H114.513C114.492 108.325 114.311 107.92 113.969 107.6C113.649 107.28 113.255 107.12 112.785 107.12C112.764 107.12 112.689 107.12 112.561 107.12C112.433 107.12 112.369 107.12 112.369 107.12V106.8H114.737L114.577 108.816ZM137.059 106.8V126H132.451V106.8H137.059ZM144.515 124.72L145.283 126H136.995V124.72H144.515ZM146.627 120.112L145.379 126H139.843L140.835 124.72C141.752 124.72 142.563 124.539 143.267 124.176C143.992 123.792 144.611 123.259 145.123 122.576C145.635 121.872 146.029 121.051 146.307 120.112H146.627ZM132.515 123.984L132.675 126H130.307V125.68C130.307 125.68 130.371 125.68 130.499 125.68C130.627 125.68 130.701 125.68 130.723 125.68C131.192 125.68 131.587 125.52 131.907 125.2C132.248 124.859 132.429 124.453 132.451 123.984H132.515ZM136.995 108.816V106.8H139.203V107.12C139.181 107.12 139.107 107.12 138.979 107.12C138.872 107.12 138.819 107.12 138.819 107.12C138.349 107.12 137.944 107.28 137.603 107.6C137.261 107.92 137.08 108.325 137.059 108.816H136.995ZM132.515 108.816H132.451C132.429 108.325 132.248 107.92 131.907 107.6C131.565 107.28 131.16 107.12 130.691 107.12C130.669 107.12 130.595 107.12 130.467 107.12C130.36 107.12 130.307 107.12 130.307 107.12V106.8H132.515V108.816ZM154.309 106.8V126H149.701V106.8H154.309ZM161.765 124.72L162.533 126H154.245V124.72H161.765ZM163.877 120.112L162.629 126H157.093L158.085 124.72C159.002 124.72 159.813 124.539 160.517 124.176C161.242 123.792 161.861 123.259 162.373 122.576C162.885 121.872 163.279 121.051 163.557 120.112H163.877ZM149.765 123.984L149.925 126H147.557V125.68C147.557 125.68 147.621 125.68 147.749 125.68C147.877 125.68 147.951 125.68 147.973 125.68C148.442 125.68 148.837 125.52 149.157 125.2C149.498 124.859 149.679 124.453 149.701 123.984H149.765ZM154.245 108.816V106.8H156.453V107.12C156.431 107.12 156.357 107.12 156.229 107.12C156.122 107.12 156.069 107.12 156.069 107.12C155.599 107.12 155.194 107.28 154.853 107.6C154.511 107.92 154.33 108.325 154.309 108.816H154.245ZM149.765 108.816H149.701C149.679 108.325 149.498 107.92 149.157 107.6C148.815 107.28 148.41 107.12 147.941 107.12C147.919 107.12 147.845 107.12 147.717 107.12C147.61 107.12 147.557 107.12 147.557 107.12V106.8H149.765V108.816ZM174.833 105.936L184.305 125.84H178.897L172.945 111.792L174.833 105.936ZM168.817 123.888C168.582 124.464 168.614 124.912 168.913 125.232C169.212 125.531 169.542 125.68 169.905 125.68H170.161V126H163.761V125.68C163.761 125.68 163.804 125.68 163.889 125.68C163.974 125.68 164.017 125.68 164.017 125.68C164.444 125.68 164.892 125.552 165.361 125.296C165.83 125.019 166.214 124.549 166.513 123.888H168.817ZM174.833 105.936L174.897 109.776L167.953 125.904H165.585L173.073 109.808C173.116 109.68 173.212 109.456 173.361 109.136C173.51 108.795 173.67 108.421 173.841 108.016C174.012 107.589 174.172 107.195 174.321 106.832C174.47 106.448 174.556 106.149 174.577 105.936H174.833ZM177.617 119.728V120.976H169.457V119.728H177.617ZM178.097 123.888H183.377C183.697 124.549 184.092 125.019 184.561 125.296C185.03 125.552 185.478 125.68 185.905 125.68C185.905 125.68 185.948 125.68 186.033 125.68C186.118 125.68 186.161 125.68 186.161 125.68V126H176.753V125.68H177.009C177.372 125.68 177.702 125.531 178.001 125.232C178.3 124.912 178.332 124.464 178.097 123.888Z" fill="#2F3336"/>
</g>
<g filter="url(#filter1_d_290_147)">
<path d="M62.416 89.4V99H60.128V89.4H62.416ZM55.904 89.4V99H53.6V89.4H55.904ZM60.256 93.896V94.536H55.76V93.896H60.256ZM53.648 97.992V99H52.544V98.84C52.544 98.84 52.5707 98.84 52.624 98.84C52.688 98.84 52.7253 98.84 52.736 98.84C52.9707 98.84 53.1733 98.76 53.344 98.6C53.5147 98.4293 53.6 98.2267 53.6 97.992H53.648ZM55.872 97.992H55.904C55.9147 98.2267 56.0053 98.4293 56.176 98.6C56.3467 98.76 56.5493 98.84 56.784 98.84C56.784 98.84 56.8107 98.84 56.864 98.84C56.928 98.84 56.96 98.84 56.96 98.84V99H55.872V97.992ZM55.872 90.408V89.4H56.96V89.56C56.96 89.56 56.928 89.56 56.864 89.56C56.8107 89.56 56.784 89.56 56.784 89.56C56.5493 89.56 56.3467 89.64 56.176 89.8C56.0053 89.96 55.9147 90.1627 55.904 90.408H55.872ZM53.648 90.408H53.6C53.6 90.1627 53.5147 89.96 53.344 89.8C53.1733 89.64 52.9707 89.56 52.736 89.56C52.7253 89.56 52.688 89.56 52.624 89.56C52.5707 89.56 52.544 89.56 52.544 89.56V89.4H53.648V90.408ZM60.16 97.992V99H59.072V98.84C59.072 98.84 59.0987 98.84 59.152 98.84C59.216 98.84 59.248 98.84 59.248 98.84C59.4827 98.84 59.6853 98.76 59.856 98.6C60.0267 98.4293 60.112 98.2267 60.112 97.992H60.16ZM62.368 97.992H62.416C62.4267 98.2267 62.512 98.4293 62.672 98.6C62.8427 98.76 63.0507 98.84 63.296 98.84C63.296 98.84 63.3227 98.84 63.376 98.84C63.44 98.84 63.472 98.84 63.472 98.84V99H62.368V97.992ZM62.384 90.408V89.4H63.488V89.56C63.488 89.56 63.456 89.56 63.392 89.56C63.328 89.56 63.296 89.56 63.296 89.56C63.0507 89.56 62.8427 89.64 62.672 89.8C62.512 89.96 62.432 90.1627 62.432 90.408H62.384ZM60.16 90.408H60.112C60.112 90.1627 60.0267 89.96 59.856 89.8C59.6853 89.64 59.4827 89.56 59.248 89.56C59.248 89.56 59.216 89.56 59.152 89.56C59.0987 89.56 59.072 89.56 59.072 89.56V89.4H60.16V90.408ZM69.1196 88.968L73.8556 98.92H71.1516L68.1756 91.896L69.1196 88.968ZM66.1116 97.944C65.9943 98.232 66.0103 98.456 66.1596 98.616C66.309 98.7653 66.4743 98.84 66.6556 98.84H66.7836V99H63.5836V98.84C63.5836 98.84 63.605 98.84 63.6476 98.84C63.6903 98.84 63.7116 98.84 63.7116 98.84C63.925 98.84 64.149 98.776 64.3836 98.648C64.6183 98.5093 64.8103 98.2747 64.9596 97.944H66.1116ZM69.1196 88.968L69.1516 90.888L65.6796 98.952H64.4956L68.2396 90.904C68.261 90.84 68.309 90.728 68.3836 90.568C68.4583 90.3973 68.5383 90.2107 68.6236 90.008C68.709 89.7947 68.789 89.5973 68.8636 89.416C68.9383 89.224 68.981 89.0747 68.9916 88.968H69.1196ZM70.5116 95.864V96.488H66.4316V95.864H70.5116ZM70.7516 97.944H73.3916C73.5516 98.2747 73.749 98.5093 73.9836 98.648C74.2183 98.776 74.4423 98.84 74.6556 98.84C74.6556 98.84 74.677 98.84 74.7196 98.84C74.7623 98.84 74.7836 98.84 74.7836 98.84V99H70.0796V98.84H70.2076C70.389 98.84 70.5543 98.7653 70.7036 98.616C70.853 98.456 70.869 98.232 70.7516 97.944ZM78.2805 89.4V99H75.9765V89.4H78.2805ZM76.0245 97.992V99H74.8565V98.84C74.8565 98.84 74.8885 98.84 74.9525 98.84C75.0165 98.84 75.0538 98.84 75.0645 98.84C75.3098 98.84 75.5232 98.76 75.7045 98.6C75.8858 98.4293 75.9765 98.2267 75.9765 97.992H76.0245ZM78.2485 97.992H78.2805C78.2912 98.2267 78.3818 98.4293 78.5525 98.6C78.7338 98.76 78.9525 98.84 79.2085 98.84C79.2085 98.84 79.2352 98.84 79.2885 98.84C79.3525 98.84 79.3898 98.84 79.4005 98.84V99H78.2485V97.992ZM78.2485 90.408V89.4H79.4005L79.3845 89.56C79.3845 89.56 79.3578 89.56 79.3045 89.56C79.2512 89.56 79.2192 89.56 79.2085 89.56C78.9525 89.56 78.7338 89.64 78.5525 89.8C78.3818 89.96 78.2912 90.1627 78.2805 90.408H78.2485ZM76.0245 90.408H75.9765C75.9765 90.1627 75.8858 89.96 75.7045 89.8C75.5232 89.64 75.3045 89.56 75.0485 89.56C75.0485 89.56 75.0165 89.56 74.9525 89.56C74.8885 89.56 74.8565 89.56 74.8565 89.56V89.4H76.0245V90.408ZM83.6998 89.4H85.4278C85.8651 89.4 86.2918 89.448 86.7078 89.544C87.1238 89.6293 87.4971 89.7733 87.8278 89.976C88.1584 90.168 88.4198 90.4347 88.6118 90.776C88.8144 91.1067 88.9158 91.5227 88.9158 92.024C88.9158 92.3973 88.8358 92.7707 88.6758 93.144C88.5264 93.5067 88.2864 93.8213 87.9558 94.088C87.6358 94.3547 87.2144 94.5307 86.6918 94.616C87.0011 94.712 87.2944 94.8987 87.5718 95.176C87.8598 95.4533 88.0838 95.7147 88.2438 95.96C88.2864 96.0453 88.3611 96.184 88.4678 96.376C88.5744 96.5573 88.7078 96.7707 88.8678 97.016C89.0384 97.2507 89.2144 97.496 89.3958 97.752C89.6091 98.04 89.7958 98.264 89.9558 98.424C90.1158 98.5733 90.2811 98.68 90.4518 98.744C90.6224 98.808 90.8198 98.84 91.0438 98.84V99H89.6998C89.1238 99 88.6331 98.9573 88.2278 98.872C87.8331 98.7867 87.4864 98.632 87.1878 98.408C86.8998 98.1733 86.6331 97.8587 86.3878 97.464C86.2918 97.3253 86.1904 97.16 86.0838 96.968C85.9771 96.7653 85.8704 96.5627 85.7638 96.36C85.6571 96.1573 85.5611 95.96 85.4758 95.768C85.4011 95.576 85.3478 95.416 85.3158 95.288C85.1771 94.9467 85.0171 94.7013 84.8358 94.552C84.6651 94.392 84.5051 94.312 84.3558 94.312V94.168C84.3558 94.168 84.3931 94.168 84.4678 94.168C84.5424 94.168 84.6384 94.168 84.7558 94.168C84.9798 94.168 85.1984 94.1307 85.4118 94.056C85.6358 93.9707 85.8384 93.816 86.0198 93.592C86.2011 93.3573 86.3344 93.016 86.4198 92.568C86.4411 92.504 86.4571 92.4133 86.4678 92.296C86.4891 92.1787 86.4944 92.0453 86.4838 91.896C86.4624 91.5013 86.3878 91.1867 86.2598 90.952C86.1424 90.7067 85.9931 90.5253 85.8118 90.408C85.6304 90.28 85.4438 90.1947 85.2518 90.152C85.0704 90.0987 84.9104 90.072 84.7718 90.072C84.5691 90.0613 84.3824 90.0613 84.2118 90.072C84.0518 90.072 83.9291 90.0667 83.8438 90.056C83.8331 90.056 83.8171 90.0027 83.7958 89.896C83.7744 89.7787 83.7531 89.6667 83.7318 89.56C83.7104 89.4533 83.6998 89.4 83.6998 89.4ZM83.8598 89.4V99H81.5398V89.4H83.8598ZM81.5878 97.992L81.6518 99H80.4998V98.84C80.5104 98.84 80.5371 98.84 80.5798 98.84C80.6331 98.84 80.6704 98.84 80.6918 98.84C80.9264 98.84 81.1238 98.76 81.2838 98.6C81.4544 98.4293 81.5451 98.2267 81.5558 97.992H81.5878ZM81.5878 90.392H81.5558C81.5451 90.1467 81.4544 89.9493 81.2838 89.8C81.1238 89.64 80.9318 89.56 80.7078 89.56C80.6758 89.56 80.6331 89.56 80.5798 89.56C80.5371 89.56 80.5104 89.56 80.4998 89.56V89.4H81.6518L81.5878 90.392ZM83.8278 97.992H83.8598C83.8598 98.2587 83.9504 98.4667 84.1318 98.616C84.3238 98.7653 84.5264 98.84 84.7398 98.84C84.7398 98.84 84.7611 98.84 84.8038 98.84C84.8464 98.84 84.8784 98.84 84.8998 98.84V99H83.7478L83.8278 97.992ZM98.183 89.192C98.3963 89.192 98.6523 89.2027 98.951 89.224C99.2603 89.2453 99.5643 89.272 99.863 89.304C100.162 89.3253 100.423 89.3573 100.647 89.4C100.882 89.432 101.042 89.464 101.127 89.496L100.919 91.448H100.775C100.775 90.9573 100.604 90.568 100.263 90.28C99.9217 89.992 99.431 89.848 98.791 89.848C98.279 89.848 97.863 89.96 97.543 90.184C97.2337 90.408 97.0683 90.7067 97.047 91.08C97.0257 91.272 97.0577 91.448 97.143 91.608C97.239 91.7573 97.367 91.8907 97.527 92.008C97.6977 92.1253 97.8843 92.2427 98.087 92.36L100.599 93.912C101.026 94.1253 101.362 94.4347 101.607 94.84C101.852 95.2453 101.959 95.736 101.927 96.312C101.895 96.9093 101.719 97.4267 101.399 97.864C101.09 98.3013 100.658 98.6373 100.103 98.872C99.559 99.096 98.9137 99.208 98.167 99.208C97.7083 99.208 97.2817 99.1707 96.887 99.096C96.4923 99.0213 96.151 98.92 95.863 98.792C95.5857 98.664 95.3723 98.52 95.223 98.36C95.1377 98.1467 95.1003 97.8907 95.111 97.592C95.1217 97.2827 95.1697 96.9787 95.255 96.68C95.3403 96.3707 95.447 96.1147 95.575 95.912H95.703C95.671 96.392 95.7563 96.8347 95.959 97.24C96.1723 97.6453 96.4817 97.9707 96.887 98.216C97.2923 98.4507 97.7777 98.568 98.343 98.568C98.9617 98.568 99.4257 98.424 99.735 98.136C100.044 97.848 100.199 97.512 100.199 97.128C100.199 96.84 100.103 96.584 99.911 96.36C99.7297 96.1253 99.4257 95.896 98.999 95.672L96.727 94.232C96.1937 93.9547 95.8043 93.5867 95.559 93.128C95.3243 92.6693 95.239 92.168 95.303 91.624C95.3563 91.112 95.5057 90.6747 95.751 90.312C96.007 89.9493 96.343 89.672 96.759 89.48C97.175 89.288 97.6497 89.192 98.183 89.192ZM101.127 89.336L101.111 89.624H99.399V89.336H101.127ZM107.62 88.968L112.356 98.92H109.652L106.676 91.896L107.62 88.968ZM104.612 97.944C104.494 98.232 104.51 98.456 104.66 98.616C104.809 98.7653 104.974 98.84 105.156 98.84H105.284V99H102.084V98.84C102.084 98.84 102.105 98.84 102.148 98.84C102.19 98.84 102.212 98.84 102.212 98.84C102.425 98.84 102.649 98.776 102.884 98.648C103.118 98.5093 103.31 98.2747 103.46 97.944H104.612ZM107.62 88.968L107.652 90.888L104.18 98.952H102.996L106.74 90.904C106.761 90.84 106.809 90.728 106.884 90.568C106.958 90.3973 107.038 90.2107 107.124 90.008C107.209 89.7947 107.289 89.5973 107.364 89.416C107.438 89.224 107.481 89.0747 107.492 88.968H107.62ZM109.012 95.864V96.488H104.932V95.864H109.012ZM109.252 97.944H111.892C112.052 98.2747 112.249 98.5093 112.484 98.648C112.718 98.776 112.942 98.84 113.156 98.84C113.156 98.84 113.177 98.84 113.22 98.84C113.262 98.84 113.284 98.84 113.284 98.84V99H108.58V98.84H108.708C108.889 98.84 109.054 98.7653 109.204 98.616C109.353 98.456 109.369 98.232 109.252 97.944ZM116.733 89.4V99H114.429V89.4H116.733ZM120.461 98.36L120.845 99H116.701V98.36H120.461ZM121.517 96.056L120.892 99H118.125L118.621 98.36C119.079 98.36 119.485 98.2693 119.837 98.088C120.199 97.896 120.509 97.6293 120.765 97.288C121.021 96.936 121.218 96.5253 121.357 96.056H121.517ZM114.461 97.992L114.541 99H113.357V98.84C113.357 98.84 113.389 98.84 113.453 98.84C113.517 98.84 113.554 98.84 113.565 98.84C113.799 98.84 113.997 98.76 114.157 98.6C114.327 98.4293 114.418 98.2267 114.429 97.992H114.461ZM116.701 90.408V89.4H117.805V89.56C117.794 89.56 117.757 89.56 117.693 89.56C117.639 89.56 117.613 89.56 117.613 89.56C117.378 89.56 117.175 89.64 117.005 89.8C116.834 89.96 116.743 90.1627 116.733 90.408H116.701ZM114.461 90.408H114.429C114.418 90.1627 114.327 89.96 114.157 89.8C113.986 89.64 113.783 89.56 113.549 89.56C113.538 89.56 113.501 89.56 113.437 89.56C113.383 89.56 113.357 89.56 113.357 89.56V89.4H114.461V90.408ZM127.974 89.192C128.827 89.192 129.6 89.3093 130.294 89.544C130.987 89.768 131.584 90.0987 132.086 90.536C132.587 90.9733 132.971 91.5013 133.238 92.12C133.515 92.7387 133.654 93.4373 133.654 94.216C133.654 94.984 133.515 95.6773 133.238 96.296C132.971 96.904 132.587 97.4267 132.086 97.864C131.584 98.3013 130.987 98.6373 130.294 98.872C129.6 99.096 128.827 99.208 127.974 99.208C127.131 99.208 126.363 99.096 125.67 98.872C124.976 98.6373 124.379 98.3013 123.878 97.864C123.376 97.4267 122.992 96.904 122.726 96.296C122.459 95.6773 122.326 94.984 122.326 94.216C122.326 93.4373 122.459 92.7387 122.726 92.12C122.992 91.5013 123.376 90.9733 123.878 90.536C124.379 90.0987 124.976 89.768 125.67 89.544C126.363 89.3093 127.131 89.192 127.974 89.192ZM127.974 98.584C128.624 98.584 129.19 98.408 129.67 98.056C130.16 97.6933 130.534 97.1867 130.79 96.536C131.056 95.8853 131.19 95.112 131.19 94.216C131.19 93.3093 131.056 92.5307 130.79 91.88C130.534 91.2187 130.16 90.712 129.67 90.36C129.19 89.9973 128.624 89.816 127.974 89.816C127.334 89.816 126.774 89.9973 126.294 90.36C125.814 90.712 125.44 91.2187 125.174 91.88C124.907 92.5307 124.774 93.3093 124.774 94.216C124.774 95.112 124.907 95.8853 125.174 96.536C125.44 97.1867 125.814 97.6933 126.294 98.056C126.774 98.408 127.334 98.584 127.974 98.584ZM135.503 89.176L144.895 97.432L145.055 99.208L135.679 90.952L135.503 89.176ZM135.567 98.024V99H134.383V98.84C134.383 98.84 134.426 98.84 134.511 98.84C134.596 98.84 134.639 98.84 134.639 98.84C134.884 98.84 135.092 98.7653 135.263 98.616C135.434 98.456 135.519 98.2587 135.519 98.024H135.567ZM137.711 98.024C137.722 98.2587 137.812 98.456 137.983 98.616C138.154 98.7653 138.356 98.84 138.591 98.84C138.591 98.84 138.634 98.84 138.719 98.84C138.815 98.84 138.863 98.84 138.863 98.84V99H137.679V98.024H137.711ZM135.503 89.176L137.711 91.576V99H135.519V91C135.519 90.456 135.492 90.0187 135.439 89.688C135.386 89.3467 135.359 89.176 135.359 89.176H135.503ZM145.039 89.4V97.336C145.039 97.7093 145.05 98.04 145.071 98.328C145.103 98.6053 145.13 98.824 145.151 98.984C145.183 99.1333 145.199 99.208 145.199 99.208H145.055L142.847 96.664V89.4H145.039ZM144.991 90.376V89.4H146.191V89.56C146.191 89.56 146.143 89.56 146.047 89.56C145.962 89.56 145.919 89.56 145.919 89.56C145.684 89.56 145.476 89.64 145.295 89.8C145.124 89.9493 145.039 90.1413 145.039 90.376H144.991ZM142.847 90.376C142.836 90.1413 142.746 89.9493 142.575 89.8C142.415 89.64 142.212 89.56 141.967 89.56C141.967 89.56 141.919 89.56 141.823 89.56C141.738 89.56 141.695 89.56 141.695 89.56V89.4H142.879V90.376H142.847Z" fill="#2F3336"/>
</g>
<defs>
<filter id="filter0_d_290_147" x="13.9404" y="105.936" width="172.721" height="21.48" filterUnits="userSpaceOnUse" color-interpolation-filters="sRGB">
<feFlood flood-opacity="0" result="BackgroundImageFix"/>
<feColorMatrix in="SourceAlpha" type="matrix" values="0 0 0 0 0 0 0 0 0 0 0 0 0 0 0 0 0 0 127 0" result="hardAlpha"/>
<feOffset dy="0.5"/>
<feGaussianBlur stdDeviation="0.25"/>
<feComposite in2="hardAlpha" operator="out"/>
<feColorMatrix type="matrix" values="0 0 0 0 0 0 0 0 0 0 0 0 0 0 0 0 0 0 0.25 0"/>
<feBlend mode="normal" in2="BackgroundImageFix" result="effect1_dropShadow_290_147"/>
<feBlend mode="normal" in="SourceGraphic" in2="effect1_dropShadow_290_147" result="shape"/>
</filter>
<filter id="filter1_d_290_147" x="52.0439" y="88.968" width="94.6465" height="11.24" filterUnits="userSpaceOnUse" color-interpolation-filters="sRGB">
<feFlood flood-opacity="0" result="BackgroundImageFix"/>
<feColorMatrix in="SourceAlpha" type="matrix" values="0 0 0 0 0 0 0 0 0 0 0 0 0 0 0 0 0 0 127 0" result="hardAlpha"/>
<feOffset dy="0.5"/>
<feGaussianBlur stdDeviation="0.25"/>
<feComposite in2="hardAlpha" operator="out"/>
<feColorMatrix type="matrix" values="0 0 0 0 1 0 0 0 0 1 0 0 0 0 1 0 0 0 0.25 0"/>
<feBlend mode="normal" in2="BackgroundImageFix" result="effect1_dropShadow_290_147"/>
<feBlend mode="normal" in="SourceGraphic" in2="effect1_dropShadow_290_147" result="shape"/>
</filter>
</defs>
</svg>
