<svg width="200" height="200" viewBox="0 0 200 200" fill="none" xmlns="http://www.w3.org/2000/svg">
<path d="M99.999 178.04C143.572 178.04 178.895 142.717 178.895 99.144C178.895 55.5707 143.572 20.2476 99.999 20.2476C56.4257 20.2476 21.1025 55.5707 21.1025 99.144C21.1025 142.717 56.4257 178.04 99.999 178.04Z" fill="#F1E6FF" stroke="white"/>
<path d="M122.686 54.183C122.686 52.7097 118.957 51.6048 115.042 51.2366C115.042 51.2366 114.295 49.9975 111.213 49.4015C108.131 48.8057 106.641 48.8057 106.641 48.8057H89.4103C82.141 48.6288 81.7523 55.3126 82.4668 58.6766C82.8781 64.6284 89.4961 65.2817 92.7536 64.8641V71.6412C80.3408 70.1679 77.6376 77.215 77.8376 80.9228C72.2828 80.9228 67.5792 89.8606 65.9219 94.3295L75.523 159.153C76.689 166.755 83.4954 168.066 86.753 167.771H113.07C119.791 166.769 122.271 161.608 122.671 159.153L130.815 94.3295C131.021 85.7844 123.243 81.8312 119.328 80.9228C119.534 73.2028 110.956 70.8308 106.641 70.6099V64.8641C112.95 64.8641 114.87 60.739 115.042 58.6766H122.686V54.183Z" fill="#F4BAD2"/>
<path d="M128.218 53.0023C129.517 52.4338 130.109 50.9198 129.541 49.6207C128.972 48.3215 127.458 47.7292 126.159 48.2978C124.86 48.8663 124.268 50.3803 124.836 51.6794C125.405 52.9786 126.919 53.5709 128.218 53.0023Z" fill="#F4BAD2"/>
<path d="M136.048 46.7463C138.647 45.6089 139.832 42.5799 138.694 39.9808C137.557 37.3817 134.528 36.1967 131.929 37.3341C129.33 38.4715 128.145 41.5005 129.282 44.0996C130.419 46.6987 133.449 47.8837 136.048 46.7463Z" fill="#F4BAD2"/>
<g filter="url(#filter0_d_266_989)">
<path d="M45.2867 99.711C45.5831 99.711 45.9387 99.7259 46.3533 99.7555C46.7831 99.785 47.2053 99.8221 47.62 99.8666C48.0349 99.8961 48.3978 99.9406 48.7089 99.9999C49.0349 100.044 49.2571 100.089 49.3756 100.133L49.0867 102.844H48.8867C48.8867 102.163 48.6498 101.622 48.1756 101.222C47.7016 100.822 47.02 100.622 46.1311 100.622C45.42 100.622 44.8422 100.778 44.3978 101.089C43.9682 101.4 43.7387 101.815 43.7089 102.333C43.6793 102.6 43.7238 102.844 43.8422 103.067C43.9756 103.274 44.1533 103.459 44.3756 103.622C44.6127 103.785 44.872 103.948 45.1533 104.111L48.6422 106.267C49.2349 106.563 49.7016 106.993 50.0422 107.555C50.3831 108.118 50.5311 108.8 50.4867 109.6C50.4422 110.429 50.1978 111.148 49.7533 111.755C49.3238 112.363 48.7238 112.829 47.9533 113.155C47.1978 113.467 46.3016 113.622 45.2645 113.622C44.6276 113.622 44.0349 113.57 43.4867 113.467C42.9387 113.363 42.4645 113.222 42.0645 113.044C41.6793 112.867 41.3831 112.667 41.1756 112.444C41.0571 112.148 41.0053 111.793 41.02 111.378C41.0349 110.948 41.1016 110.526 41.22 110.111C41.3387 109.681 41.4867 109.326 41.6645 109.044H41.8422C41.7978 109.711 41.9165 110.326 42.1978 110.889C42.4942 111.452 42.9238 111.904 43.4867 112.244C44.0498 112.57 44.7238 112.733 45.5089 112.733C46.3682 112.733 47.0127 112.533 47.4422 112.133C47.872 111.733 48.0867 111.267 48.0867 110.733C48.0867 110.333 47.9533 109.978 47.6867 109.667C47.4349 109.341 47.0127 109.022 46.42 108.711L43.2645 106.711C42.5238 106.326 41.9831 105.815 41.6422 105.178C41.3165 104.541 41.1978 103.844 41.2867 103.089C41.3609 102.378 41.5682 101.77 41.9089 101.267C42.2644 100.763 42.7311 100.378 43.3089 100.111C43.8867 99.8443 44.546 99.711 45.2867 99.711ZM49.3756 99.911L49.3533 100.311H46.9756V99.911H49.3756ZM56.7487 99.9999V113.333H53.5487V99.9999H56.7487ZM61.9487 112.444L62.4598 113.333H56.7042V112.444H61.9487ZM61.1931 106.289V107.178H56.7042V106.289H61.1931ZM62.1931 99.9999V100.889H56.7042V99.9999H62.1931ZM63.3709 109.244L62.5265 113.333H58.682L59.3709 112.444C60.008 112.444 60.5709 112.318 61.0598 112.067C61.5636 111.8 61.9931 111.429 62.3487 110.955C62.7042 110.467 62.9782 109.896 63.1709 109.244H63.3709ZM61.1931 107.133V109.089H60.9709V108.911C60.9709 108.422 60.8153 108.015 60.5042 107.689C60.208 107.363 59.8005 107.193 59.282 107.178V107.133H61.1931ZM61.1931 104.378V106.333H59.282V106.289C59.8005 106.274 60.208 106.104 60.5042 105.778C60.8153 105.437 60.9709 105.022 60.9709 104.533V104.378H61.1931ZM62.1931 100.844V103.2H61.9709V103C61.9709 102.348 61.7931 101.837 61.4376 101.467C61.0969 101.096 60.6005 100.904 59.9487 100.889V100.844H62.1931ZM62.1931 99.6666V100.2L59.8598 99.9999C60.2893 99.9999 60.7413 99.9628 61.2153 99.8888C61.6893 99.7999 62.0153 99.7259 62.1931 99.6666ZM53.5931 111.933L53.7042 113.333H52.0598V113.111C52.0598 113.111 52.1042 113.111 52.1931 113.111C52.282 113.111 52.3338 113.111 52.3487 113.111C52.6747 113.111 52.9487 113 53.1709 112.778C53.408 112.541 53.5338 112.259 53.5487 111.933H53.5931ZM53.5931 101.4H53.5487C53.5338 101.059 53.408 100.778 53.1709 100.555C52.9487 100.333 52.6747 100.222 52.3487 100.222C52.3338 100.222 52.282 100.222 52.1931 100.222C52.1042 100.222 52.0598 100.222 52.0598 100.222V99.9999H53.7042L53.5931 101.4ZM69.1165 99.9999H71.5165C72.1238 99.9999 72.7165 100.067 73.2942 100.2C73.872 100.318 74.3905 100.518 74.8498 100.8C75.3089 101.067 75.672 101.437 75.9387 101.911C76.22 102.37 76.3609 102.948 76.3609 103.644C76.3609 104.163 76.2498 104.681 76.0276 105.2C75.82 105.704 75.4867 106.141 75.0276 106.511C74.5831 106.881 73.9978 107.126 73.272 107.244C73.7016 107.378 74.1089 107.637 74.4942 108.022C74.8942 108.407 75.2053 108.77 75.4276 109.111C75.4867 109.229 75.5905 109.422 75.7387 109.689C75.8867 109.941 76.072 110.237 76.2942 110.578C76.5311 110.904 76.7756 111.244 77.0276 111.6C77.3238 112 77.5831 112.311 77.8053 112.533C78.0276 112.741 78.2571 112.889 78.4942 112.978C78.7311 113.067 79.0053 113.111 79.3165 113.111V113.333H77.4498C76.6498 113.333 75.9682 113.274 75.4053 113.155C74.8571 113.037 74.3756 112.822 73.9609 112.511C73.5609 112.185 73.1904 111.748 72.8498 111.2C72.7164 111.007 72.5756 110.778 72.4276 110.511C72.2793 110.229 72.1311 109.948 71.9831 109.667C71.8349 109.385 71.7016 109.111 71.5831 108.844C71.4793 108.578 71.4053 108.355 71.3609 108.178C71.1682 107.704 70.946 107.363 70.6942 107.155C70.4571 106.933 70.2349 106.822 70.0276 106.822V106.622C70.0276 106.622 70.0793 106.622 70.1831 106.622C70.2867 106.622 70.42 106.622 70.5831 106.622C70.8942 106.622 71.1978 106.57 71.4942 106.467C71.8053 106.348 72.0867 106.133 72.3387 105.822C72.5905 105.496 72.7756 105.022 72.8942 104.4C72.9238 104.311 72.946 104.185 72.9609 104.022C72.9905 103.859 72.9978 103.674 72.9831 103.467C72.9533 102.918 72.8498 102.481 72.672 102.155C72.5089 101.815 72.3016 101.563 72.0498 101.4C71.7978 101.222 71.5387 101.104 71.272 101.044C71.02 100.97 70.7978 100.933 70.6053 100.933C70.3238 100.918 70.0645 100.918 69.8276 100.933C69.6053 100.933 69.4349 100.926 69.3165 100.911C69.3016 100.911 69.2793 100.837 69.2498 100.689C69.22 100.526 69.1905 100.37 69.1609 100.222C69.1311 100.074 69.1165 99.9999 69.1165 99.9999ZM69.3387 99.9999V113.333H66.1165V99.9999H69.3387ZM66.1831 111.933L66.272 113.333H64.672V113.111C64.6867 113.111 64.7238 113.111 64.7831 113.111C64.8571 113.111 64.9089 113.111 64.9387 113.111C65.2645 113.111 65.5387 113 65.7609 112.778C65.9978 112.541 66.1238 112.259 66.1387 111.933H66.1831ZM66.1831 101.378H66.1387C66.1238 101.037 65.9978 100.763 65.7609 100.555C65.5387 100.333 65.272 100.222 64.9609 100.222C64.9165 100.222 64.8571 100.222 64.7831 100.222C64.7238 100.222 64.6867 100.222 64.672 100.222V99.9999H66.272L66.1831 101.378ZM69.2942 111.933H69.3387C69.3387 112.304 69.4645 112.593 69.7165 112.8C69.9831 113.007 70.2645 113.111 70.5609 113.111C70.5609 113.111 70.5905 113.111 70.6498 113.111C70.7089 113.111 70.7533 113.111 70.7831 113.111V113.333H69.1831L69.2942 111.933ZM83.832 99.9999V113.333H80.632V99.9999H83.832ZM89.032 112.444L89.5431 113.333H83.7876V112.444H89.032ZM88.2765 106.289V107.178H83.7876V106.289H88.2765ZM89.2765 99.9999V100.889H83.7876V99.9999H89.2765ZM90.4542 109.244L89.6098 113.333H85.7653L86.4542 112.444C87.0913 112.444 87.6542 112.318 88.1431 112.067C88.6469 111.8 89.0765 111.429 89.432 110.955C89.7876 110.467 90.0616 109.896 90.2542 109.244H90.4542ZM88.2765 107.133V109.089H88.0542V108.911C88.0542 108.422 87.8987 108.015 87.5876 107.689C87.2913 107.363 86.8838 107.193 86.3653 107.178V107.133H88.2765ZM88.2765 104.378V106.333H86.3653V106.289C86.8838 106.274 87.2913 106.104 87.5876 105.778C87.8987 105.437 88.0542 105.022 88.0542 104.533V104.378H88.2765ZM89.2765 100.844V103.2H89.0542V103C89.0542 102.348 88.8765 101.837 88.5209 101.467C88.1802 101.096 87.6838 100.904 87.032 100.889V100.844H89.2765ZM89.2765 99.6666V100.2L86.9431 99.9999C87.3727 99.9999 87.8247 99.9628 88.2987 99.8888C88.7727 99.7999 89.0987 99.7259 89.2765 99.6666ZM80.6765 111.933L80.7876 113.333H79.1431V113.111C79.1431 113.111 79.1876 113.111 79.2765 113.111C79.3653 113.111 79.4171 113.111 79.432 113.111C79.758 113.111 80.032 113 80.2542 112.778C80.4913 112.541 80.6171 112.259 80.632 111.933H80.6765ZM80.6765 101.4H80.632C80.6171 101.059 80.4913 100.778 80.2542 100.555C80.032 100.333 79.758 100.222 79.432 100.222C79.4171 100.222 79.3653 100.222 79.2765 100.222C79.1876 100.222 79.1431 100.222 79.1431 100.222V99.9999H80.7876L80.6765 101.4ZM92.9531 99.6888L105.998 111.155L106.22 113.622L93.1976 102.155L92.9531 99.6888ZM93.042 111.978V113.333H91.3976V113.111C91.3976 113.111 91.4569 113.111 91.5753 113.111C91.694 113.111 91.7531 113.111 91.7531 113.111C92.094 113.111 92.3829 113.007 92.6198 112.8C92.8569 112.578 92.9753 112.304 92.9753 111.978H93.042ZM96.0198 111.978C96.0347 112.304 96.1607 112.578 96.3976 112.8C96.6347 113.007 96.9162 113.111 97.242 113.111C97.242 113.111 97.3013 113.111 97.4198 113.111C97.5531 113.111 97.6198 113.111 97.6198 113.111V113.333H95.9753V111.978H96.0198ZM92.9531 99.6888L96.0198 103.022V113.333H92.9753V102.222C92.9753 101.467 92.9385 100.859 92.8642 100.4C92.7902 99.9259 92.7531 99.6888 92.7531 99.6888H92.9531ZM106.198 99.9999V111.022C106.198 111.541 106.212 112 106.242 112.4C106.286 112.785 106.324 113.089 106.353 113.311C106.398 113.518 106.42 113.622 106.42 113.622H106.22L103.153 110.089V99.9999H106.198ZM106.131 101.355V99.9999H107.798V100.222C107.798 100.222 107.731 100.222 107.598 100.222C107.479 100.222 107.42 100.222 107.42 100.222C107.094 100.222 106.805 100.333 106.553 100.555C106.316 100.763 106.198 101.029 106.198 101.355H106.131ZM103.153 101.355C103.138 101.029 103.012 100.763 102.775 100.555C102.553 100.333 102.272 100.222 101.931 100.222C101.931 100.222 101.864 100.222 101.731 100.222C101.612 100.222 101.553 100.222 101.553 100.222V99.9999H103.198V101.355H103.153ZM113.693 99.9999V113.333H110.493V99.9999H113.693ZM118.893 112.444L119.404 113.333H113.649V112.444H118.893ZM118.138 106.289V107.178H113.649V106.289H118.138ZM119.138 99.9999V100.889H113.649V99.9999H119.138ZM120.315 109.244L119.471 113.333H115.626L116.315 112.444C116.952 112.444 117.515 112.318 118.004 112.067C118.508 111.8 118.938 111.429 119.293 110.955C119.649 110.467 119.923 109.896 120.115 109.244H120.315ZM118.138 107.133V109.089H117.915V108.911C117.915 108.422 117.76 108.015 117.449 107.689C117.152 107.363 116.745 107.193 116.226 107.178V107.133H118.138ZM118.138 104.378V106.333H116.226V106.289C116.745 106.274 117.152 106.104 117.449 105.778C117.76 105.437 117.915 105.022 117.915 104.533V104.378H118.138ZM119.138 100.844V103.2H118.915V103C118.915 102.348 118.738 101.837 118.382 101.467C118.041 101.096 117.545 100.904 116.893 100.889V100.844H119.138ZM119.138 99.6666V100.2L116.804 99.9999C117.234 99.9999 117.686 99.9628 118.16 99.8888C118.634 99.7999 118.96 99.7259 119.138 99.6666ZM110.538 111.933L110.649 113.333H109.004V113.111C109.004 113.111 109.049 113.111 109.138 113.111C109.226 113.111 109.278 113.111 109.293 113.111C109.619 113.111 109.893 113 110.115 112.778C110.352 112.541 110.478 112.259 110.493 111.933H110.538ZM110.538 101.4H110.493C110.478 101.059 110.352 100.778 110.115 100.555C109.893 100.333 109.619 100.222 109.293 100.222C109.278 100.222 109.226 100.222 109.138 100.222C109.049 100.222 109.004 100.222 109.004 100.222V99.9999H110.649L110.538 101.4ZM126.15 99.9999V113.333H122.95V99.9999H126.15ZM131.328 112.444L131.861 113.333H126.105V112.444H131.328ZM132.794 109.244L131.928 113.333H128.083L128.772 112.444C129.409 112.444 129.972 112.318 130.461 112.067C130.964 111.8 131.394 111.429 131.75 110.955C132.105 110.467 132.379 109.896 132.572 109.244H132.794ZM122.994 111.933L123.105 113.333H121.461V113.111C121.461 113.111 121.505 113.111 121.594 113.111C121.683 113.111 121.735 113.111 121.75 113.111C122.076 113.111 122.35 113 122.572 112.778C122.809 112.541 122.935 112.259 122.95 111.933H122.994ZM126.105 101.4V99.9999H127.639V100.222C127.624 100.222 127.572 100.222 127.483 100.222C127.409 100.222 127.372 100.222 127.372 100.222C127.046 100.222 126.764 100.333 126.528 100.555C126.29 100.778 126.164 101.059 126.15 101.4H126.105ZM122.994 101.4H122.95C122.935 101.059 122.809 100.778 122.572 100.555C122.335 100.333 122.053 100.222 121.728 100.222C121.713 100.222 121.661 100.222 121.572 100.222C121.498 100.222 121.461 100.222 121.461 100.222V99.9999H122.994V101.4ZM138.129 99.9999V113.333H134.929V99.9999H138.129ZM143.307 112.444L143.84 113.333H138.084V112.444H143.307ZM144.773 109.244L143.907 113.333H140.062L140.751 112.444C141.388 112.444 141.951 112.318 142.44 112.067C142.944 111.8 143.373 111.429 143.729 110.955C144.084 110.467 144.358 109.896 144.551 109.244H144.773ZM134.973 111.933L135.084 113.333H133.44V113.111C133.44 113.111 133.484 113.111 133.573 113.111C133.662 113.111 133.714 113.111 133.729 113.111C134.055 113.111 134.329 113 134.551 112.778C134.788 112.541 134.914 112.259 134.929 111.933H134.973ZM138.084 101.4V99.9999H139.618V100.222C139.603 100.222 139.551 100.222 139.462 100.222C139.388 100.222 139.351 100.222 139.351 100.222C139.025 100.222 138.744 100.333 138.507 100.555C138.27 100.778 138.144 101.059 138.129 101.4H138.084ZM134.973 101.4H134.929C134.914 101.059 134.788 100.778 134.551 100.555C134.314 100.333 134.033 100.222 133.707 100.222C133.692 100.222 133.64 100.222 133.551 100.222C133.477 100.222 133.44 100.222 133.44 100.222V99.9999H134.973V101.4ZM152.382 99.3999L158.96 113.222H155.204L151.071 103.467L152.382 99.3999ZM148.204 111.867C148.041 112.267 148.063 112.578 148.271 112.8C148.478 113.007 148.708 113.111 148.96 113.111H149.137V113.333H144.693V113.111C144.693 113.111 144.723 113.111 144.782 113.111C144.841 113.111 144.871 113.111 144.871 113.111C145.167 113.111 145.478 113.022 145.804 112.844C146.13 112.652 146.397 112.326 146.604 111.867H148.204ZM152.382 99.3999L152.426 102.067L147.604 113.267H145.96L151.16 102.089C151.189 102 151.256 101.844 151.36 101.622C151.463 101.385 151.574 101.126 151.693 100.844C151.812 100.548 151.923 100.274 152.026 100.022C152.13 99.7555 152.189 99.5481 152.204 99.3999H152.382ZM154.315 108.978V109.844H148.648V108.978H154.315ZM154.648 111.867H158.315C158.537 112.326 158.812 112.652 159.137 112.844C159.463 113.022 159.774 113.111 160.071 113.111C160.071 113.111 160.1 113.111 160.16 113.111C160.219 113.111 160.248 113.111 160.248 113.111V113.333H153.715V113.111H153.893C154.145 113.111 154.374 113.007 154.582 112.8C154.789 112.578 154.812 112.267 154.648 111.867Z" fill="#BD68A1"/>
</g>
<g filter="url(#filter1_d_266_989)">
<path d="M68.6778 85.3332V93.3331H66.7712V85.3332H68.6778ZM63.2512 85.3332V93.3331H61.3312V85.3332H63.2512ZM66.8778 89.0798V89.6131H63.1312V89.0798H66.8778ZM61.3712 92.4932V93.3331H60.4512V93.1998C60.4512 93.1998 60.4734 93.1998 60.5178 93.1998C60.5712 93.1998 60.6023 93.1998 60.6112 93.1998C60.8067 93.1998 60.9756 93.1331 61.1178 92.9998C61.2601 92.8576 61.3312 92.6887 61.3312 92.4932H61.3712ZM63.2245 92.4932H63.2512C63.2601 92.6887 63.3356 92.8576 63.4778 92.9998C63.6201 93.1331 63.7889 93.1998 63.9845 93.1998C63.9845 93.1998 64.0067 93.1998 64.0512 93.1998C64.1045 93.1998 64.1312 93.1998 64.1312 93.1998V93.3331H63.2245V92.4932ZM63.2245 86.1731V85.3332H64.1312V85.4665C64.1312 85.4665 64.1045 85.4665 64.0512 85.4665C64.0067 85.4665 63.9845 85.4665 63.9845 85.4665C63.7889 85.4665 63.6201 85.5331 63.4778 85.6665C63.3356 85.7998 63.2601 85.9687 63.2512 86.1731H63.2245ZM61.3712 86.1731H61.3312C61.3312 85.9687 61.2601 85.7998 61.1178 85.6665C60.9756 85.5331 60.8067 85.4665 60.6112 85.4665C60.6023 85.4665 60.5712 85.4665 60.5178 85.4665C60.4734 85.4665 60.4512 85.4665 60.4512 85.4665V85.3332H61.3712V86.1731ZM66.7978 92.4932V93.3331H65.8912V93.1998C65.8912 93.1998 65.9134 93.1998 65.9578 93.1998C66.0112 93.1998 66.0378 93.1998 66.0378 93.1998C66.2334 93.1998 66.4023 93.1331 66.5445 92.9998C66.6867 92.8576 66.7578 92.6887 66.7578 92.4932H66.7978ZM68.6378 92.4932H68.6778C68.6867 92.6887 68.7578 92.8576 68.8912 92.9998C69.0334 93.1331 69.2067 93.1998 69.4112 93.1998C69.4112 93.1998 69.4334 93.1998 69.4778 93.1998C69.5312 93.1998 69.5578 93.1998 69.5578 93.1998V93.3331H68.6378V92.4932ZM68.6512 86.1731V85.3332H69.5712V85.4665C69.5712 85.4665 69.5445 85.4665 69.4912 85.4665C69.4378 85.4665 69.4112 85.4665 69.4112 85.4665C69.2067 85.4665 69.0334 85.5331 68.8912 85.6665C68.7578 85.7998 68.6912 85.9687 68.6912 86.1731H68.6512ZM66.7978 86.1731H66.7578C66.7578 85.9687 66.6867 85.7998 66.5445 85.6665C66.4023 85.5331 66.2334 85.4665 66.0378 85.4665C66.0378 85.4665 66.0112 85.4665 65.9578 85.4665C65.9134 85.4665 65.8912 85.4665 65.8912 85.4665V85.3332H66.7978V86.1731ZM74.2643 84.9731L78.211 93.2665H75.9576L73.4776 87.4131L74.2643 84.9731ZM71.7576 92.4531C71.6598 92.6931 71.6732 92.8798 71.7976 93.0131C71.9221 93.1376 72.0598 93.1998 72.211 93.1998H72.3176V93.3331H69.6509V93.1998C69.6509 93.1998 69.6687 93.1998 69.7043 93.1998C69.7398 93.1998 69.7576 93.1998 69.7576 93.1998C69.9354 93.1998 70.1221 93.1465 70.3176 93.0398C70.5132 92.9243 70.6732 92.7287 70.7976 92.4531H71.7576ZM74.2643 84.9731L74.291 86.5731L71.3976 93.2931H70.411L73.531 86.5865C73.5487 86.5331 73.5887 86.4398 73.6509 86.3065C73.7132 86.1643 73.7798 86.0087 73.8509 85.8398C73.9221 85.662 73.9887 85.4976 74.0509 85.3465C74.1132 85.1865 74.1487 85.062 74.1576 84.9731H74.2643ZM75.4243 90.7198V91.2398H72.0243V90.7198H75.4243ZM75.6243 92.4531H77.8243C77.9576 92.7287 78.1221 92.9243 78.3176 93.0398C78.5132 93.1465 78.6998 93.1998 78.8776 93.1998C78.8776 93.1998 78.8954 93.1998 78.931 93.1998C78.9665 93.1998 78.9843 93.1998 78.9843 93.1998V93.3331H75.0643V93.1998H75.171C75.3221 93.1998 75.4598 93.1376 75.5843 93.0131C75.7087 92.8798 75.7221 92.6931 75.6243 92.4531ZM81.8983 85.3332V93.3331H79.9783V85.3332H81.8983ZM80.0183 92.4932V93.3331H79.045V93.1998C79.045 93.1998 79.0716 93.1998 79.125 93.1998C79.1783 93.1998 79.2094 93.1998 79.2183 93.1998C79.4227 93.1998 79.6005 93.1331 79.7516 92.9998C79.9027 92.8576 79.9783 92.6887 79.9783 92.4932H80.0183ZM81.8716 92.4932H81.8983C81.9072 92.6887 81.9827 92.8576 82.1249 92.9998C82.2761 93.1331 82.4583 93.1998 82.6716 93.1998C82.6716 93.1998 82.6938 93.1998 82.7383 93.1998C82.7916 93.1998 82.8227 93.1998 82.8316 93.1998V93.3331H81.8716V92.4932ZM81.8716 86.1731V85.3332H82.8316L82.8183 85.4665C82.8183 85.4665 82.7961 85.4665 82.7516 85.4665C82.7072 85.4665 82.6805 85.4665 82.6716 85.4665C82.4583 85.4665 82.2761 85.5331 82.1249 85.6665C81.9827 85.7998 81.9072 85.9687 81.8983 86.1731H81.8716ZM80.0183 86.1731H79.9783C79.9783 85.9687 79.9027 85.7998 79.7516 85.6665C79.6005 85.5331 79.4183 85.4665 79.205 85.4665C79.205 85.4665 79.1783 85.4665 79.125 85.4665C79.0716 85.4665 79.045 85.4665 79.045 85.4665V85.3332H80.0183V86.1731ZM86.4143 85.3332H87.8543C88.2187 85.3332 88.5743 85.3731 88.921 85.4531C89.2676 85.5243 89.5787 85.6443 89.8543 85.8131C90.1298 85.9731 90.3476 86.1954 90.5076 86.4798C90.6765 86.7554 90.7609 87.102 90.7609 87.5198C90.7609 87.8309 90.6943 88.142 90.5609 88.4531C90.4365 88.7554 90.2365 89.0176 89.9609 89.2398C89.6943 89.462 89.3432 89.6087 88.9076 89.6798C89.1654 89.7598 89.4098 89.9154 89.641 90.1465C89.881 90.3776 90.0676 90.5954 90.201 90.7998C90.2365 90.8709 90.2987 90.9865 90.3876 91.1465C90.4765 91.2976 90.5876 91.4754 90.721 91.6798C90.8632 91.8754 91.0098 92.0798 91.1609 92.2932C91.3387 92.5332 91.4943 92.7198 91.6276 92.8531C91.7609 92.9776 91.8987 93.0665 92.0409 93.1198C92.1832 93.1731 92.3476 93.1998 92.5343 93.1998V93.3331H91.4143C90.9343 93.3331 90.5254 93.2976 90.1876 93.2265C89.8587 93.1554 89.5698 93.0265 89.321 92.8398C89.081 92.6443 88.8587 92.382 88.6543 92.0531C88.5743 91.9376 88.4898 91.7998 88.4009 91.6398C88.3121 91.4709 88.2232 91.302 88.1343 91.1331C88.0454 90.9643 87.9654 90.7998 87.8943 90.6398C87.8321 90.4798 87.7876 90.3465 87.761 90.2398C87.6454 89.9554 87.5121 89.7509 87.361 89.6265C87.2187 89.4931 87.0854 89.4265 86.961 89.4265V89.3065C86.961 89.3065 86.9921 89.3065 87.0543 89.3065C87.1165 89.3065 87.1965 89.3065 87.2943 89.3065C87.4809 89.3065 87.6632 89.2754 87.841 89.2131C88.0276 89.142 88.1965 89.0131 88.3476 88.8265C88.4987 88.6309 88.6098 88.3465 88.6809 87.9731C88.6987 87.9198 88.7121 87.8443 88.721 87.7465C88.7387 87.6487 88.7432 87.5376 88.7343 87.4131C88.7165 87.0843 88.6543 86.822 88.5476 86.6265C88.4498 86.422 88.3254 86.2709 88.1743 86.1731C88.0232 86.0665 87.8676 85.9954 87.7076 85.9598C87.5565 85.9154 87.4232 85.8931 87.3076 85.8931C87.1387 85.8843 86.9832 85.8843 86.8409 85.8931C86.7076 85.8931 86.6054 85.8887 86.5343 85.8798C86.5254 85.8798 86.5121 85.8354 86.4943 85.7465C86.4765 85.6487 86.4587 85.5554 86.4409 85.4665C86.4232 85.3776 86.4143 85.3332 86.4143 85.3332ZM86.5476 85.3332V93.3331H84.6143V85.3332H86.5476ZM84.6543 92.4932L84.7076 93.3331H83.7476V93.1998C83.7565 93.1998 83.7787 93.1998 83.8143 93.1998C83.8587 93.1998 83.8898 93.1998 83.9076 93.1998C84.1032 93.1998 84.2676 93.1331 84.401 92.9998C84.5432 92.8576 84.6187 92.6887 84.6276 92.4932H84.6543ZM84.6543 86.1598H84.6276C84.6187 85.9554 84.5432 85.7909 84.401 85.6665C84.2676 85.5331 84.1076 85.4665 83.921 85.4665C83.8943 85.4665 83.8587 85.4665 83.8143 85.4665C83.7787 85.4665 83.7565 85.4665 83.7476 85.4665V85.3332H84.7076L84.6543 86.1598ZM86.5209 92.4932H86.5476C86.5476 92.7154 86.6232 92.8887 86.7743 93.0131C86.9343 93.1376 87.1032 93.1998 87.281 93.1998C87.281 93.1998 87.2987 93.1998 87.3343 93.1998C87.3698 93.1998 87.3965 93.1998 87.4143 93.1998V93.3331H86.4543L86.5209 92.4932ZM98.4836 85.1598C98.6614 85.1598 98.8747 85.1687 99.1236 85.1865C99.3814 85.2043 99.6347 85.2265 99.8836 85.2531C100.133 85.2709 100.35 85.2976 100.537 85.3332C100.733 85.3598 100.866 85.3865 100.937 85.4131L100.764 87.0398H100.644C100.644 86.6309 100.501 86.3065 100.217 86.0665C99.9325 85.8265 99.5236 85.7065 98.9903 85.7065C98.5636 85.7065 98.2169 85.7998 97.9503 85.9865C97.6925 86.1731 97.5547 86.422 97.537 86.7331C97.5192 86.8931 97.5458 87.0398 97.617 87.1731C97.697 87.2976 97.8036 87.4087 97.937 87.5065C98.0792 87.6043 98.2347 87.702 98.4036 87.7998L100.497 89.0931C100.853 89.2709 101.133 89.5287 101.337 89.8665C101.541 90.2043 101.63 90.6131 101.604 91.0931C101.577 91.5909 101.43 92.022 101.164 92.3865C100.906 92.7509 100.546 93.0309 100.084 93.2265C99.6303 93.4131 99.0925 93.5065 98.4703 93.5065C98.0881 93.5065 97.7325 93.4754 97.4036 93.4131C97.0747 93.3509 96.7903 93.2665 96.5503 93.1598C96.3192 93.0531 96.1414 92.9331 96.0169 92.7998C95.9458 92.622 95.9147 92.4087 95.9236 92.1598C95.9325 91.902 95.9725 91.6487 96.0436 91.3998C96.1147 91.142 96.2036 90.9287 96.3103 90.7598H96.4169C96.3903 91.1598 96.4614 91.5287 96.6303 91.8665C96.8081 92.2043 97.0658 92.4754 97.4036 92.6798C97.7414 92.8754 98.1458 92.9731 98.617 92.9731C99.1325 92.9731 99.5192 92.8531 99.777 92.6131C100.035 92.3731 100.164 92.0931 100.164 91.7731C100.164 91.5331 100.084 91.3198 99.9236 91.1331C99.7725 90.9376 99.5192 90.7465 99.1636 90.5598L97.2703 89.3598C96.8258 89.1287 96.5014 88.822 96.2969 88.4398C96.1014 88.0576 96.0303 87.6398 96.0836 87.1865C96.1281 86.7598 96.2525 86.3954 96.457 86.0931C96.6703 85.7909 96.9503 85.5598 97.2969 85.3998C97.6436 85.2398 98.0392 85.1598 98.4836 85.1598ZM100.937 85.2798L100.924 85.5198H99.497V85.2798H100.937ZM106.348 84.9731L110.294 93.2665H108.041L105.561 87.4131L106.348 84.9731ZM103.841 92.4531C103.743 92.6931 103.757 92.8798 103.881 93.0131C104.005 93.1376 104.143 93.1998 104.294 93.1998H104.401V93.3331H101.734V93.1998C101.734 93.1998 101.752 93.1998 101.788 93.1998C101.823 93.1998 101.841 93.1998 101.841 93.1998C102.019 93.1998 102.205 93.1465 102.401 93.0398C102.597 92.9243 102.757 92.7287 102.881 92.4531H103.841ZM106.348 84.9731L106.374 86.5731L103.481 93.2931H102.494L105.614 86.5865C105.632 86.5331 105.672 86.4398 105.734 86.3065C105.797 86.1643 105.863 86.0087 105.934 85.8398C106.005 85.662 106.072 85.4976 106.134 85.3465C106.197 85.1865 106.232 85.062 106.241 84.9731H106.348ZM107.508 90.7198V91.2398H104.108V90.7198H107.508ZM107.708 92.4531H109.908C110.041 92.7287 110.205 92.9243 110.401 93.0398C110.597 93.1465 110.783 93.1998 110.961 93.1998C110.961 93.1998 110.979 93.1998 111.014 93.1998C111.05 93.1998 111.068 93.1998 111.068 93.1998V93.3331H107.148V93.1998H107.254C107.405 93.1998 107.543 93.1376 107.668 93.0131C107.792 92.8798 107.805 92.6931 107.708 92.4531ZM113.942 85.3332V93.3331H112.022V85.3332H113.942ZM117.048 92.7998L117.368 93.3331H113.915V92.7998H117.048ZM117.928 90.8798L117.408 93.3331H115.102L115.515 92.7998C115.897 92.7998 116.235 92.7243 116.528 92.5731C116.831 92.4131 117.088 92.1909 117.302 91.9065C117.515 91.6132 117.679 91.2709 117.795 90.8798H117.928ZM112.048 92.4932L112.115 93.3331H111.128V93.1998C111.128 93.1998 111.155 93.1998 111.208 93.1998C111.262 93.1998 111.293 93.1998 111.302 93.1998C111.497 93.1998 111.662 93.1331 111.795 92.9998C111.937 92.8576 112.013 92.6887 112.022 92.4932H112.048ZM113.915 86.1731V85.3332H114.835V85.4665C114.826 85.4665 114.795 85.4665 114.742 85.4665C114.697 85.4665 114.675 85.4665 114.675 85.4665C114.479 85.4665 114.311 85.5331 114.168 85.6665C114.026 85.7998 113.951 85.9687 113.942 86.1731H113.915ZM112.048 86.1731H112.022C112.013 85.9687 111.937 85.7998 111.795 85.6665C111.653 85.5331 111.484 85.4665 111.288 85.4665C111.279 85.4665 111.248 85.4665 111.195 85.4665C111.151 85.4665 111.128 85.4665 111.128 85.4665V85.3332H112.048V86.1731ZM123.309 85.1598C124.02 85.1598 124.665 85.2576 125.243 85.4531C125.82 85.6398 126.318 85.9154 126.736 86.2798C127.154 86.6443 127.474 87.0843 127.696 87.5998C127.927 88.1154 128.043 88.6976 128.043 89.3465C128.043 89.9865 127.927 90.5643 127.696 91.0798C127.474 91.5865 127.154 92.022 126.736 92.3865C126.318 92.7509 125.82 93.0309 125.243 93.2265C124.665 93.4131 124.02 93.5065 123.309 93.5065C122.607 93.5065 121.967 93.4131 121.389 93.2265C120.811 93.0309 120.314 92.7509 119.896 92.3865C119.478 92.022 119.158 91.5865 118.936 91.0798C118.714 90.5643 118.603 89.9865 118.603 89.3465C118.603 88.6976 118.714 88.1154 118.936 87.5998C119.158 87.0843 119.478 86.6443 119.896 86.2798C120.314 85.9154 120.811 85.6398 121.389 85.4531C121.967 85.2576 122.607 85.1598 123.309 85.1598ZM123.309 92.9865C123.851 92.9865 124.323 92.8398 124.723 92.5465C125.131 92.2443 125.443 91.822 125.656 91.2798C125.878 90.7376 125.989 90.0931 125.989 89.3465C125.989 88.5909 125.878 87.942 125.656 87.3998C125.443 86.8487 125.131 86.4265 124.723 86.1331C124.323 85.8309 123.851 85.6798 123.309 85.6798C122.776 85.6798 122.309 85.8309 121.909 86.1331C121.509 86.4265 121.198 86.8487 120.976 87.3998C120.754 87.942 120.643 88.5909 120.643 89.3465C120.643 90.0931 120.754 90.7376 120.976 91.2798C121.198 91.822 121.509 92.2443 121.909 92.5465C122.309 92.8398 122.776 92.9865 123.309 92.9865ZM129.584 85.1465L137.41 92.0265L137.544 93.5065L129.73 86.6265L129.584 85.1465ZM129.637 92.5198V93.3331H128.65V93.1998C128.65 93.1998 128.686 93.1998 128.757 93.1998C128.828 93.1998 128.864 93.1998 128.864 93.1998C129.068 93.1998 129.241 93.1376 129.384 93.0131C129.526 92.8798 129.597 92.7154 129.597 92.5198H129.637ZM131.424 92.5198C131.432 92.7154 131.508 92.8798 131.65 93.0131C131.793 93.1376 131.961 93.1998 132.157 93.1998C132.157 93.1998 132.193 93.1998 132.264 93.1998C132.344 93.1998 132.384 93.1998 132.384 93.1998V93.3331H131.397V92.5198H131.424ZM129.584 85.1465L131.424 87.1465V93.3331H129.597V86.6665C129.597 86.2131 129.575 85.8487 129.53 85.5731C129.486 85.2887 129.464 85.1465 129.464 85.1465H129.584ZM137.53 85.3332V91.9465C137.53 92.2576 137.539 92.5331 137.557 92.7731C137.584 93.0043 137.606 93.1865 137.624 93.3198C137.65 93.4443 137.664 93.5065 137.664 93.5065H137.544L135.704 91.3865V85.3332H137.53ZM137.49 86.1465V85.3332H138.49V85.4665C138.49 85.4665 138.45 85.4665 138.37 85.4665C138.299 85.4665 138.264 85.4665 138.264 85.4665C138.068 85.4665 137.895 85.5331 137.744 85.6665C137.601 85.7909 137.53 85.9509 137.53 86.1465H137.49ZM135.704 86.1465C135.695 85.9509 135.619 85.7909 135.477 85.6665C135.344 85.5331 135.175 85.4665 134.97 85.4665C134.97 85.4665 134.93 85.4665 134.85 85.4665C134.779 85.4665 134.744 85.4665 134.744 85.4665V85.3332H135.73V86.1465H135.704Z" fill="#BD68A1"/>
</g>
<path d="M35.4683 42.9602C34.961 43.5748 34.4583 44.2015 33.969 44.826C33.9676 44.8277 33.9663 44.8297 33.965 44.8317C33.9652 44.832 33.965 44.8315 33.965 44.8317C31.9798 43.3853 27.729 39.3244 30.9274 34.8331C32.2885 35.2868 34.4905 38.4117 34.7507 39.7275C35.3454 42.0217 35.0301 43.2124 33.969 44.826C34.4583 44.2015 34.961 43.5748 35.4683 42.9602C35.8387 42.5113 36.2116 42.0688 36.5834 41.6386C37.8474 40.1766 39.1003 38.8546 40.2096 37.8955C38.6216 36.1091 36.0485 31.1922 39.8596 28.1975C41.7596 29.2468 45.1001 32.0428 43.2625 34.8331C42.5003 35.9906 42.0045 36.5635 41.6912 36.7911C42.321 36.4164 42.8578 36.252 43.2625 36.3644C43.6892 36.4828 44.1152 36.4724 44.5325 36.3644C45.3538 36.1517 46.1418 35.5615 46.8365 34.8331C47.8156 33.8062 48.609 32.5046 49.0474 31.6004C50.2383 29.7573 53.5221 26.3431 57.129 27.432C60.7358 28.5208 56.9872 30.6646 54.6618 31.6004H49.0474C48.609 32.5046 47.8156 33.8062 46.8365 34.8331C49.2752 35.06 54.6618 36.1773 54.6618 38.8313C53.9814 39.6822 51.9056 41.2133 49.0474 40.5328C46.189 39.8522 44.8465 37.4702 44.5325 36.3644C44.1152 36.4724 43.6892 36.4828 43.2625 36.3644C42.8578 36.252 42.321 36.4164 41.6912 36.7911C41.641 36.8275 41.5956 36.8551 41.5545 36.8748C41.1398 37.1357 40.6881 37.482 40.2096 37.8955C39.1003 38.8546 37.8474 40.1766 36.5834 41.6386C39.8596 40.5328 45.8147 42.6935 46.4952 45.552C45.7863 46.7995 43.4667 48.9206 39.8596 47.4235C36.2527 45.9262 35.2132 43.6975 35.4683 42.9602Z" fill="#F4BAD2"/>
<path d="M30.1616 49.9755C33.5078 45.1548 40.8125 35.6837 43.2625 36.3644C43.6892 36.4828 44.1152 36.4724 44.5325 36.3644M44.5325 36.3644C46.5118 35.852 48.2978 33.146 49.0474 31.6004M44.5325 36.3644C44.8465 37.4702 46.1889 39.8522 49.0474 40.5328C51.9056 41.2133 53.9814 39.6822 54.6618 38.8313C54.6618 36.1773 49.2752 35.06 46.8365 34.8331M49.0474 31.6004C50.2383 29.7573 53.5221 26.3431 57.1289 27.432C60.7358 28.5208 56.9872 30.6646 54.6618 31.6004H49.0474ZM40.2096 37.8955C38.6216 36.1091 36.0485 31.1922 39.8596 28.1975C41.7596 29.2468 45.1001 32.0428 43.2625 34.8331C41.4249 37.6233 41.1358 37.0166 41.2207 36.3644M36.5834 41.6386C39.8596 40.5328 45.8147 42.6935 46.4952 45.552C45.7863 46.7995 43.4667 48.9206 39.8596 47.4235C36.2527 45.9262 35.2132 43.6975 35.4683 42.9602M33.9649 44.8317C31.9801 43.3855 27.7287 39.3248 30.9274 34.8331C32.2885 35.2868 34.4905 38.4117 34.7507 39.7275C35.3461 42.0244 35.0292 43.2153 33.9649 44.8317Z" stroke="#F4BAD2" stroke-width="0.3"/>
<path d="M15.8261 100.651C15.9861 101.432 16.1583 102.216 16.337 102.989C16.3377 102.992 16.3384 102.994 16.3391 102.996C16.3393 102.996 16.3389 102.996 16.3391 102.996C13.9669 103.633 8.13733 104.392 6.64941 99.0832C7.8571 98.3085 11.6719 98.5565 12.8594 99.1801C15.0184 100.157 15.7473 101.151 16.337 102.989C16.1583 102.216 15.9861 101.432 15.8261 100.651C15.7093 100.081 15.5991 99.5127 15.4977 98.9532C15.1531 97.0516 14.9107 95.2465 14.8607 93.781C12.4732 93.8954 7.03057 92.8112 7.09248 87.9648C9.10193 87.1445 13.3754 86.2999 14.3936 89.4819C14.816 90.8019 14.9507 91.5476 14.9312 91.9343C15.0349 91.2087 15.244 90.6876 15.5855 90.4432C15.9456 90.1856 16.2049 89.8474 16.3829 89.4547C16.7331 88.6819 16.7683 87.6979 16.6374 86.7001C16.4528 85.2932 15.9378 83.8587 15.5092 82.9496C14.8223 80.8656 14.2264 76.1661 17.3384 74.0423C20.4505 71.9183 19.7656 76.1821 19.0341 78.5794L15.5092 82.9496C15.9378 83.8587 16.4528 85.2932 16.6374 86.7001C18.345 84.9443 22.5965 81.453 24.6625 83.1192C24.8974 84.183 24.7861 86.7601 22.4619 88.5576C20.1376 90.3552 17.4408 89.9045 16.3829 89.4547C16.2049 89.8474 15.9456 90.1856 15.5855 90.4432C15.244 90.6876 15.0349 91.2087 14.9312 91.9343C14.9281 91.9961 14.921 92.049 14.9105 92.0932C14.8533 92.5796 14.8391 93.1487 14.8607 93.781C14.9107 95.2465 15.1531 97.0516 15.4977 98.9532C16.6937 95.709 22.1142 92.4303 24.7663 93.6952C25.2923 95.0303 25.4872 98.1674 22.0572 100.035C18.6273 101.903 16.2398 101.313 15.8261 100.651Z" fill="#F4BAD2"/>
<path d="M17.9551 109.186C16.3036 103.555 13.5176 91.923 15.5855 90.4432C15.9456 90.1856 16.2049 89.8474 16.3829 89.4547M16.3829 89.4547C17.2267 87.5923 16.2418 84.5034 15.5092 82.9496M16.3829 89.4547C17.4408 89.9045 20.1376 90.3552 22.4619 88.5576C24.7861 86.7601 24.8974 84.183 24.6625 83.1192C22.5965 81.453 18.345 84.9443 16.6374 86.7001M15.5092 82.9496C14.8223 80.8656 14.2264 76.1661 17.3384 74.0423C20.4505 71.9183 19.7656 76.1821 19.0341 78.5794L15.5092 82.9496ZM14.8607 93.781C12.4732 93.8954 7.03057 92.8112 7.09248 87.9648C9.10193 87.1445 13.3754 86.2999 14.3936 89.4819C15.4119 92.6639 14.7579 92.5081 14.3037 92.0325M15.4977 98.9532C16.6937 95.709 22.1142 92.4303 24.7663 93.6952C25.2923 95.0303 25.4872 98.1674 22.0572 100.035C18.6273 101.903 16.2398 101.313 15.8261 100.651M16.3391 102.996C13.9672 103.633 8.13744 104.393 6.64941 99.0832C7.8571 98.3085 11.6719 98.5565 12.8594 99.1801C15.021 100.159 15.7491 101.153 16.3391 102.996Z" stroke="#F4BAD2" stroke-width="0.3"/>
<path d="M37.148 155.571C37.7995 156.03 38.4629 156.484 39.1226 156.924C39.1246 156.925 39.1266 156.926 39.1286 156.928C37.8375 159.017 34.1126 163.565 29.3906 160.718C29.7393 159.327 32.6873 156.893 33.9795 156.533C36.2215 155.765 37.4331 155.989 39.1226 156.924C38.4629 156.484 37.7995 156.03 37.148 155.571C36.6722 155.236 36.2026 154.898 35.7453 154.56C34.1911 153.411 32.7775 152.263 31.7369 151.23C30.0766 152.949 25.37 155.89 22.0937 152.318C22.9951 150.344 25.5282 146.8 28.4504 148.419C29.6626 149.091 30.2717 149.542 30.5226 149.837C30.1011 149.237 29.896 148.714 29.9773 148.302C30.0629 147.868 30.02 147.444 29.8804 147.036C29.606 146.233 28.9573 145.493 28.178 144.856C27.0795 143.958 25.7213 143.266 24.7862 142.898C22.8577 141.85 19.2032 138.837 20.014 135.157C20.8248 131.478 23.248 135.052 24.3584 137.299L24.7862 142.898C25.7213 143.266 27.0795 143.958 28.178 144.856C28.2184 142.407 28.9217 136.95 31.5682 136.748C32.4684 137.362 34.1533 139.315 33.6926 142.217C33.232 145.119 30.9593 146.639 29.8804 147.036C30.02 147.444 30.0629 147.868 29.9773 148.302C29.896 148.714 30.1011 149.237 30.5226 149.837C30.5626 149.884 30.5937 149.927 30.6164 149.967C30.9082 150.36 31.2877 150.784 31.7369 151.23C32.7775 152.263 34.1911 153.411 35.7453 154.56C34.3929 151.378 36.0935 145.275 38.8917 144.379C40.1897 144.991 42.4815 147.142 41.2635 150.852C40.0457 154.563 37.9026 155.77 37.148 155.571Z" fill="#F4BAD2"/>
<path d="M44.5475 160.328C39.4857 157.359 29.4855 150.797 29.9773 148.302C30.0629 147.868 30.02 147.444 29.8804 147.036M29.8804 147.036C29.2189 145.102 26.3846 143.527 24.7862 142.898M29.8804 147.036C30.9593 146.639 33.232 145.119 33.6926 142.217C34.1533 139.315 32.4684 137.362 31.5682 136.748C28.9217 136.95 28.2184 142.407 28.178 144.856M24.7862 142.898C22.8577 141.85 19.2032 138.837 20.014 135.157C20.8248 131.478 23.248 135.052 24.3584 137.299L24.7862 142.898ZM31.7369 151.23C30.0766 152.949 25.37 155.89 22.0937 152.318C22.9951 150.344 25.5282 146.8 28.4504 148.419C31.3726 150.039 30.7897 150.373 30.1329 150.338M35.7453 154.56C34.3929 151.378 36.0935 145.275 38.8917 144.379C40.1897 144.991 42.4815 147.142 41.2635 150.852C40.0457 154.563 37.9026 155.77 37.148 155.571M39.1286 156.928C37.838 159.017 34.1131 163.565 29.3906 160.718C29.7393 159.327 32.6873 156.893 33.9795 156.533C36.2242 155.764 37.436 155.99 39.1286 156.928Z" stroke="#F4BAD2" stroke-width="0.3"/>
<path d="M96.6218 182.753C97.4107 182.64 98.2045 182.515 98.9867 182.383C98.9889 182.382 98.9911 182.382 98.9934 182.381C98.9931 182.381 98.9934 182.381 98.9934 182.381C99.4871 184.787 99.8958 190.652 94.5071 191.819C93.8062 190.567 94.2822 186.774 94.9758 185.626C96.0807 183.529 97.1158 182.861 98.9867 182.383C98.2045 182.515 97.4107 182.64 96.6218 182.753C96.0458 182.835 95.4722 182.911 94.9076 182.979C92.9885 183.209 91.1722 183.343 89.7062 183.305C89.6776 185.695 88.2691 191.063 83.4351 190.711C82.7369 188.656 82.1496 184.339 85.3869 183.514C86.73 183.171 87.4822 183.081 87.8671 183.124C87.1494 182.977 86.6416 182.737 86.418 182.381C86.1825 182.007 85.8605 181.727 85.4791 181.526C84.7287 181.13 83.7485 181.036 82.7447 181.107C81.3291 181.207 79.8665 181.635 78.9334 182.009C76.8118 182.569 72.0851 182.883 70.1516 179.649C68.2178 176.415 72.4329 177.354 74.7822 178.228L78.9334 182.009C79.8665 181.635 81.3291 181.207 82.7447 181.107C81.0942 179.297 77.8638 174.844 79.6509 172.882C80.7269 172.711 83.2927 172.977 84.9478 175.405C86.6029 177.832 85.9916 180.497 85.4791 181.526C85.8605 181.727 86.1825 182.007 86.418 182.381C86.6416 182.737 87.1494 182.977 87.8671 183.124C87.9287 183.131 87.9809 183.141 88.0247 183.154C88.5067 183.24 89.0738 183.289 89.7062 183.305C91.1722 183.343 92.9885 183.209 94.9076 182.979C91.7407 181.591 88.7927 175.983 90.2142 173.412C91.5785 172.967 94.7216 172.96 96.3802 176.496C98.0389 180.032 97.3069 182.379 96.6218 182.753Z" fill="#F4BAD2"/>
<path d="M105.269 181.139C99.5491 182.45 87.7711 184.534 86.418 182.381C86.1825 182.007 85.8605 181.727 85.4791 181.526M85.4791 181.526C83.6707 180.572 80.5282 181.371 78.9334 182.009M85.4791 181.526C85.9916 180.497 86.6029 177.832 84.9478 175.405C83.2927 172.977 80.7269 172.711 79.6509 172.882C77.8638 174.844 81.0942 179.297 82.7447 181.107M78.9334 182.009C76.8118 182.569 72.0851 182.883 70.1516 179.649C68.2178 176.415 72.4329 177.354 74.7822 178.228L78.9334 182.009ZM89.7062 183.305C89.6776 185.695 88.2691 191.063 83.4351 190.711C82.7369 188.656 82.1496 184.339 85.3869 183.514C88.6242 182.688 88.4296 183.331 87.9276 183.756M94.9076 182.979C91.7407 181.591 88.7927 175.983 90.2142 173.412C91.5785 172.967 94.7216 172.96 96.3802 176.496C98.0389 180.032 97.3069 182.379 96.6218 182.753M98.9934 182.381C99.4871 184.787 99.8962 190.652 94.5071 191.819C93.8062 190.567 94.2822 186.774 94.9758 185.626C96.082 183.527 97.1182 182.86 98.9934 182.381Z" stroke="#F4BAD2" stroke-width="0.3"/>
<path d="M160.924 159.72C161.494 159.163 162.06 158.593 162.614 158.025C162.615 158.023 162.617 158.021 162.618 158.019C162.618 158.019 162.618 158.019 162.618 158.019C164.438 159.669 168.231 164.16 164.572 168.285C163.267 167.689 161.411 164.347 161.293 163.011C160.946 160.666 161.387 159.516 162.614 158.025C162.06 158.593 161.494 159.163 160.924 159.72C160.508 160.127 160.09 160.527 159.674 160.915C158.261 162.234 156.875 163.415 155.669 164.25C157.058 166.196 159.092 171.359 154.983 173.93C153.206 172.684 150.183 169.548 152.307 166.969C153.189 165.9 153.743 165.383 154.079 165.19C153.412 165.495 152.861 165.602 152.471 165.447C152.059 165.283 151.634 165.249 151.208 165.311C150.369 165.435 149.522 165.938 148.754 166.588C147.671 167.505 146.743 168.714 146.211 169.567C144.83 171.272 141.201 174.317 137.731 172.849C134.26 171.382 138.216 169.65 140.628 168.968L146.211 169.567C146.743 168.714 147.671 167.505 148.754 166.588C146.353 166.103 141.116 164.417 141.399 161.778C142.167 161.005 144.394 159.704 147.163 160.685C149.933 161.667 151.014 164.178 151.208 165.311C151.634 165.249 152.059 165.283 152.471 165.447C152.861 165.602 153.412 165.495 154.079 165.19C154.132 165.159 154.18 165.137 154.223 165.121C154.663 164.906 155.149 164.61 155.669 164.25C156.875 163.415 158.261 162.234 159.674 160.915C156.299 161.665 150.608 158.881 150.236 155.967C151.074 154.802 153.607 152.94 157.033 154.814C160.46 156.687 161.256 159.014 160.924 159.72Z" fill="#F4BAD2"/>
<path d="M166.948 153.31C163.107 157.747 154.834 166.384 152.471 165.446C152.059 165.283 151.634 165.248 151.208 165.311M151.208 165.311C149.185 165.609 147.121 168.109 146.211 169.566M151.208 165.311C151.014 164.178 149.933 161.666 147.163 160.685C144.394 159.703 142.167 161.005 141.399 161.778C141.116 164.417 146.353 166.102 148.754 166.588M146.211 169.566C144.83 171.272 141.201 174.317 137.731 172.849C134.26 171.382 138.216 169.65 140.628 168.968L146.211 169.566ZM155.669 164.25C157.058 166.195 159.092 171.359 154.983 173.93C153.206 172.684 150.183 169.548 152.307 166.969C154.432 164.391 154.655 165.025 154.501 165.664M159.674 160.915C156.299 161.665 150.608 158.881 150.236 155.967C151.074 154.802 153.607 152.94 157.033 154.813C160.46 156.687 161.256 159.014 160.924 159.72M162.618 158.019C164.437 159.669 168.232 164.16 164.572 168.285C163.267 167.688 161.411 164.346 161.293 163.01C160.945 160.663 161.388 159.513 162.618 158.019Z" stroke="#F4BAD2" stroke-width="0.3"/>
<path d="M97.0664 15.4668C96.2775 15.5792 95.4837 15.7036 94.7013 15.8351C94.699 15.8357 94.6968 15.8363 94.6946 15.8368C94.6948 15.837 94.6946 15.8366 94.6946 15.8368C94.2024 13.4304 93.7975 7.56557 99.187 6.40186C99.887 7.65423 99.4086 11.4471 98.7141 12.5945C97.6079 14.6905 96.5726 15.3579 94.7013 15.8351C95.4837 15.7036 96.2775 15.5792 97.0664 15.4668C97.6426 15.3847 98.2161 15.3091 98.7808 15.2417C100.7 15.0129 102.516 14.8803 103.982 14.9191C104.013 12.5291 105.424 7.1621 110.258 7.51734C110.955 9.57274 111.539 13.8895 108.302 14.7132C106.959 15.0549 106.206 15.1442 105.821 15.1013C106.539 15.2487 107.047 15.489 107.27 15.8447C107.505 16.2198 107.827 16.4991 108.208 16.7005C108.959 17.0968 109.939 17.1916 110.943 17.1213C112.358 17.0222 113.821 16.595 114.754 16.2223C116.876 15.6628 121.603 15.3525 123.535 18.5875C125.466 21.8225 121.252 20.8807 118.903 20.0054L114.754 16.2223C113.821 16.595 112.358 17.0222 110.943 17.1213C112.592 18.9321 115.819 23.3872 114.031 25.3485C112.955 25.5185 110.389 25.2514 108.736 22.8225C107.082 20.3937 107.695 17.7292 108.208 16.7005C107.827 16.4991 107.505 16.2198 107.27 15.8447C107.047 15.489 106.539 15.2487 105.821 15.1013C105.76 15.0944 105.707 15.0842 105.664 15.071C105.182 14.9845 104.615 14.9358 103.982 14.9191C102.516 14.8803 100.7 15.0129 98.7808 15.2417C101.947 16.6321 104.891 22.2412 103.468 24.8118C102.103 25.2561 98.9604 25.2605 97.3039 21.7237C95.6475 18.187 96.381 15.8396 97.0664 15.4668Z" fill="#F4BAD2"/>
<path d="M88.418 17.0751C94.1386 15.7676 105.918 13.691 107.27 15.8447C107.505 16.2198 107.827 16.4991 108.208 16.7005M108.208 16.7005C110.016 17.6555 113.159 16.8594 114.754 16.2223M108.208 16.7005C107.695 17.7292 107.082 20.3937 108.735 22.8225C110.389 25.2514 112.954 25.5185 114.03 25.3485C115.819 23.3872 112.591 18.9321 110.942 17.1213M114.754 16.2223C116.876 15.6628 121.603 15.3525 123.534 18.5875C125.466 21.8225 121.251 20.8807 118.903 20.0054L114.754 16.2223ZM103.982 14.9191C104.012 12.5291 105.424 7.1621 110.258 7.51734C110.955 9.57274 111.539 13.8895 108.301 14.7132C105.064 15.5369 105.259 14.8936 105.761 14.469M98.7804 15.2417C101.946 16.6321 104.891 22.2412 103.468 24.8118C102.103 25.2561 98.96 25.2605 97.3035 21.7237C95.6471 18.187 96.3806 15.8396 97.066 15.4668M94.6942 15.8368C94.202 13.4307 93.7966 7.56566 99.1866 6.40186C99.8866 7.65423 99.4082 11.4471 98.7137 12.5945C97.6062 14.693 96.5695 15.3595 94.6942 15.8368Z" stroke="#F4BAD2" stroke-width="0.3"/>
<path d="M161.213 38.4441C160.631 37.8999 160.036 37.3597 159.443 36.8326C159.441 36.8312 159.44 36.8297 159.438 36.8284C159.438 36.8286 159.438 36.8284 159.438 36.8284C161.004 34.9361 165.319 30.9437 169.604 34.4128C169.068 35.7435 165.813 37.7486 164.484 37.9272C162.157 38.3795 160.988 37.9912 159.443 36.8326C160.036 37.3597 160.631 37.8999 161.213 38.4441C161.638 38.8415 162.057 39.241 162.463 39.6388C163.845 40.9904 165.087 42.3224 165.976 43.4886C167.857 42.0137 172.923 39.7488 175.677 43.7372C174.512 45.5688 171.516 48.7306 168.844 46.7246C167.736 45.8924 167.194 45.3621 166.987 45.0355C167.322 45.6872 167.453 46.2332 167.316 46.6301C167.171 47.0488 167.155 47.4746 167.238 47.8979C167.399 48.7306 167.94 49.5537 168.624 50.2917C169.588 51.3324 170.838 52.2044 171.714 52.6977C173.48 53.9999 176.686 57.4879 175.376 61.0208C174.067 64.5539 172.159 60.6801 171.368 58.3015L171.714 52.6977C170.838 52.2044 169.588 51.3324 168.624 50.2917C168.247 52.7117 166.8 58.0195 164.151 57.8559C163.344 57.1241 161.943 54.9579 162.799 52.147C163.654 49.3359 166.114 48.143 167.238 47.8979C167.155 47.4746 167.171 47.0488 167.316 46.6301C167.453 46.2332 167.322 45.6872 166.987 45.0355C166.953 44.9832 166.929 44.9361 166.912 44.8939C166.677 44.4641 166.359 43.9917 165.976 43.4886C165.087 42.3224 163.845 40.9904 162.463 39.6388C163.365 42.9768 160.841 48.7872 157.946 49.2904C156.745 48.5059 154.771 46.0599 156.487 42.5521C158.204 39.0444 160.493 38.1439 161.213 38.4441Z" fill="#F4BAD2"/>
<path d="M154.538 32.7153C159.143 36.3522 168.146 44.2269 167.316 46.6302C167.171 47.0489 167.155 47.4747 167.238 47.898M167.238 47.898C167.627 49.9051 170.218 51.8544 171.714 52.6978M167.238 47.898C166.114 48.1431 163.654 49.336 162.799 52.1471C161.943 54.958 163.344 57.1242 164.151 57.856C166.8 58.0196 168.247 52.7118 168.624 50.2918M171.714 52.6978C173.48 54 176.686 57.488 175.377 61.0209C174.067 64.554 172.159 60.6802 171.368 58.3016L171.714 52.6978ZM165.976 43.4887C167.857 42.0138 172.923 39.7489 175.677 43.7373C174.513 45.5689 171.516 48.7307 168.844 46.7247C166.173 44.7187 166.796 44.4673 167.442 44.5924M162.463 39.6389C163.365 42.9769 160.841 48.7873 157.947 49.2904C156.745 48.506 154.771 46.06 156.487 42.5522C158.204 39.0444 160.493 38.144 161.213 38.4442M159.438 36.8284C161.004 34.9364 165.319 30.9436 169.605 34.4129C169.068 35.7436 165.813 37.7487 164.484 37.9273C162.155 38.38 160.985 37.9902 159.438 36.8284Z" stroke="#F4BAD2" stroke-width="0.3"/>
<path d="M185.238 99.8804C185.204 99.0844 185.158 98.2822 185.104 97.4907C185.104 97.4884 185.103 97.486 185.103 97.4838C185.103 97.4838 185.103 97.4838 185.103 97.4838C187.546 97.2307 193.422 97.4051 194.05 102.883C192.735 103.456 189.008 102.607 187.934 101.803C185.957 100.496 185.395 99.3998 185.104 97.4907C185.158 98.2822 185.204 99.0844 185.238 99.8804C185.263 100.462 185.282 101.04 185.293 101.609C185.332 103.541 185.285 105.362 185.102 106.817C187.478 107.082 192.68 109.015 191.85 113.791C189.736 114.282 185.383 114.439 184.882 111.135C184.674 109.765 184.659 109.008 184.74 108.629C184.522 109.329 184.233 109.81 183.858 109.997C183.461 110.195 183.151 110.488 182.914 110.847C182.445 111.554 182.254 112.52 182.226 113.526C182.185 114.945 182.466 116.443 182.745 117.408C183.093 119.575 182.936 124.309 179.527 125.913C176.118 127.517 177.47 123.416 178.572 121.164L182.745 117.408C182.466 116.443 182.185 114.945 182.226 113.526C180.261 114.989 175.51 117.763 173.734 115.79C173.671 114.702 174.189 112.176 176.769 110.769C179.349 109.363 181.94 110.235 182.914 110.847C183.151 110.488 183.461 110.195 183.858 109.997C184.233 109.81 184.522 109.329 184.74 108.629C184.753 108.568 184.768 108.517 184.786 108.475C184.919 108.004 185.023 107.444 185.102 106.817C185.285 105.362 185.332 103.541 185.293 101.609C183.598 104.623 177.726 107 175.308 105.331C175 103.93 175.305 100.801 178.988 99.5011C182.67 98.2009 184.934 99.1618 185.238 99.8804Z" fill="#F4BAD2"/>
<path d="M184.488 91.1162C185.227 96.9375 186.134 108.864 183.858 109.997C183.461 110.195 183.151 110.488 182.914 110.847M182.914 110.847C181.785 112.552 182.268 115.758 182.745 117.408M182.914 110.847C181.94 110.235 179.349 109.363 176.769 110.769C174.189 112.176 173.671 114.702 173.734 115.79C175.51 117.763 180.261 114.989 182.226 113.526M182.745 117.408C183.093 119.575 182.936 124.309 179.527 125.913C176.118 127.517 177.47 123.416 178.572 121.164L182.745 117.408ZM185.102 106.817C187.478 107.082 192.68 109.015 191.85 113.791C189.736 114.282 185.383 114.439 184.882 111.135C184.381 107.832 185.002 108.09 185.375 108.631M185.293 101.609C183.598 104.623 177.726 107 175.308 105.331C175 103.93 175.305 100.801 178.988 99.5011C182.67 98.2009 184.934 99.1618 185.238 99.8804M185.103 97.4838C187.546 97.2307 193.422 97.4046 194.05 102.883C192.735 103.456 189.008 102.607 187.934 101.803C185.955 100.494 185.393 99.3971 185.103 97.4838Z" stroke="#F4BAD2" stroke-width="0.3"/>
<path d="M58.6943 29.0815C63.7714 25.2148 74.2968 17.947 75.7817 19.8094C76.0646 19.7197 76.3868 19.6223 76.7352 19.5225M76.7352 19.5225C79.1383 18.8338 82.7941 18.0287 83.5077 18.8282M76.7352 19.5225C77.0041 17.1337 77.8275 12.7469 78.9686 14.309M68.135 22.569C69.9126 23.7339 74.3637 26.3495 75.9523 25.9183M66.053 18.6881C64.7797 19.5292 62.4052 22.9612 62.8721 26.0359" stroke="#E7D5FF" stroke-width="0.3"/>
<path d="M65.9777 18.7239C65.2391 18.3075 64.9704 17.2748 65.4695 16.3892C65.9686 15.5036 66.9913 15.1986 67.73 15.6149C68.4686 16.0313 68.7373 17.064 68.2382 17.9496C67.7391 18.8352 66.7164 19.1402 65.9777 18.7239Z" fill="#E7D5FF" stroke="#E7D5FF" stroke-width="0.3"/>
<path d="M79.2956 15.2777C78.7849 14.7605 78.8167 13.7759 79.5287 13.0729C80.2407 12.3698 81.2258 12.3505 81.7363 12.8677C82.2469 13.3848 82.2151 14.3695 81.5031 15.0725C80.7911 15.7755 79.806 15.7949 79.2956 15.2777Z" fill="#E7D5FF" stroke="#E7D5FF" stroke-width="0.3"/>
<path d="M83.809 19.0307C83.4134 18.3305 83.7003 17.3587 84.5417 16.8833C85.383 16.408 86.3634 16.6638 86.759 17.3641C87.1545 18.0643 86.8679 19.0361 86.0266 19.5115C85.1852 19.9868 84.2048 19.731 83.809 19.0307Z" fill="#E7D5FF" stroke="#E7D5FF" stroke-width="0.3"/>
<path d="M75.742 25.3584C75.4893 24.6293 76.0047 23.6693 77.0844 23.2951C78.1644 22.9209 79.1633 23.3564 79.416 24.0856C79.6684 24.8147 79.1533 25.7747 78.0733 26.1489C76.9933 26.5231 75.9947 26.0878 75.742 25.3584Z" fill="#E7D5FF" stroke="#E7D5FF" stroke-width="0.3"/>
<path d="M124.88 20.8192C131.17 21.8987 143.662 24.6467 143.311 27.0027C143.57 27.1485 143.861 27.3178 144.171 27.5047M144.171 27.5047C146.313 28.7938 149.394 30.9203 149.295 31.9872M144.171 27.5047C146.102 26.0736 149.874 23.6858 149.508 25.5856M136.08 23.2883C136.439 25.3832 137.559 30.4229 138.957 31.2914M137.501 19.1197C136.017 18.7613 131.888 19.363 129.956 21.8003" stroke="#E7D5FF" stroke-width="0.3"/>
<path d="M137.425 19.0896C137.226 18.2653 137.799 17.3649 138.787 17.1265C139.775 16.8881 140.695 17.4284 140.894 18.2527C141.093 19.077 140.52 19.9775 139.532 20.2159C138.544 20.4543 137.624 19.9139 137.425 19.0896Z" fill="#E7D5FF" stroke="#E7D5FF" stroke-width="0.3"/>
<path d="M149.022 26.4848C149.053 25.7588 149.795 25.111 150.795 25.1528C151.795 25.1946 152.48 25.9021 152.45 26.6284C152.419 27.3544 151.677 28.0021 150.677 27.9604C149.678 27.9186 148.992 27.211 149.022 26.4848Z" fill="#E7D5FF" stroke="#E7D5FF" stroke-width="0.3"/>
<path d="M149.356 32.348C149.599 31.5811 150.506 31.1286 151.427 31.4204C152.348 31.712 152.829 32.6037 152.587 33.3706C152.344 34.1373 151.437 34.5897 150.516 34.2982C149.595 34.0066 149.114 33.1148 149.356 32.348Z" fill="#E7D5FF" stroke="#E7D5FF" stroke-width="0.3"/>
<path d="M139.225 30.7551C139.587 30.0731 140.64 29.7958 141.65 30.3309C142.66 30.8662 143.022 31.8938 142.661 32.5758C142.3 33.2575 141.246 33.5349 140.236 32.9998C139.226 32.4644 138.864 31.4369 139.225 30.7551Z" fill="#E7D5FF" stroke="#E7D5FF" stroke-width="0.3"/>
<path d="M170.275 62.5186C174.565 67.2434 182.714 77.103 180.986 78.743C181.1 79.0172 181.225 79.3297 181.354 79.6683M181.354 79.6683C182.248 82.0032 183.365 85.5759 182.63 86.3557M181.354 79.6683C183.757 79.7303 188.199 80.1723 186.741 81.4439M177.578 71.3628C176.57 73.2341 174.348 77.8941 174.915 79.4397M181.264 68.9539C180.317 67.7579 176.693 65.6881 173.67 66.4183" stroke="#E7D5FF" stroke-width="0.3"/>
<path d="M181.222 68.8825C181.573 68.1107 182.579 67.754 183.504 68.1749C184.43 68.596 184.822 69.5885 184.471 70.3603C184.119 71.132 183.114 71.4887 182.188 71.0678C181.263 70.6469 180.871 69.6545 181.222 68.8825Z" fill="#E7D5FF" stroke="#E7D5FF" stroke-width="0.3"/>
<path d="M185.806 81.8525C186.277 81.2991 187.26 81.246 188.022 81.8949C188.784 82.5436 188.888 83.5231 188.417 84.0765C187.946 84.6298 186.962 84.6829 186.2 84.0342C185.438 83.3854 185.334 82.4058 185.806 81.8525Z" fill="#E7D5FF" stroke="#E7D5FF" stroke-width="0.3"/>
<path d="M182.455 86.6762C183.119 86.2215 184.112 86.4235 184.658 87.2209C185.204 88.018 185.034 89.0169 184.37 89.4713C183.707 89.926 182.714 89.724 182.168 88.9267C181.622 88.1295 181.792 87.1307 182.455 86.6762Z" fill="#E7D5FF" stroke="#E7D5FF" stroke-width="0.3"/>
<path d="M175.455 79.1814C176.16 78.8669 177.161 79.2974 177.627 80.3412C178.093 81.3847 177.745 82.4174 177.04 82.7321C176.336 83.0465 175.335 82.6161 174.869 81.5723C174.403 80.5285 174.75 79.4961 175.455 79.1814Z" fill="#E7D5FF" stroke="#E7D5FF" stroke-width="0.3"/>
<path d="M180.218 126.245C178.101 132.265 173.299 144.12 171.035 143.38C170.847 143.61 170.632 143.868 170.396 144.143M170.396 144.143C168.766 146.039 166.153 148.72 165.118 148.444M170.396 144.143C171.483 146.287 173.205 150.405 171.394 149.726M175.908 136.873C173.783 136.876 168.626 137.136 167.536 138.369M179.78 138.972C180.382 137.569 180.48 133.397 178.401 131.085" stroke="#E7D5FF" stroke-width="0.3"/>
<path d="M179.822 138.901C180.668 138.843 181.459 139.559 181.529 140.573C181.598 141.587 180.911 142.404 180.065 142.461C179.219 142.519 178.428 141.804 178.358 140.79C178.289 139.776 178.976 138.959 179.822 138.901Z" fill="#E7D5FF" stroke="#E7D5FF" stroke-width="0.3"/>
<path d="M170.588 149.096C171.299 149.248 171.813 150.088 171.605 151.067C171.396 152.045 170.584 152.603 169.873 152.451C169.162 152.3 168.648 151.459 168.857 150.481C169.065 149.502 169.877 148.945 170.588 149.096Z" fill="#E7D5FF" stroke="#E7D5FF" stroke-width="0.3"/>
<path d="M164.751 148.442C165.466 148.81 165.761 149.779 165.319 150.639C164.877 151.498 163.917 151.823 163.202 151.455C162.487 151.088 162.192 150.118 162.634 149.259C163.076 148.399 164.036 148.074 164.751 148.442Z" fill="#E7D5FF" stroke="#E7D5FF" stroke-width="0.3"/>
<path d="M168.019 138.721C168.631 139.191 168.728 140.276 168.031 141.182C167.334 142.088 166.26 142.273 165.649 141.803C165.037 141.332 164.94 140.247 165.637 139.341C166.334 138.435 167.408 138.25 168.019 138.721Z" fill="#E7D5FF" stroke="#E7D5FF" stroke-width="0.3"/>
<path d="M69.5285 173.973C63.1772 173.35 50.5194 171.511 50.6992 169.136C50.4308 169.009 50.1285 168.861 49.8052 168.697M49.8052 168.697C47.5759 167.566 44.3496 165.667 44.3712 164.596M49.8052 168.697C47.9823 170.264 44.3932 172.917 44.6205 170.996M58.1794 172.319C57.6701 170.255 56.1894 165.31 54.7321 164.544M57.0632 176.579C58.5685 176.829 62.6443 175.931 64.395 173.361" stroke="#E7D5FF" stroke-width="0.3"/>
<path d="M57.1423 176.603C57.4001 177.411 56.8941 178.35 55.9256 178.659C54.9572 178.968 54.0003 178.496 53.7425 177.688C53.4848 176.88 53.991 175.941 54.9594 175.632C55.9279 175.322 56.8845 175.795 57.1423 176.603Z" fill="#E7D5FF" stroke="#E7D5FF" stroke-width="0.3"/>
<path d="M45.0403 170.064C45.0625 170.791 44.369 171.49 43.3687 171.521C42.3685 171.551 41.6338 170.895 41.6118 170.168C41.5896 169.442 42.2832 168.742 43.2834 168.712C44.2834 168.682 45.0183 169.338 45.0403 170.064Z" fill="#E7D5FF" stroke="#E7D5FF" stroke-width="0.3"/>
<path d="M44.2854 164.241C44.0985 165.023 43.2269 165.54 42.2869 165.315C41.3472 165.091 40.8029 164.236 40.9896 163.454C41.1765 162.672 42.0481 162.155 42.9881 162.379C43.9278 162.604 44.4721 163.459 44.2854 164.241Z" fill="#E7D5FF" stroke="#E7D5FF" stroke-width="0.3"/>
<path d="M54.5043 165.097C54.193 165.803 53.1621 166.156 52.1163 165.695C51.0703 165.234 50.635 164.235 50.9463 163.529C51.2574 162.823 52.2883 162.471 53.3343 162.931C54.3801 163.392 54.8154 164.391 54.5043 165.097Z" fill="#E7D5FF" stroke="#E7D5FF" stroke-width="0.3"/>
<path d="M136.177 173.336C130.463 176.178 118.757 181.334 117.649 179.226C117.355 179.261 117.02 179.296 116.659 179.328M116.659 179.328C114.169 179.552 110.427 179.654 109.877 178.735M116.659 179.328C115.945 181.624 114.311 185.777 113.484 184.028M125.679 177.955C124.153 176.476 120.273 173.07 118.632 173.194M126.993 182.158C128.402 181.572 131.38 178.648 131.5 175.541" stroke="#E7D5FF" stroke-width="0.3"/>
<path d="M127.072 182.137C127.719 182.685 127.789 183.75 127.132 184.525C126.475 185.301 125.413 185.408 124.766 184.86C124.119 184.312 124.05 183.248 124.707 182.472C125.363 181.696 126.425 181.589 127.072 182.137Z" fill="#E7D5FF" stroke="#E7D5FF" stroke-width="0.3"/>
<path d="M113.346 183.015C113.75 183.619 113.534 184.58 112.702 185.137C111.871 185.693 110.899 185.527 110.495 184.923C110.091 184.319 110.308 183.358 111.139 182.801C111.971 182.245 112.942 182.411 113.346 183.015Z" fill="#E7D5FF" stroke="#E7D5FF" stroke-width="0.3"/>
<path d="M109.616 178.478C109.873 179.241 109.408 180.141 108.492 180.449C107.577 180.758 106.662 180.322 106.405 179.56C106.148 178.798 106.613 177.897 107.529 177.589C108.445 177.28 109.359 177.716 109.616 178.478Z" fill="#E7D5FF" stroke="#E7D5FF" stroke-width="0.3"/>
<path d="M118.733 173.783C118.843 174.547 118.157 175.393 117.026 175.557C115.895 175.721 114.996 175.105 114.885 174.342C114.774 173.578 115.461 172.732 116.592 172.568C117.723 172.404 118.622 173.019 118.733 173.783Z" fill="#E7D5FF" stroke="#E7D5FF" stroke-width="0.3"/>
<path d="M22.3321 78.3185C22.669 71.9454 23.9381 59.2178 26.319 59.2907C26.4336 59.0169 26.5678 58.7082 26.717 58.378M26.717 58.378C27.747 56.1 29.4985 52.7918 30.5698 52.7651M26.717 58.378C25.0698 56.6274 22.2578 53.1609 24.1872 53.3018M23.4752 66.9065C25.5136 66.3049 30.3878 64.6034 31.0872 63.1134M19.1691 65.9827C18.9866 67.4978 20.0668 71.5289 22.7132 73.1625" stroke="#E7D5FF" stroke-width="0.3"/>
<path d="M19.2821 67.969C18.4867 68.2628 17.5255 67.7992 17.1732 66.8457C16.8209 65.8921 17.25 64.9152 18.0454 64.6212C18.8408 64.3275 19.802 64.7908 20.1543 65.7446C20.5066 66.6981 20.0775 67.675 19.2821 67.969Z" fill="#E7D5FF" stroke="#E7D5FF" stroke-width="0.3"/>
<path d="M25.2688 55.5852C24.544 55.6399 23.814 54.9786 23.7386 53.9808C23.6633 52.983 24.286 52.2194 25.0106 52.1648C25.7353 52.1101 26.4655 52.7714 26.5406 53.7692C26.616 54.767 25.9935 55.5306 25.2688 55.5852Z" fill="#E7D5FF" stroke="#E7D5FF" stroke-width="0.3"/>
<path d="M31.0525 54.5702C30.2627 54.4187 29.7073 53.5713 29.8891 52.6222C30.0711 51.6731 30.9007 51.0911 31.6905 51.2427C32.4805 51.394 33.0358 52.2415 32.8538 53.1907C32.6718 54.1395 31.8425 54.7215 31.0525 54.5702Z" fill="#E7D5FF" stroke="#E7D5FF" stroke-width="0.3"/>
<path d="M30.6558 64.8182C29.9364 64.5391 29.5378 63.5249 29.9513 62.4594C30.3647 61.3938 31.3431 60.9142 32.0624 61.1934C32.7818 61.4725 33.1804 62.4865 32.7671 63.552C32.3536 64.6176 31.3753 65.0974 30.6558 64.8182Z" fill="#E7D5FF" stroke="#E7D5FF" stroke-width="0.3"/>
<path d="M28.0124 134.374C23.6513 129.715 15.3543 119.98 17.0567 118.314C16.9388 118.042 16.8093 117.731 16.6747 117.395M16.6747 117.395C15.746 115.074 14.5747 111.518 15.2978 110.728M16.6747 117.395C14.271 117.369 9.82323 116.995 11.2617 115.701M20.577 125.642C21.5558 123.756 23.7068 119.062 23.1171 117.526M16.927 128.106C17.8928 129.288 21.5478 131.303 24.5593 130.527" stroke="#E7D5FF" stroke-width="0.3"/>
<path d="M16.969 128.177C16.6297 128.954 15.6295 129.326 14.6979 128.919C13.7663 128.512 13.3592 127.526 13.6985 126.749C14.0379 125.972 15.0381 125.6 15.9697 126.007C16.9013 126.414 17.3084 127.4 16.969 128.177Z" fill="#E7D5FF" stroke="#E7D5FF" stroke-width="0.3"/>
<path d="M12.1921 115.277C11.7293 115.838 10.7466 115.906 9.975 115.269C9.20345 114.632 9.08438 113.654 9.54716 113.093C10.0099 112.533 10.9927 112.465 11.7643 113.102C12.5358 113.739 12.6549 114.717 12.1921 115.277Z" fill="#E7D5FF" stroke="#E7D5FF" stroke-width="0.3"/>
<path d="M15.4671 110.404C14.8106 110.869 13.8147 110.682 13.2565 109.893C12.6984 109.104 12.8535 108.103 13.5101 107.638C14.1667 107.174 15.1625 107.361 15.7207 108.149C16.2788 108.938 16.1237 109.94 15.4671 110.404Z" fill="#E7D5FF" stroke="#E7D5FF" stroke-width="0.3"/>
<path d="M22.581 117.791C21.8812 118.116 20.8739 117.701 20.3922 116.665C19.9104 115.628 20.2425 114.59 20.9423 114.265C21.6421 113.94 22.6494 114.355 23.1312 115.392C23.6128 116.428 23.2808 117.466 22.581 117.791Z" fill="#E7D5FF" stroke="#E7D5FF" stroke-width="0.3"/>
<defs>
<filter id="filter0_d_266_989" x="40.5176" y="99.3999" width="120.23" height="15.2222" filterUnits="userSpaceOnUse" color-interpolation-filters="sRGB">
<feFlood flood-opacity="0" result="BackgroundImageFix"/>
<feColorMatrix in="SourceAlpha" type="matrix" values="0 0 0 0 0 0 0 0 0 0 0 0 0 0 0 0 0 0 127 0" result="hardAlpha"/>
<feOffset dy="0.5"/>
<feGaussianBlur stdDeviation="0.25"/>
<feComposite in2="hardAlpha" operator="out"/>
<feColorMatrix type="matrix" values="0 0 0 0 0 0 0 0 0 0 0 0 0 0 0 0 0 0 0.25 0"/>
<feBlend mode="normal" in2="BackgroundImageFix" result="effect1_dropShadow_266_989"/>
<feBlend mode="normal" in="SourceGraphic" in2="effect1_dropShadow_266_989" result="shape"/>
</filter>
<filter id="filter1_d_266_989" x="59.9512" y="84.9731" width="79.0391" height="9.5332" filterUnits="userSpaceOnUse" color-interpolation-filters="sRGB">
<feFlood flood-opacity="0" result="BackgroundImageFix"/>
<feColorMatrix in="SourceAlpha" type="matrix" values="0 0 0 0 0 0 0 0 0 0 0 0 0 0 0 0 0 0 127 0" result="hardAlpha"/>
<feOffset dy="0.5"/>
<feGaussianBlur stdDeviation="0.25"/>
<feComposite in2="hardAlpha" operator="out"/>
<feColorMatrix type="matrix" values="0 0 0 0 0 0 0 0 0 0 0 0 0 0 0 0 0 0 0.25 0"/>
<feBlend mode="normal" in2="BackgroundImageFix" result="effect1_dropShadow_266_989"/>
<feBlend mode="normal" in="SourceGraphic" in2="effect1_dropShadow_266_989" result="shape"/>
</filter>
</defs>
</svg>
