<svg width="100" height="100" viewBox="0 0 100 100" fill="none" xmlns="http://www.w3.org/2000/svg">
<circle cx="50" cy="50" r="50" fill="#F7F1FF"/>
<path d="M66.2647 18.6061C66.2647 17.6127 61.7282 16.8676 59.46 16.6193L54.5925 14.9802H44.609C40.3971 14.861 40.1719 19.3676 40.5858 21.6359C40.8243 25.6491 44.6587 26.0895 46.5461 25.808V29.6822C39.3541 28.6888 38.853 34.1359 38.9689 36.6359C35.7503 36.6359 31.96 42.6623 30.9998 45.6756L36.5627 89.3842C37.2382 94.51 41.1819 95.3941 43.0693 95.1954H58.3176C62.2117 94.52 63.6488 91.0398 63.8806 89.3842L68.5991 45.6756C68.7183 39.914 63.9689 36.6359 61.9435 36.6359C61.9435 33.9956 60.9887 28.3112 54.5925 29.6822V25.808C58.2481 25.808 59.3607 23.0266 59.46 21.6359H66.2647V18.6061Z" fill="#F4BAD2"/>
<circle cx="70.6556" cy="18.3224" r="1.65563" fill="#F4BAD2"/>
<circle cx="75.6225" cy="13.3554" r="3.31126" fill="#F4BAD2"/>
<g filter="url(#filter0_d_82_815)">
<mask id="path-5-outside-1_82_815" maskUnits="userSpaceOnUse" x="15" y="55.75" width="71" height="11" fill="black">
<rect fill="white" x="15" y="55.75" width="71" height="11"/>
<path d="M20.616 58.19C20.368 58.07 20.064 57.958 19.704 57.854C19.344 57.75 18.984 57.698 18.624 57.698C18.064 57.698 17.616 57.838 17.28 58.118C16.944 58.398 16.776 58.75 16.776 59.174C16.776 59.494 16.872 59.762 17.064 59.978C17.256 60.186 17.508 60.366 17.82 60.518C18.132 60.662 18.464 60.802 18.816 60.938C19.096 61.042 19.372 61.158 19.644 61.286C19.924 61.414 20.176 61.57 20.4 61.754C20.624 61.938 20.8 62.166 20.928 62.438C21.064 62.71 21.132 63.046 21.132 63.446C21.132 63.918 21.02 64.338 20.796 64.706C20.572 65.066 20.26 65.346 19.86 65.546C19.46 65.746 18.996 65.846 18.468 65.846C18.044 65.846 17.656 65.794 17.304 65.69C16.96 65.586 16.656 65.466 16.392 65.33C16.136 65.186 15.932 65.066 15.78 64.97L16.056 64.49C16.232 64.618 16.444 64.746 16.692 64.874C16.948 65.002 17.224 65.11 17.52 65.198C17.816 65.286 18.112 65.33 18.408 65.33C18.752 65.33 19.084 65.262 19.404 65.126C19.732 64.99 20 64.786 20.208 64.514C20.424 64.234 20.532 63.882 20.532 63.458C20.532 63.05 20.432 62.722 20.232 62.474C20.032 62.218 19.776 62.01 19.464 61.85C19.152 61.69 18.82 61.546 18.468 61.418C18.196 61.314 17.924 61.206 17.652 61.094C17.38 60.974 17.132 60.834 16.908 60.674C16.684 60.506 16.504 60.306 16.368 60.074C16.24 59.842 16.176 59.562 16.176 59.234C16.176 58.826 16.28 58.47 16.488 58.166C16.696 57.862 16.976 57.626 17.328 57.458C17.688 57.282 18.096 57.19 18.552 57.182C18.952 57.182 19.356 57.234 19.764 57.338C20.18 57.442 20.54 57.574 20.844 57.734L20.616 58.19ZM23.3287 57.23H28.5847V57.794H23.9167V61.178H28.1167V61.742H23.9167V65.186H28.7527V65.75H23.3287V57.23ZM32.9367 57.23C33.2567 57.23 33.5727 57.278 33.8847 57.374C34.2047 57.462 34.4927 57.606 34.7487 57.806C35.0127 57.998 35.2247 58.246 35.3847 58.55C35.5447 58.854 35.6247 59.218 35.6247 59.642C35.6247 59.962 35.5767 60.274 35.4807 60.578C35.3847 60.874 35.2287 61.142 35.0127 61.382C34.7967 61.622 34.5167 61.814 34.1727 61.958C33.8287 62.102 33.4047 62.174 32.9007 62.174H31.5807V65.75H30.9927V57.23H32.9367ZM32.8647 61.61C33.2887 61.61 33.6407 61.55 33.9207 61.43C34.2007 61.31 34.4207 61.154 34.5807 60.962C34.7407 60.77 34.8527 60.562 34.9167 60.338C34.9887 60.106 35.0247 59.882 35.0247 59.666C35.0247 59.41 34.9767 59.17 34.8807 58.946C34.7927 58.722 34.6607 58.526 34.4847 58.358C34.3087 58.182 34.0967 58.046 33.8487 57.95C33.6007 57.846 33.3247 57.794 33.0207 57.794H31.5807V61.61H32.8647ZM34.0887 61.874L36.4527 65.75H35.7687L33.3927 61.886L34.0887 61.874ZM38.5865 57.23H43.8425V57.794H39.1745V61.178H43.3745V61.742H39.1745V65.186H44.0105V65.75H38.5865V57.23ZM53.3785 65.954L46.6585 58.382L46.8145 58.262L46.8265 65.75H46.2505V57.05H46.2865L53.0065 64.682L52.8505 64.73L52.8385 57.23H53.4025V65.954H53.3785ZM56.1177 57.23H61.3737V57.794H56.7057V61.178H60.9057V61.742H56.7057V65.186H61.5417V65.75H56.1177V57.23ZM63.7818 57.23H64.3698V65.186H69.0378V65.75H63.7818V57.23ZM71.0123 57.23H71.6003V65.186H76.2682V65.75H71.0123V57.23ZM77.4987 65.75L81.0987 56.858H81.1467L84.7467 65.75H84.0867L80.9547 57.794L81.3627 57.566L78.0867 65.75H77.4987ZM79.2387 62.378H83.0187L83.1867 62.93H79.0947L79.2387 62.378Z"/>
</mask>
<path d="M20.616 58.19C20.368 58.07 20.064 57.958 19.704 57.854C19.344 57.75 18.984 57.698 18.624 57.698C18.064 57.698 17.616 57.838 17.28 58.118C16.944 58.398 16.776 58.75 16.776 59.174C16.776 59.494 16.872 59.762 17.064 59.978C17.256 60.186 17.508 60.366 17.82 60.518C18.132 60.662 18.464 60.802 18.816 60.938C19.096 61.042 19.372 61.158 19.644 61.286C19.924 61.414 20.176 61.57 20.4 61.754C20.624 61.938 20.8 62.166 20.928 62.438C21.064 62.71 21.132 63.046 21.132 63.446C21.132 63.918 21.02 64.338 20.796 64.706C20.572 65.066 20.26 65.346 19.86 65.546C19.46 65.746 18.996 65.846 18.468 65.846C18.044 65.846 17.656 65.794 17.304 65.69C16.96 65.586 16.656 65.466 16.392 65.33C16.136 65.186 15.932 65.066 15.78 64.97L16.056 64.49C16.232 64.618 16.444 64.746 16.692 64.874C16.948 65.002 17.224 65.11 17.52 65.198C17.816 65.286 18.112 65.33 18.408 65.33C18.752 65.33 19.084 65.262 19.404 65.126C19.732 64.99 20 64.786 20.208 64.514C20.424 64.234 20.532 63.882 20.532 63.458C20.532 63.05 20.432 62.722 20.232 62.474C20.032 62.218 19.776 62.01 19.464 61.85C19.152 61.69 18.82 61.546 18.468 61.418C18.196 61.314 17.924 61.206 17.652 61.094C17.38 60.974 17.132 60.834 16.908 60.674C16.684 60.506 16.504 60.306 16.368 60.074C16.24 59.842 16.176 59.562 16.176 59.234C16.176 58.826 16.28 58.47 16.488 58.166C16.696 57.862 16.976 57.626 17.328 57.458C17.688 57.282 18.096 57.19 18.552 57.182C18.952 57.182 19.356 57.234 19.764 57.338C20.18 57.442 20.54 57.574 20.844 57.734L20.616 58.19ZM23.3287 57.23H28.5847V57.794H23.9167V61.178H28.1167V61.742H23.9167V65.186H28.7527V65.75H23.3287V57.23ZM32.9367 57.23C33.2567 57.23 33.5727 57.278 33.8847 57.374C34.2047 57.462 34.4927 57.606 34.7487 57.806C35.0127 57.998 35.2247 58.246 35.3847 58.55C35.5447 58.854 35.6247 59.218 35.6247 59.642C35.6247 59.962 35.5767 60.274 35.4807 60.578C35.3847 60.874 35.2287 61.142 35.0127 61.382C34.7967 61.622 34.5167 61.814 34.1727 61.958C33.8287 62.102 33.4047 62.174 32.9007 62.174H31.5807V65.75H30.9927V57.23H32.9367ZM32.8647 61.61C33.2887 61.61 33.6407 61.55 33.9207 61.43C34.2007 61.31 34.4207 61.154 34.5807 60.962C34.7407 60.77 34.8527 60.562 34.9167 60.338C34.9887 60.106 35.0247 59.882 35.0247 59.666C35.0247 59.41 34.9767 59.17 34.8807 58.946C34.7927 58.722 34.6607 58.526 34.4847 58.358C34.3087 58.182 34.0967 58.046 33.8487 57.95C33.6007 57.846 33.3247 57.794 33.0207 57.794H31.5807V61.61H32.8647ZM34.0887 61.874L36.4527 65.75H35.7687L33.3927 61.886L34.0887 61.874ZM38.5865 57.23H43.8425V57.794H39.1745V61.178H43.3745V61.742H39.1745V65.186H44.0105V65.75H38.5865V57.23ZM53.3785 65.954L46.6585 58.382L46.8145 58.262L46.8265 65.75H46.2505V57.05H46.2865L53.0065 64.682L52.8505 64.73L52.8385 57.23H53.4025V65.954H53.3785ZM56.1177 57.23H61.3737V57.794H56.7057V61.178H60.9057V61.742H56.7057V65.186H61.5417V65.75H56.1177V57.23ZM63.7818 57.23H64.3698V65.186H69.0378V65.75H63.7818V57.23ZM71.0123 57.23H71.6003V65.186H76.2682V65.75H71.0123V57.23ZM77.4987 65.75L81.0987 56.858H81.1467L84.7467 65.75H84.0867L80.9547 57.794L81.3627 57.566L78.0867 65.75H77.4987ZM79.2387 62.378H83.0187L83.1867 62.93H79.0947L79.2387 62.378Z" fill="#2F3336"/>
<path d="M20.616 58.19L20.5289 58.37L20.7066 58.456L20.7949 58.2794L20.616 58.19ZM19.704 57.854L19.7595 57.6619L19.7595 57.6619L19.704 57.854ZM17.28 58.118L17.152 57.9644L17.152 57.9644L17.28 58.118ZM17.064 59.978L16.9145 60.1109L16.917 60.1137L17.064 59.978ZM17.82 60.518L17.7324 60.6978L17.7362 60.6996L17.82 60.518ZM18.816 60.938L18.7439 61.1246L18.7464 61.1255L18.816 60.938ZM19.644 61.286L19.5588 61.467L19.5608 61.4679L19.644 61.286ZM20.928 62.438L20.747 62.5232L20.7491 62.5274L20.928 62.438ZM20.796 64.706L20.9658 64.8117L20.9668 64.81L20.796 64.706ZM19.86 65.546L19.9494 65.7249L19.9494 65.7249L19.86 65.546ZM17.304 65.69L17.2461 65.8814L17.2473 65.8818L17.304 65.69ZM16.392 65.33L16.2939 65.5044L16.3004 65.5078L16.392 65.33ZM15.78 64.97L15.6066 64.8703L15.511 65.0366L15.6732 65.1391L15.78 64.97ZM16.056 64.49L16.1736 64.3283L15.9936 64.1973L15.8826 64.3903L16.056 64.49ZM16.692 64.874L16.6003 65.0517L16.6026 65.0529L16.692 64.874ZM17.52 65.198L17.577 65.0063L17.577 65.0063L17.52 65.198ZM19.404 65.126L19.3274 64.9412L19.3258 64.9419L19.404 65.126ZM20.208 64.514L20.0496 64.3918L20.0491 64.3925L20.208 64.514ZM20.232 62.474L20.0744 62.5971L20.0763 62.5996L20.232 62.474ZM18.468 61.418L18.3966 61.6048L18.3997 61.606L18.468 61.418ZM17.652 61.094L17.5712 61.277L17.5759 61.2789L17.652 61.094ZM16.908 60.674L16.788 60.834L16.7918 60.8367L16.908 60.674ZM16.368 60.074L16.1928 60.1706L16.1955 60.1751L16.368 60.074ZM17.328 57.458L17.4141 57.6385L17.4158 57.6377L17.328 57.458ZM18.552 57.182V56.982L18.5485 56.982L18.552 57.182ZM19.764 57.338L19.7146 57.5318L19.7155 57.532L19.764 57.338ZM20.844 57.734L21.0229 57.8234L21.1105 57.6482L20.9371 57.557L20.844 57.734ZM20.7031 58.01C20.4421 57.8836 20.1268 57.768 19.7595 57.6619L19.6485 58.0461C20.0012 58.148 20.2939 58.2563 20.5289 58.37L20.7031 58.01ZM19.7595 57.6619C19.3822 57.5529 19.0035 57.498 18.624 57.498V57.898C18.9645 57.898 19.3058 57.9471 19.6485 58.0461L19.7595 57.6619ZM18.624 57.498C18.0306 57.498 17.533 57.6468 17.152 57.9644L17.408 58.2716C17.699 58.0292 18.0974 57.898 18.624 57.898V57.498ZM17.152 57.9644C16.772 58.281 16.576 58.6885 16.576 59.174H16.976C16.976 58.8115 17.116 58.515 17.408 58.2716L17.152 57.9644ZM16.576 59.174C16.576 59.5373 16.6864 59.8542 16.9145 60.1109L17.2135 59.8451C17.0576 59.6698 16.976 59.4507 16.976 59.174H16.576ZM16.917 60.1137C17.1292 60.3435 17.4029 60.5373 17.7324 60.6978L17.9076 60.3382C17.6131 60.1947 17.3828 60.0284 17.211 59.8423L16.917 60.1137ZM17.7362 60.6996C18.0524 60.8455 18.3883 60.9872 18.7439 61.1246L18.8881 60.7514C18.5397 60.6168 18.2116 60.4785 17.9038 60.3364L17.7362 60.6996ZM18.7464 61.1255C19.0211 61.2275 19.2919 61.3413 19.5588 61.467L19.7292 61.105C19.4521 60.9747 19.1709 60.8565 18.8856 60.7505L18.7464 61.1255ZM19.5608 61.4679C19.8261 61.5892 20.0632 61.7362 20.2731 61.9085L20.5269 61.5995C20.2888 61.4038 20.0219 61.2388 19.7272 61.1041L19.5608 61.4679ZM20.2731 61.9085C20.4733 62.073 20.6312 62.277 20.747 62.5232L21.109 62.3528C20.9688 62.055 20.7747 61.803 20.5269 61.5995L20.2731 61.9085ZM20.7491 62.5274C20.8676 62.7643 20.932 63.0676 20.932 63.446H21.332C21.332 63.0244 21.2604 62.6557 21.1069 62.3486L20.7491 62.5274ZM20.932 63.446C20.932 63.8849 20.8283 64.2683 20.6252 64.602L20.9668 64.81C21.2117 64.4077 21.332 63.9511 21.332 63.446H20.932ZM20.6262 64.6003C20.4228 64.9272 20.1394 65.1827 19.7706 65.3671L19.9494 65.7249C20.3806 65.5093 20.7212 65.2048 20.9658 64.8117L20.6262 64.6003ZM19.7706 65.3671C19.4029 65.5509 18.9705 65.646 18.468 65.646V66.046C19.0215 66.046 19.5171 65.9411 19.9494 65.7249L19.7706 65.3671ZM18.468 65.646C18.0603 65.646 17.6917 65.596 17.3607 65.4982L17.2473 65.8818C17.6203 65.992 18.0277 66.046 18.468 66.046V65.646ZM17.3619 65.4986C17.0272 65.3974 16.7348 65.2816 16.4836 65.1522L16.3004 65.5078C16.5772 65.6504 16.8928 65.7746 17.2461 65.8814L17.3619 65.4986ZM16.4901 65.1557C16.2354 65.0125 16.0347 64.8943 15.8868 64.8009L15.6732 65.1391C15.8293 65.2377 16.0366 65.3595 16.2939 65.5043L16.4901 65.1557ZM15.9534 65.0697L16.2294 64.5897L15.8826 64.3903L15.6066 64.8703L15.9534 65.0697ZM15.9384 64.6517C16.1245 64.7871 16.3456 64.9203 16.6003 65.0517L16.7837 64.6963C16.5424 64.5717 16.3395 64.4489 16.1736 64.3283L15.9384 64.6517ZM16.6026 65.0529C16.8698 65.1865 17.1567 65.2986 17.463 65.3897L17.577 65.0063C17.2913 64.9214 17.0262 64.8175 16.7814 64.6951L16.6026 65.0529ZM17.463 65.3897C17.7767 65.483 18.0919 65.53 18.408 65.53V65.13C18.1321 65.13 17.8553 65.089 17.577 65.0063L17.463 65.3897ZM18.408 65.53C18.7792 65.53 19.1378 65.4565 19.4822 65.3101L19.3258 64.9419C19.0302 65.0675 18.7248 65.13 18.408 65.13V65.53ZM19.4806 65.3107C19.8399 65.1618 20.1367 64.9365 20.3669 64.6355L20.0491 64.3925C19.8633 64.6355 19.6241 64.8182 19.3274 64.9413L19.4806 65.3107ZM20.3664 64.6362C20.6144 64.3146 20.732 63.9171 20.732 63.458H20.332C20.332 63.8469 20.2336 64.1534 20.0496 64.3918L20.3664 64.6362ZM20.732 63.458C20.732 63.0173 20.6236 62.641 20.3877 62.3484L20.0763 62.5996C20.2404 62.803 20.332 63.0827 20.332 63.458H20.732ZM20.3896 62.3509C20.1703 62.0702 19.891 61.8442 19.5553 61.672L19.3727 62.028C19.661 62.1758 19.8937 62.3658 20.0744 62.5971L20.3896 62.3509ZM19.5553 61.672C19.2354 61.508 18.8957 61.3607 18.5363 61.23L18.3997 61.606C18.7443 61.7313 19.0686 61.872 19.3727 62.028L19.5553 61.672ZM18.5394 61.2312C18.269 61.1278 17.9986 61.0204 17.7282 60.9091L17.5759 61.2789C17.8494 61.3916 18.123 61.5002 18.3966 61.6048L18.5394 61.2312ZM17.7327 60.911C17.4722 60.7961 17.2363 60.6627 17.0242 60.5113L16.7918 60.8367C17.0277 61.0053 17.2878 61.1519 17.5713 61.277L17.7327 60.911ZM17.028 60.514C16.8244 60.3613 16.6626 60.181 16.5405 59.9729L16.1955 60.1751C16.3454 60.431 16.5436 60.6507 16.788 60.834L17.028 60.514ZM16.5431 59.9774C16.4349 59.7812 16.376 59.5361 16.376 59.234H15.976C15.976 59.5879 16.0451 59.9028 16.1929 60.1706L16.5431 59.9774ZM16.376 59.234C16.376 58.8618 16.4702 58.5461 16.6531 58.2789L16.3229 58.0531C16.0898 58.3939 15.976 58.7902 15.976 59.234H16.376ZM16.6531 58.2789C16.84 58.0057 17.092 57.7922 17.4141 57.6385L17.2419 57.2775C16.86 57.4598 16.552 57.7183 16.3229 58.0531L16.6531 58.2789ZM17.4158 57.6377C17.7461 57.4762 18.1247 57.3895 18.5555 57.382L18.5485 56.982C18.0673 56.9905 17.6299 57.0878 17.2402 57.2783L17.4158 57.6377ZM18.552 57.382C18.9345 57.382 19.3219 57.4317 19.7146 57.5318L19.8134 57.1442C19.3901 57.0363 18.9695 56.982 18.552 56.982V57.382ZM19.7155 57.532C20.1196 57.6331 20.464 57.76 20.7509 57.911L20.9371 57.557C20.616 57.388 20.2404 57.2509 19.8125 57.144L19.7155 57.532ZM20.6651 57.6446L20.4371 58.1006L20.7949 58.2794L21.0229 57.8234L20.6651 57.6446ZM23.3287 57.23V57.03H23.1287V57.23H23.3287ZM28.5847 57.23H28.7847V57.03H28.5847V57.23ZM28.5847 57.794V57.994H28.7847V57.794H28.5847ZM23.9167 57.794V57.594H23.7167V57.794H23.9167ZM23.9167 61.178H23.7167V61.378H23.9167V61.178ZM28.1167 61.178H28.3167V60.978H28.1167V61.178ZM28.1167 61.742V61.942H28.3167V61.742H28.1167ZM23.9167 61.742V61.542H23.7167V61.742H23.9167ZM23.9167 65.186H23.7167V65.386H23.9167V65.186ZM28.7527 65.186H28.9527V64.986H28.7527V65.186ZM28.7527 65.75V65.95H28.9527V65.75H28.7527ZM23.3287 65.75H23.1287V65.95H23.3287V65.75ZM23.3287 57.43H28.5847V57.03H23.3287V57.43ZM28.3847 57.23V57.794H28.7847V57.23H28.3847ZM28.5847 57.594H23.9167V57.994H28.5847V57.594ZM23.7167 57.794V61.178H24.1167V57.794H23.7167ZM23.9167 61.378H28.1167V60.978H23.9167V61.378ZM27.9167 61.178V61.742H28.3167V61.178H27.9167ZM28.1167 61.542H23.9167V61.942H28.1167V61.542ZM23.7167 61.742V65.186H24.1167V61.742H23.7167ZM23.9167 65.386H28.7527V64.986H23.9167V65.386ZM28.5527 65.186V65.75H28.9527V65.186H28.5527ZM28.7527 65.55H23.3287V65.95H28.7527V65.55ZM23.5287 65.75V57.23H23.1287V65.75H23.5287ZM33.8847 57.374L33.8259 57.5652L33.8317 57.5668L33.8847 57.374ZM34.7487 57.806L34.6255 57.9637L34.6311 57.9677L34.7487 57.806ZM35.3847 58.55L35.5617 58.4569L35.5617 58.4569L35.3847 58.55ZM35.4807 60.578L35.671 60.6397L35.6714 60.6382L35.4807 60.578ZM35.0127 61.382L34.8641 61.2482L34.8641 61.2482L35.0127 61.382ZM31.5807 62.174V61.974H31.3807V62.174H31.5807ZM31.5807 65.75V65.95H31.7807V65.75H31.5807ZM30.9927 65.75H30.7927V65.95H30.9927V65.75ZM30.9927 57.23V57.03H30.7927V57.23H30.9927ZM33.9207 61.43L33.9995 61.6138L33.9995 61.6138L33.9207 61.43ZM34.5807 60.962L34.7344 61.09L34.7344 61.09L34.5807 60.962ZM34.9167 60.338L34.7257 60.2787L34.7244 60.2831L34.9167 60.338ZM34.8807 58.946L34.6945 59.0192L34.6969 59.0248L34.8807 58.946ZM34.4847 58.358L34.3433 58.4995L34.3466 58.5027L34.4847 58.358ZM33.8487 57.95L33.7713 58.1345L33.7765 58.1365L33.8487 57.95ZM31.5807 57.794V57.594H31.3807V57.794H31.5807ZM31.5807 61.61H31.3807V61.81H31.5807V61.61ZM34.0887 61.874L34.2595 61.7699L34.1998 61.6721L34.0853 61.674L34.0887 61.874ZM36.4527 65.75V65.95H36.809L36.6235 65.6459L36.4527 65.75ZM35.7687 65.75L35.5984 65.8548L35.6569 65.95H35.7687V65.75ZM33.3927 61.886L33.3893 61.686L33.0387 61.6921L33.2224 61.9908L33.3927 61.886ZM32.9367 57.43C33.2364 57.43 33.5326 57.4749 33.8259 57.5652L33.9435 57.1828C33.6129 57.0811 33.2771 57.03 32.9367 57.03V57.43ZM33.8317 57.5668C34.1268 57.648 34.3909 57.7802 34.6256 57.9636L34.8718 57.6484C34.5946 57.4318 34.2826 57.276 33.9377 57.1812L33.8317 57.5668ZM34.6311 57.9677C34.869 58.1408 35.0612 58.3648 35.2077 58.6431L35.5617 58.4569C35.3882 58.1272 35.1564 57.8552 34.8664 57.6443L34.6311 57.9677ZM35.2077 58.6431C35.3495 58.9125 35.4247 59.243 35.4247 59.642H35.8247C35.8247 59.193 35.74 58.7955 35.5617 58.4569L35.2077 58.6431ZM35.4247 59.642C35.4247 59.9416 35.3798 60.2333 35.29 60.5178L35.6714 60.6382C35.7736 60.3147 35.8247 59.9824 35.8247 59.642H35.4247ZM35.2905 60.5163C35.2035 60.7846 35.062 61.0283 34.8641 61.2482L35.1614 61.5158C35.3954 61.2557 35.566 60.9634 35.671 60.6397L35.2905 60.5163ZM34.8641 61.2482C34.6707 61.4631 34.4164 61.6392 34.0955 61.7735L34.2499 62.1425C34.617 61.9888 34.9228 61.7809 35.1614 61.5158L34.8641 61.2482ZM34.0955 61.7735C33.7829 61.9044 33.387 61.974 32.9007 61.974V62.374C33.4225 62.374 33.8745 62.2996 34.2499 62.1425L34.0955 61.7735ZM32.9007 61.974H31.5807V62.374H32.9007V61.974ZM31.3807 62.174V65.75H31.7807V62.174H31.3807ZM31.5807 65.55H30.9927V65.95H31.5807V65.55ZM31.1927 65.75V57.23H30.7927V65.75H31.1927ZM30.9927 57.43H32.9367V57.03H30.9927V57.43ZM32.8647 61.81C33.3059 61.81 33.6869 61.7478 33.9995 61.6138L33.8419 61.2462C33.5946 61.3522 33.2715 61.41 32.8647 61.41V61.81ZM33.9995 61.6138C34.3022 61.4841 34.5502 61.311 34.7344 61.09L34.4271 60.834C34.2912 60.997 34.0992 61.1359 33.8419 61.2462L33.9995 61.6138ZM34.7344 61.09C34.9109 60.8782 35.0368 60.6456 35.109 60.3929L34.7244 60.2831C34.6686 60.4784 34.5706 60.6618 34.4271 60.834L34.7344 61.09ZM35.1077 60.3973C35.185 60.1484 35.2247 59.9044 35.2247 59.666H34.8247C34.8247 59.8596 34.7925 60.0636 34.7257 60.2787L35.1077 60.3973ZM35.2247 59.666C35.2247 59.3843 35.1718 59.1174 35.0645 58.8672L34.6969 59.0248C34.7817 59.2226 34.8247 59.4357 34.8247 59.666H35.2247ZM35.0669 58.8729C34.9681 58.6215 34.8196 58.4012 34.6228 58.2133L34.3466 58.5027C34.5018 58.6508 34.6173 58.8225 34.6946 59.0191L35.0669 58.8729ZM34.6261 58.2166C34.4291 58.0196 34.1931 57.8688 33.9209 57.7635L33.7765 58.1365C34.0004 58.2232 34.1883 58.3444 34.3433 58.4994L34.6261 58.2166ZM33.9261 57.7656C33.6506 57.65 33.3478 57.594 33.0207 57.594V57.994C33.3016 57.994 33.5509 58.042 33.7714 58.1344L33.9261 57.7656ZM33.0207 57.594H31.5807V57.994H33.0207V57.594ZM31.3807 57.794V61.61H31.7807V57.794H31.3807ZM31.5807 61.81H32.8647V61.41H31.5807V61.81ZM33.918 61.9781L36.282 65.8541L36.6235 65.6459L34.2595 61.7699L33.918 61.9781ZM36.4527 65.55H35.7687V65.95H36.4527V65.55ZM35.9391 65.6452L33.5631 61.7812L33.2224 61.9908L35.5984 65.8548L35.9391 65.6452ZM33.3962 62.086L34.0922 62.074L34.0853 61.674L33.3893 61.686L33.3962 62.086ZM38.5865 57.23V57.03H38.3865V57.23H38.5865ZM43.8425 57.23H44.0425V57.03H43.8425V57.23ZM43.8425 57.794V57.994H44.0425V57.794H43.8425ZM39.1745 57.794V57.594H38.9745V57.794H39.1745ZM39.1745 61.178H38.9745V61.378H39.1745V61.178ZM43.3745 61.178H43.5745V60.978H43.3745V61.178ZM43.3745 61.742V61.942H43.5745V61.742H43.3745ZM39.1745 61.742V61.542H38.9745V61.742H39.1745ZM39.1745 65.186H38.9745V65.386H39.1745V65.186ZM44.0105 65.186H44.2105V64.986H44.0105V65.186ZM44.0105 65.75V65.95H44.2105V65.75H44.0105ZM38.5865 65.75H38.3865V65.95H38.5865V65.75ZM38.5865 57.43H43.8425V57.03H38.5865V57.43ZM43.6425 57.23V57.794H44.0425V57.23H43.6425ZM43.8425 57.594H39.1745V57.994H43.8425V57.594ZM38.9745 57.794V61.178H39.3745V57.794H38.9745ZM39.1745 61.378H43.3745V60.978H39.1745V61.378ZM43.1745 61.178V61.742H43.5745V61.178H43.1745ZM43.3745 61.542H39.1745V61.942H43.3745V61.542ZM38.9745 61.742V65.186H39.3745V61.742H38.9745ZM39.1745 65.386H44.0105V64.986H39.1745V65.386ZM43.8105 65.186V65.75H44.2105V65.186H43.8105ZM44.0105 65.55H38.5865V65.95H44.0105V65.55ZM38.7865 65.75V57.23H38.3865V65.75H38.7865ZM53.3785 65.954L53.2289 66.0868L53.2886 66.154H53.3785V65.954ZM46.6585 58.382L46.5366 58.2235L46.3665 58.3543L46.5089 58.5148L46.6585 58.382ZM46.8145 58.262L47.0145 58.2617L47.0139 57.8563L46.6926 58.1035L46.8145 58.262ZM46.8265 65.75V65.95H47.0269L47.0265 65.7497L46.8265 65.75ZM46.2505 65.75H46.0505V65.95H46.2505V65.75ZM46.2505 57.05V56.85H46.0505V57.05H46.2505ZM46.2865 57.05L46.4366 56.9178L46.3769 56.85H46.2865V57.05ZM53.0065 64.682L53.0653 64.8732L53.3612 64.7821L53.1566 64.5498L53.0065 64.682ZM52.8505 64.73L52.6505 64.7303L52.651 65.0007L52.9093 64.9212L52.8505 64.73ZM52.8385 57.23V57.03H52.6382L52.6385 57.2303L52.8385 57.23ZM53.4025 57.23H53.6025V57.03H53.4025V57.23ZM53.4025 65.954V66.154H53.6025V65.954H53.4025ZM53.5281 65.8212L46.8081 58.2492L46.5089 58.5148L53.2289 66.0868L53.5281 65.8212ZM46.7805 58.5405L46.9365 58.4205L46.6926 58.1035L46.5366 58.2235L46.7805 58.5405ZM46.6145 58.2623L46.6265 65.7503L47.0265 65.7497L47.0145 58.2617L46.6145 58.2623ZM46.8265 65.55H46.2505V65.95H46.8265V65.55ZM46.4505 65.75V57.05H46.0505V65.75H46.4505ZM46.2505 57.25H46.2865V56.85H46.2505V57.25ZM46.1364 57.1822L52.8564 64.8142L53.1566 64.5498L46.4366 56.9178L46.1364 57.1822ZM52.9477 64.4908L52.7917 64.5388L52.9093 64.9212L53.0653 64.8732L52.9477 64.4908ZM53.0505 64.7297L53.0385 57.2297L52.6385 57.2303L52.6505 64.7303L53.0505 64.7297ZM52.8385 57.43H53.4025V57.03H52.8385V57.43ZM53.2025 57.23V65.954H53.6025V57.23H53.2025ZM53.4025 65.754H53.3785V66.154H53.4025V65.754ZM56.1177 57.23V57.03H55.9177V57.23H56.1177ZM61.3737 57.23H61.5737V57.03H61.3737V57.23ZM61.3737 57.794V57.994H61.5737V57.794H61.3737ZM56.7057 57.794V57.594H56.5057V57.794H56.7057ZM56.7057 61.178H56.5057V61.378H56.7057V61.178ZM60.9057 61.178H61.1057V60.978H60.9057V61.178ZM60.9057 61.742V61.942H61.1057V61.742H60.9057ZM56.7057 61.742V61.542H56.5057V61.742H56.7057ZM56.7057 65.186H56.5057V65.386H56.7057V65.186ZM61.5417 65.186H61.7417V64.986H61.5417V65.186ZM61.5417 65.75V65.95H61.7417V65.75H61.5417ZM56.1177 65.75H55.9177V65.95H56.1177V65.75ZM56.1177 57.43H61.3737V57.03H56.1177V57.43ZM61.1737 57.23V57.794H61.5737V57.23H61.1737ZM61.3737 57.594H56.7057V57.994H61.3737V57.594ZM56.5057 57.794V61.178H56.9057V57.794H56.5057ZM56.7057 61.378H60.9057V60.978H56.7057V61.378ZM60.7057 61.178V61.742H61.1057V61.178H60.7057ZM60.9057 61.542H56.7057V61.942H60.9057V61.542ZM56.5057 61.742V65.186H56.9057V61.742H56.5057ZM56.7057 65.386H61.5417V64.986H56.7057V65.386ZM61.3417 65.186V65.75H61.7417V65.186H61.3417ZM61.5417 65.55H56.1177V65.95H61.5417V65.55ZM56.3177 65.75V57.23H55.9177V65.75H56.3177ZM63.7818 57.23V57.03H63.5818V57.23H63.7818ZM64.3698 57.23H64.5698V57.03H64.3698V57.23ZM64.3698 65.186H64.1698V65.386H64.3698V65.186ZM69.0378 65.186H69.2378V64.986H69.0378V65.186ZM69.0378 65.75V65.95H69.2378V65.75H69.0378ZM63.7818 65.75H63.5818V65.95H63.7818V65.75ZM63.7818 57.43H64.3698V57.03H63.7818V57.43ZM64.1698 57.23V65.186H64.5698V57.23H64.1698ZM64.3698 65.386H69.0378V64.986H64.3698V65.386ZM68.8378 65.186V65.75H69.2378V65.186H68.8378ZM69.0378 65.55H63.7818V65.95H69.0378V65.55ZM63.9818 65.75V57.23H63.5818V65.75H63.9818ZM71.0123 57.23V57.03H70.8123V57.23H71.0123ZM71.6003 57.23H71.8003V57.03H71.6003V57.23ZM71.6003 65.186H71.4003V65.386H71.6003V65.186ZM76.2682 65.186H76.4682V64.986H76.2682V65.186ZM76.2682 65.75V65.95H76.4682V65.75H76.2682ZM71.0123 65.75H70.8123V65.95H71.0123V65.75ZM71.0123 57.43H71.6003V57.03H71.0123V57.43ZM71.4003 57.23V65.186H71.8003V57.23H71.4003ZM71.6003 65.386H76.2682V64.986H71.6003V65.386ZM76.0682 65.186V65.75H76.4682V65.186H76.0682ZM76.2682 65.55H71.0123V65.95H76.2682V65.55ZM71.2123 65.75V57.23H70.8123V65.75H71.2123ZM77.4987 65.75L77.3133 65.6749L77.202 65.95H77.4987V65.75ZM81.0987 56.858V56.658H80.9639L80.9133 56.7829L81.0987 56.858ZM81.1467 56.858L81.3321 56.7829L81.2815 56.658H81.1467V56.858ZM84.7467 65.75V65.95H85.0435L84.9321 65.6749L84.7467 65.75ZM84.0867 65.75L83.9006 65.8233L83.9505 65.95H84.0867V65.75ZM80.9547 57.794L80.8572 57.6194L80.7046 57.7047L80.7686 57.8673L80.9547 57.794ZM81.3627 57.566L81.5484 57.6403L81.7584 57.1158L81.2652 57.3914L81.3627 57.566ZM78.0867 65.75V65.95H78.2221L78.2724 65.8243L78.0867 65.75ZM79.2387 62.378V62.178H79.0842L79.0452 62.3275L79.2387 62.378ZM83.0187 62.378L83.2101 62.3198L83.1669 62.178H83.0187V62.378ZM83.1867 62.93V63.13H83.4566L83.3781 62.8718L83.1867 62.93ZM79.0947 62.93L78.9012 62.8795L78.8359 63.13H79.0947V62.93ZM77.6841 65.8251L81.2841 56.9331L80.9133 56.7829L77.3133 65.6749L77.6841 65.8251ZM81.0987 57.058H81.1467V56.658H81.0987V57.058ZM80.9613 56.9331L84.5613 65.8251L84.9321 65.6749L81.3321 56.7829L80.9613 56.9331ZM84.7467 65.55H84.0867V65.95H84.7467V65.55ZM84.2728 65.6767L81.1408 57.7207L80.7686 57.8673L83.9006 65.8233L84.2728 65.6767ZM81.0523 57.9686L81.4603 57.7406L81.2652 57.3914L80.8572 57.6194L81.0523 57.9686ZM81.177 57.4917L77.901 65.6757L78.2724 65.8243L81.5484 57.6403L81.177 57.4917ZM78.0867 65.55H77.4987V65.95H78.0867V65.55ZM79.2387 62.578H83.0187V62.178H79.2387V62.578ZM82.8274 62.4362L82.9954 62.9882L83.3781 62.8718L83.2101 62.3198L82.8274 62.4362ZM83.1867 62.73H79.0947V63.13H83.1867V62.73ZM79.2882 62.9805L79.4322 62.4285L79.0452 62.3275L78.9012 62.8795L79.2882 62.9805Z" fill="black" mask="url(#path-5-outside-1_82_815)"/>
</g>
<g filter="url(#filter1_d_82_815)">
<path d="M37.38 48.385V52H36.9V50.415H35.005V52H34.52V48.385H35.005V49.955H36.9V48.385H37.38ZM38.0614 52L39.6414 48.235H39.6714L41.2464 52H40.6914L39.5114 48.995L39.8564 48.77L38.5364 52H38.0614ZM38.9864 50.63H40.3314L40.4914 51.05H38.8464L38.9864 50.63ZM41.9272 48.385H42.4122V52H41.9272V48.385ZM44.4107 48.385C44.594 48.385 44.7623 48.41 44.9157 48.46C45.0723 48.5067 45.2073 48.5783 45.3207 48.675C45.4373 48.7683 45.5273 48.885 45.5907 49.025C45.6573 49.1617 45.6907 49.3217 45.6907 49.505C45.6907 49.6483 45.669 49.7883 45.6257 49.925C45.5857 50.0617 45.5173 50.1867 45.4207 50.3C45.324 50.41 45.1973 50.5 45.0407 50.57C44.8873 50.6367 44.6973 50.67 44.4707 50.67H43.9357V52H43.4507V48.385H44.4107ZM44.4607 50.205C44.604 50.205 44.7223 50.1833 44.8157 50.14C44.9123 50.0967 44.9873 50.0417 45.0407 49.975C45.094 49.905 45.1323 49.83 45.1557 49.75C45.179 49.67 45.1907 49.595 45.1907 49.525C45.1907 49.4517 45.1773 49.3767 45.1507 49.3C45.1273 49.22 45.0873 49.1467 45.0307 49.08C44.9773 49.0133 44.9057 48.9583 44.8157 48.915C44.729 48.8717 44.6223 48.85 44.4957 48.85H43.9357V50.205H44.4607ZM45.0557 50.48L46.0007 52H45.4407L44.4807 50.495L45.0557 50.48ZM50.1986 49.03C50.0753 48.9667 49.9403 48.9117 49.7936 48.865C49.6469 48.8183 49.5036 48.795 49.3636 48.795C49.1703 48.795 49.0153 48.84 48.8986 48.93C48.7853 49.02 48.7286 49.14 48.7286 49.29C48.7286 49.4033 48.7653 49.5 48.8386 49.58C48.9119 49.6567 49.0086 49.7233 49.1286 49.78C49.2486 49.8367 49.3736 49.89 49.5036 49.94C49.6169 49.9833 49.7286 50.0317 49.8386 50.085C49.9486 50.1383 50.0469 50.205 50.1336 50.285C50.2236 50.365 50.2936 50.4633 50.3436 50.58C50.3969 50.6967 50.4236 50.8417 50.4236 51.015C50.4236 51.205 50.3753 51.3783 50.2786 51.535C50.1853 51.6917 50.0503 51.815 49.8736 51.905C49.6969 51.995 49.4869 52.04 49.2436 52.04C49.0836 52.04 48.9303 52.0217 48.7836 51.985C48.6403 51.9483 48.5069 51.9017 48.3836 51.845C48.2603 51.785 48.1503 51.7233 48.0536 51.66L48.2686 51.28C48.3486 51.3367 48.4403 51.3917 48.5436 51.445C48.6469 51.495 48.7553 51.5367 48.8686 51.57C48.9819 51.6 49.0919 51.615 49.1986 51.615C49.3119 51.615 49.4236 51.595 49.5336 51.555C49.6469 51.5117 49.7403 51.4467 49.8136 51.36C49.8869 51.2733 49.9236 51.1583 49.9236 51.015C49.9236 50.8917 49.8903 50.79 49.8236 50.71C49.7603 50.6267 49.6753 50.5567 49.5686 50.5C49.4619 50.44 49.3486 50.3867 49.2286 50.34C49.1153 50.2967 49.0003 50.25 48.8836 50.2C48.7669 50.1467 48.6586 50.0833 48.5586 50.01C48.4586 49.9333 48.3786 49.84 48.3186 49.73C48.2586 49.62 48.2286 49.4867 48.2286 49.33C48.2286 49.14 48.2736 48.975 48.3636 48.835C48.4569 48.6917 48.5836 48.58 48.7436 48.5C48.9036 48.4167 49.0869 48.3717 49.2936 48.365C49.5269 48.365 49.7319 48.3933 49.9086 48.45C50.0886 48.5067 50.2469 48.5767 50.3836 48.66L50.1986 49.03ZM50.8788 52L52.4588 48.235H52.4888L54.0638 52H53.5088L52.3288 48.995L52.6738 48.77L51.3538 52H50.8788ZM51.8038 50.63H53.1488L53.3088 51.05H51.6638L51.8038 50.63ZM54.7446 48.385H55.2296V51.535H57.0646V52H54.7446V48.385ZM57.5616 50.195C57.5616 49.945 57.6083 49.71 57.7016 49.49C57.7983 49.2667 57.9316 49.07 58.1016 48.9C58.2716 48.7267 58.4666 48.5917 58.6866 48.495C58.9099 48.395 59.1499 48.345 59.4066 48.345C59.6599 48.345 59.8966 48.395 60.1166 48.495C60.3399 48.5917 60.5366 48.7267 60.7066 48.9C60.8799 49.07 61.0149 49.2667 61.1116 49.49C61.2083 49.71 61.2566 49.945 61.2566 50.195C61.2566 50.4517 61.2083 50.6917 61.1116 50.915C61.0149 51.1383 60.8799 51.335 60.7066 51.505C60.5366 51.6717 60.3399 51.8033 60.1166 51.9C59.8966 51.9933 59.6599 52.04 59.4066 52.04C59.1499 52.04 58.9099 51.9933 58.6866 51.9C58.4666 51.8067 58.2716 51.6767 58.1016 51.51C57.9316 51.3433 57.7983 51.1483 57.7016 50.925C57.6083 50.7017 57.5616 50.4583 57.5616 50.195ZM58.0616 50.2C58.0616 50.39 58.0966 50.5683 58.1666 50.735C58.2366 50.8983 58.3333 51.0433 58.4566 51.17C58.5799 51.2967 58.7233 51.3967 58.8866 51.47C59.0499 51.54 59.2266 51.575 59.4166 51.575C59.6033 51.575 59.7783 51.54 59.9416 51.47C60.1049 51.3967 60.2466 51.2967 60.3666 51.17C60.4866 51.0433 60.5816 50.8983 60.6516 50.735C60.7216 50.5683 60.7566 50.3883 60.7566 50.195C60.7566 50.005 60.7216 49.8267 60.6516 49.66C60.5816 49.49 60.4849 49.3417 60.3616 49.215C60.2383 49.0883 60.0949 48.99 59.9316 48.92C59.7683 48.8467 59.5933 48.81 59.4066 48.81C59.2166 48.81 59.0399 48.8467 58.8766 48.92C58.7133 48.9933 58.5699 49.0933 58.4466 49.22C58.3233 49.3467 58.2283 49.495 58.1616 49.665C58.0949 49.8317 58.0616 50.01 58.0616 50.2ZM65.2037 52.115L62.4087 49.28L62.5487 49.315L62.5587 52H62.0737V48.275H62.0987L64.8637 51.12L64.7487 51.095L64.7387 48.385H65.2187V52.115H65.2037Z" fill="#2F3336"/>
</g>
<defs>
<filter id="filter0_d_82_815" x="15.38" y="56.858" width="69.7667" height="9.89595" filterUnits="userSpaceOnUse" color-interpolation-filters="sRGB">
<feFlood flood-opacity="0" result="BackgroundImageFix"/>
<feColorMatrix in="SourceAlpha" type="matrix" values="0 0 0 0 0 0 0 0 0 0 0 0 0 0 0 0 0 0 127 0" result="hardAlpha"/>
<feOffset dy="0.4"/>
<feGaussianBlur stdDeviation="0.2"/>
<feComposite in2="hardAlpha" operator="out"/>
<feColorMatrix type="matrix" values="0 0 0 0 1 0 0 0 0 1 0 0 0 0 1 0 0 0 0.25 0"/>
<feBlend mode="normal" in2="BackgroundImageFix" result="effect1_dropShadow_82_815"/>
<feBlend mode="normal" in="SourceGraphic" in2="effect1_dropShadow_82_815" result="shape"/>
</filter>
<filter id="filter1_d_82_815" x="34.12" y="48.235" width="31.4987" height="4.68" filterUnits="userSpaceOnUse" color-interpolation-filters="sRGB">
<feFlood flood-opacity="0" result="BackgroundImageFix"/>
<feColorMatrix in="SourceAlpha" type="matrix" values="0 0 0 0 0 0 0 0 0 0 0 0 0 0 0 0 0 0 127 0" result="hardAlpha"/>
<feOffset dy="0.4"/>
<feGaussianBlur stdDeviation="0.2"/>
<feComposite in2="hardAlpha" operator="out"/>
<feColorMatrix type="matrix" values="0 0 0 0 1 0 0 0 0 1 0 0 0 0 1 0 0 0 0.25 0"/>
<feBlend mode="normal" in2="BackgroundImageFix" result="effect1_dropShadow_82_815"/>
<feBlend mode="normal" in="SourceGraphic" in2="effect1_dropShadow_82_815" result="shape"/>
</filter>
</defs>
</svg>
