<svg width="280" height="278" viewBox="0 0 280 278" fill="none" xmlns="http://www.w3.org/2000/svg">
<path d="M49.6544 60.1448C48.9443 61.0053 48.2405 61.8827 47.5552 62.7568C47.5534 62.7595 47.5516 62.7622 47.5499 62.765C47.5496 62.7648 47.5494 62.7646 47.5492 62.7645C44.77 60.7394 38.8193 55.0548 43.2971 48.7668C45.2027 49.402 48.2855 53.7771 48.6497 55.619C49.4824 58.8308 49.0408 60.4981 47.5552 62.7568C48.2405 61.8827 48.9443 61.0053 49.6544 60.1448C50.173 59.5164 50.695 58.8971 51.2157 58.2947C52.9851 56.2477 54.7391 54.397 56.2921 53.0544C54.069 50.5533 50.4668 43.6694 55.8024 39.4772C58.4623 40.946 63.1389 44.8604 60.5663 48.7668C59.4992 50.3874 58.805 51.1895 58.3665 51.5081C59.2481 50.9835 59.9999 50.7533 60.5663 50.9106C61.1637 51.0766 61.7601 51.0619 62.3444 50.9106C63.4943 50.613 64.5975 49.7866 65.5698 48.7668C66.9407 47.3291 68.0512 45.5071 68.665 44.2411C70.3324 41.6606 74.9296 36.8808 79.9794 38.4053C85.0292 39.9297 79.7809 42.931 76.5255 44.2411H68.665C68.0512 45.5071 66.9407 47.3291 65.5698 48.7668C68.984 49.0844 76.5255 50.6486 76.5255 54.3645C75.5728 55.5555 72.6668 57.6992 68.665 56.7464C64.6633 55.7937 62.7839 52.4589 62.3444 50.9106C61.7601 51.0619 61.1637 51.0766 60.5663 50.9106C59.9999 50.7533 59.2481 50.9835 58.3665 51.5081C58.2963 51.5591 58.2326 51.5977 58.175 51.6253C57.5947 51.9905 56.9621 52.4751 56.2921 53.0544C54.7391 54.397 52.9851 56.2477 51.2157 58.2947C55.8024 56.7464 64.1393 59.7715 65.0921 63.7732C64.0996 65.52 60.8522 68.4895 55.8024 66.3934C50.7526 64.2973 49.2971 61.177 49.6544 60.1448Z" fill="#F4BAD2"/>
<path d="M42.2252 69.9664C46.9097 63.2175 57.1363 49.9579 60.5663 50.9106C61.1637 51.0766 61.7601 51.0619 62.3444 50.9106M68.665 44.2411C70.3324 41.6606 74.9296 36.8808 79.9794 38.4053C85.0292 39.9297 79.7809 42.931 76.5255 44.2411H68.665ZM68.665 44.2411C67.6159 46.405 65.1155 50.1934 62.3444 50.9106M56.2921 53.0544C54.069 50.5533 50.4668 43.6694 55.8024 39.4772C58.4623 40.946 63.1389 44.8604 60.5663 48.7668C57.9938 52.6733 57.5889 51.8237 57.708 50.9106M65.5698 48.7668C68.984 49.0844 76.5255 50.6486 76.5255 54.3645C75.5728 55.5555 72.6668 57.6992 68.665 56.7464C64.6633 55.7937 62.7839 52.4589 62.3444 50.9106M51.2157 58.2947C55.8024 56.7464 64.1393 59.7715 65.0921 63.7732C64.0996 65.52 60.8522 68.4895 55.8024 66.3934C50.7526 64.2973 49.2971 61.177 49.6544 60.1448M47.5499 62.765C44.7709 60.7403 38.819 55.0552 43.2971 48.7668C45.2027 49.402 48.2855 53.7771 48.6497 55.619C49.4834 58.8347 49.0397 60.5021 47.5499 62.765Z" stroke="#F4BAD2"/>
<path d="M22.1562 140.912C22.3801 142.005 22.6213 143.104 22.8714 144.186C22.8724 144.189 22.8734 144.192 22.8743 144.195C22.8741 144.195 22.8738 144.196 22.8736 144.196C19.5525 145.087 11.3919 146.15 9.30878 138.717C10.9996 137.633 16.3403 137.98 18.0027 138.853C21.0254 140.221 22.0459 141.612 22.8714 144.186C22.6213 143.104 22.3801 142.005 22.1562 140.912C21.9926 140.114 21.8383 139.319 21.6963 138.536C21.2139 135.873 20.8746 133.346 20.8045 131.294C17.4621 131.455 9.8424 129.936 9.92907 123.151C12.7423 122.003 18.7251 120.821 20.1507 125.276C20.7421 127.124 20.9306 128.168 20.9033 128.709C21.0485 127.693 21.3412 126.964 21.8193 126.622C22.3235 126.261 22.6865 125.787 22.9357 125.238C23.4259 124.156 23.4753 122.778 23.292 121.381C23.0335 119.411 22.3125 117.403 21.7125 116.131C20.7508 113.213 19.9165 106.634 24.2734 103.66C28.6303 100.687 27.6715 106.656 26.6474 110.012L21.7125 116.131C22.3125 117.403 23.0335 119.411 23.292 121.381C25.6826 118.923 31.6348 114.035 34.5271 116.368C34.8559 117.857 34.7001 121.465 31.4462 123.982C28.1922 126.498 24.4167 125.867 22.9357 125.238C22.6865 125.787 22.3235 126.261 21.8193 126.622C21.3412 126.964 21.0485 127.693 20.9033 128.709C20.8989 128.796 20.889 128.869 20.8743 128.932C20.7942 129.612 20.7743 130.409 20.8045 131.294C20.8746 133.346 21.2139 135.873 21.6963 138.536C23.3708 133.993 30.9595 129.403 34.6724 131.174C35.409 133.043 35.6816 137.435 30.8797 140.05C26.0778 142.664 22.7353 141.838 22.1562 140.912Z" fill="#F4BAD2"/>
<path d="M25.1368 152.861C22.8247 144.978 18.9243 128.693 21.8193 126.622C22.3235 126.261 22.6865 125.787 22.9357 125.238M21.7125 116.131C20.7508 113.213 19.9165 106.634 24.2734 103.66C28.6303 100.687 27.6715 106.656 26.6474 110.012L21.7125 116.131ZM21.7125 116.131C22.7381 118.306 24.1171 122.63 22.9357 125.238M20.8045 131.294C17.4621 131.455 9.8424 129.936 9.92907 123.151C12.7423 122.003 18.7251 120.821 20.1507 125.276C21.5762 129.73 20.6607 129.512 20.0248 128.846M23.292 121.381C25.6826 118.923 31.6348 114.035 34.5271 116.368C34.8559 117.857 34.7001 121.465 31.4462 123.982C28.1922 126.498 24.4167 125.867 22.9357 125.238M21.6963 138.536C23.3708 133.993 30.9595 129.403 34.6724 131.174C35.409 133.043 35.6816 137.435 30.8797 140.05C26.0778 142.664 22.7353 141.838 22.1562 140.912M22.8743 144.195C19.5537 145.087 11.392 146.151 9.30878 138.717C10.9996 137.633 16.3403 137.98 18.0027 138.853C21.0291 140.223 22.0484 141.615 22.8743 144.195Z" stroke="#F4BAD2"/>
<path d="M52.0073 217.8C52.9194 218.442 53.848 219.077 54.7717 219.694C54.7746 219.695 54.7774 219.697 54.7803 219.698C54.7801 219.698 54.78 219.699 54.7798 219.699C52.9725 222.624 47.7579 228.991 41.147 225.006C41.6351 223.057 45.7625 219.65 47.5713 219.146C50.7103 218.071 52.4064 218.384 54.7717 219.694C53.848 219.077 52.9194 218.442 52.0073 217.8C51.3412 217.33 50.6839 216.857 50.0436 216.384C47.8677 214.776 45.8887 213.168 44.4316 211.722C42.1073 214.129 35.518 218.245 30.9312 213.245C32.1931 210.481 35.7396 205.519 39.8308 207.787C41.5279 208.727 42.3806 209.358 42.7317 209.771C42.1415 208.932 41.8546 208.2 41.9683 207.623C42.0882 207.015 42.0281 206.421 41.8328 205.85C41.4484 204.726 40.5403 203.689 39.4494 202.798C37.9113 201.54 36.01 200.572 34.7009 200.056C32.0009 198.591 26.8845 194.371 28.0197 189.22C29.1548 184.068 32.5474 189.073 34.1018 192.219L34.7009 200.056C36.01 200.572 37.9113 201.54 39.4494 202.798C39.5058 199.369 40.4906 191.73 44.1957 191.447C45.4558 192.306 47.8148 195.041 47.1698 199.103C46.5248 203.166 43.3431 205.294 41.8328 205.85C42.0281 206.421 42.0882 207.015 41.9683 207.623C41.8546 208.2 42.1415 208.932 42.7317 209.771C42.7879 209.837 42.8313 209.898 42.8632 209.953C43.2715 210.504 43.803 211.098 44.4316 211.722C45.8887 213.168 47.8677 214.776 50.0436 216.384C48.1502 211.928 50.5311 203.385 54.4485 202.13C56.2659 202.987 59.4743 205.998 57.7692 211.193C56.064 216.388 53.0637 218.077 52.0073 217.8Z" fill="#F4BAD2"/>
<path d="M62.3666 224.459C55.2803 220.302 41.2797 211.116 41.9683 207.623C42.0882 207.015 42.0281 206.421 41.8328 205.85M34.7009 200.056C32.0009 198.591 26.8845 194.371 28.0197 189.22C29.1548 184.068 32.5474 189.073 34.1018 192.219L34.7009 200.056ZM34.7009 200.056C36.9384 200.938 40.9064 203.142 41.8328 205.85M44.4316 211.722C42.1073 214.129 35.518 218.245 30.9312 213.245C32.1931 210.481 35.7396 205.519 39.8308 207.787C43.9219 210.054 43.1057 210.522 42.1862 210.473M39.4494 202.798C39.5058 199.369 40.4906 191.73 44.1957 191.447C45.4558 192.306 47.8148 195.041 47.1698 199.103C46.5248 203.166 43.3431 205.294 41.8328 205.85M50.0436 216.384C48.1502 211.928 50.5311 203.385 54.4485 202.13C56.2659 202.987 59.4743 205.998 57.7692 211.193C56.064 216.388 53.0637 218.077 52.0073 217.8M54.7803 219.698C52.9733 222.623 47.7585 228.991 41.147 225.006C41.6351 223.057 45.7625 219.65 47.5713 219.146C50.7141 218.07 52.4104 218.385 54.7803 219.698Z" stroke="#F4BAD2"/>
<path d="M135.271 255.855C136.376 255.697 137.487 255.522 138.582 255.337C138.585 255.336 138.588 255.336 138.591 255.335C138.591 255.335 138.592 255.335 138.592 255.336C139.283 258.704 139.855 266.914 132.311 268.548C131.329 266.795 131.996 261.485 132.967 259.878C134.514 256.942 135.963 256.007 138.582 255.337C137.487 255.522 136.376 255.697 135.271 255.855C134.465 255.97 133.662 256.077 132.871 256.172C130.185 256.494 127.642 256.681 125.589 256.628C125.549 259.974 123.577 267.489 116.81 266.996C115.832 264.119 115.01 258.076 119.542 256.92C121.423 256.44 122.476 256.315 123.015 256.374C122.01 256.169 121.299 255.833 120.986 255.335C120.656 254.81 120.205 254.419 119.671 254.138C118.621 253.584 117.249 253.452 115.843 253.551C113.862 253.691 111.814 254.29 110.507 254.813C107.537 255.598 100.92 256.037 98.2128 251.51C95.5057 246.982 101.407 248.297 104.696 249.52L110.507 254.813C111.814 254.29 113.862 253.691 115.843 253.551C113.533 251.017 109.01 244.783 111.512 242.036C113.018 241.797 116.61 242.168 118.928 245.567C121.245 248.966 120.389 252.697 119.671 254.138C120.205 254.419 120.656 254.81 120.986 255.335C121.299 255.833 122.01 256.169 123.015 256.374C123.101 256.384 123.174 256.398 123.235 256.417C123.91 256.537 124.704 256.605 125.589 256.628C127.642 256.681 130.185 256.494 132.871 256.172C128.438 254.228 124.31 246.378 126.3 242.778C128.21 242.154 132.611 242.146 134.933 247.095C137.255 252.045 136.23 255.332 135.271 255.855Z" fill="#F4BAD2"/>
<path d="M147.377 253.596C139.369 255.431 122.88 258.349 120.986 255.335C120.656 254.81 120.205 254.419 119.671 254.138M110.507 254.813C107.537 255.598 100.92 256.037 98.2128 251.51C95.5057 246.982 101.407 248.297 104.696 249.52L110.507 254.813ZM110.507 254.813C112.74 253.92 117.14 252.802 119.671 254.138M125.589 256.628C125.549 259.974 123.577 267.489 116.81 266.996C115.832 264.119 115.01 258.076 119.542 256.92C124.075 255.764 123.802 256.665 123.099 257.26M115.843 253.551C113.533 251.017 109.01 244.783 111.512 242.036C113.018 241.797 116.61 242.168 118.928 245.567C121.245 248.966 120.389 252.697 119.671 254.138M132.871 256.172C128.438 254.228 124.31 246.378 126.3 242.778C128.21 242.154 132.611 242.146 134.933 247.095C137.255 252.045 136.23 255.332 135.271 255.855M138.591 255.335C139.283 258.703 139.855 266.914 132.311 268.548C131.329 266.795 131.996 261.485 132.967 259.878C134.516 256.939 135.966 256.005 138.591 255.335Z" stroke="#F4BAD2"/>
<path d="M225.295 223.608C226.093 222.828 226.886 222.031 227.66 221.235C227.663 221.232 227.665 221.23 227.667 221.227C227.667 221.227 227.667 221.228 227.667 221.228C230.215 223.538 235.525 229.825 230.402 235.599C228.575 234.764 225.977 230.085 225.811 228.215C225.326 224.933 225.942 223.322 227.66 221.235C226.886 222.031 226.093 222.828 225.295 223.608C224.712 224.177 224.127 224.738 223.545 225.281C221.567 227.128 219.626 228.781 217.939 229.95C219.882 232.674 222.73 239.903 216.977 243.502C214.489 241.758 210.257 237.367 213.231 233.757C214.465 232.26 215.241 231.536 215.711 231.266C214.779 231.694 214.007 231.843 213.46 231.626C212.884 231.397 212.289 231.348 211.692 231.436C210.517 231.609 209.332 232.313 208.257 233.224C206.74 234.507 205.442 236.2 204.696 237.393C202.763 239.781 197.682 244.044 192.824 241.989C187.966 239.935 193.504 237.511 196.881 236.555L204.696 237.393C205.442 236.2 206.74 234.507 208.257 233.224C204.896 232.544 197.564 230.184 197.96 226.489C199.035 225.407 202.153 223.585 206.03 224.959C209.907 226.334 211.42 229.85 211.692 231.436C212.289 231.348 212.884 231.397 213.46 231.626C214.007 231.843 214.779 231.694 215.711 231.266C215.786 231.223 215.854 231.191 215.914 231.17C216.53 230.869 217.211 230.454 217.939 229.95C219.626 228.781 221.567 227.128 223.545 225.281C218.819 226.331 210.853 222.434 210.332 218.354C211.505 216.723 215.051 214.117 219.848 216.739C224.646 219.362 225.76 222.62 225.295 223.608Z" fill="#F4BAD2"/>
<path d="M233.729 214.635C228.351 220.846 216.769 232.939 213.46 231.626C212.884 231.397 212.289 231.348 211.692 231.436M204.696 237.393C202.763 239.781 197.682 244.044 192.824 241.989C187.966 239.935 193.504 237.511 196.881 236.555L204.696 237.393ZM204.696 237.393C205.97 235.354 208.86 231.854 211.692 231.436M217.939 229.95C219.882 232.674 222.73 239.903 216.977 243.502C214.489 241.758 210.257 237.367 213.231 233.757C216.206 230.147 216.518 231.035 216.302 231.931M208.257 233.224C204.896 232.544 197.564 230.184 197.96 226.489C199.035 225.407 202.153 223.585 206.03 224.959C209.907 226.334 211.42 229.85 211.692 231.436M223.545 225.281C218.819 226.331 210.853 222.434 210.332 218.354C211.505 216.723 215.051 214.117 219.848 216.739C224.646 219.362 225.76 222.62 225.295 223.608M227.667 221.227C230.214 223.537 235.525 229.824 230.402 235.599C228.575 234.764 225.977 230.085 225.811 228.215C225.325 224.929 225.944 223.318 227.667 221.227Z" stroke="#F4BAD2"/>
<path d="M135.892 21.6538C134.788 21.8111 133.676 21.9853 132.581 22.1694C132.578 22.1702 132.575 22.171 132.572 22.1718C132.572 22.1716 132.572 22.1713 132.571 22.171C131.882 18.802 131.316 10.592 138.861 8.96285C139.841 10.7162 139.171 16.0261 138.199 17.6326C136.65 20.5669 135.201 21.5014 132.581 22.1694C133.676 21.9853 134.788 21.8111 135.892 21.6538C136.699 21.5389 137.502 21.4329 138.292 21.3387C140.979 21.0183 143.522 20.8327 145.574 20.887C145.617 17.5409 147.593 10.0272 154.361 10.5245C155.336 13.4021 156.155 19.4456 151.622 20.5988C149.741 21.0772 148.688 21.2021 148.149 21.1421C149.154 21.3485 149.865 21.6849 150.177 22.1829C150.507 22.708 150.957 23.099 151.491 23.3809C152.541 23.9358 153.913 24.0685 155.319 23.9701C157.301 23.8314 159.349 23.2333 160.655 22.7115C163.626 21.9282 170.244 21.4938 172.948 26.0228C175.652 30.5517 169.752 29.2332 166.464 28.0078L160.655 22.7115C159.349 23.2333 157.301 23.8314 155.319 23.9701C157.628 26.5052 162.146 32.7424 159.643 35.4882C158.136 35.7262 154.544 35.3523 152.229 31.9519C149.914 28.5515 150.773 24.8211 151.491 23.3809C150.957 23.099 150.507 22.708 150.177 22.1829C149.865 21.6849 149.154 21.3485 148.149 21.1421C148.063 21.1325 147.99 21.1181 147.929 21.0997C147.254 20.9785 146.46 20.9104 145.574 20.887C143.522 20.8327 140.979 21.0183 138.292 21.3387C142.725 23.2851 146.847 31.1378 144.855 34.7367C142.944 35.3587 138.544 35.3649 136.225 30.4135C133.906 25.4621 134.933 22.1757 135.892 21.6538Z" fill="#F4BAD2"/>
<path d="M123.785 23.9054C131.794 22.0749 148.285 19.1677 150.177 22.1829C150.507 22.708 150.957 23.099 151.491 23.3809M160.655 22.7115C163.626 21.9282 170.244 21.4938 172.948 26.0228C175.652 30.5517 169.752 29.2332 166.464 28.0078L160.655 22.7115ZM160.655 22.7115C158.422 23.6035 154.022 24.718 151.491 23.3809M145.574 20.887C145.617 17.5409 147.593 10.0272 154.361 10.5245C155.336 13.4021 156.155 19.4456 151.622 20.5988C147.089 21.752 147.362 20.8514 148.065 20.2569M155.319 23.9701C157.628 26.5052 162.146 32.7424 159.643 35.4882C158.136 35.7262 154.544 35.3523 152.229 31.9519C149.914 28.5515 150.773 24.8211 151.491 23.3809M138.292 21.3387C142.725 23.2851 146.847 31.1378 144.855 34.7367C142.944 35.3587 138.544 35.3649 136.225 30.4135C133.906 25.4621 134.933 22.1757 135.892 21.6538M132.572 22.1718C131.882 18.8033 131.315 10.5922 138.861 8.96285C139.841 10.7162 139.171 16.0261 138.199 17.6326C136.649 20.5705 135.197 21.5036 132.572 22.1718Z" stroke="#F4BAD2"/>
<path d="M225.698 53.822C224.883 53.0602 224.051 52.3037 223.221 51.5658C223.218 51.5638 223.215 51.5619 223.213 51.56C223.213 51.5597 223.213 51.5595 223.213 51.5593C225.406 48.9102 231.447 43.3213 237.446 48.1782C236.695 50.041 232.138 52.8482 230.277 53.0982C227.02 53.7313 225.383 53.1878 223.221 51.5658C224.051 52.3037 224.883 53.0602 225.698 53.822C226.294 54.3784 226.879 54.9376 227.449 55.4944C229.383 57.3866 231.122 59.2514 232.366 60.8842C234.999 58.8195 242.092 55.6485 245.948 61.2324C244.318 63.7966 240.122 68.2231 236.382 65.4146C234.83 64.2495 234.072 63.5073 233.782 63.05C234.251 63.9622 234.434 64.7268 234.242 65.2825C234.04 65.8684 234.018 66.4646 234.133 67.0572C234.359 68.2232 235.116 69.3753 236.073 70.4086C237.424 71.8655 239.174 73.0862 240.4 73.7769C242.873 75.6002 247.36 80.4833 245.527 85.4295C243.694 90.3757 241.022 84.9524 239.915 81.6224L240.4 73.7769C239.174 73.0862 237.424 71.8655 236.073 70.4086C235.546 73.7967 233.52 81.2274 229.811 80.9984C228.681 79.974 226.721 76.9414 227.918 73.006C229.116 69.0706 232.56 67.4004 234.133 67.0572C234.018 66.4646 234.04 65.8684 234.242 65.2825C234.434 64.7268 234.251 63.9622 233.782 63.05C233.735 62.9767 233.7 62.9108 233.676 62.8516C233.348 62.2499 232.903 61.5886 232.366 60.8842C231.122 59.2514 229.383 57.3866 227.449 55.4944C228.711 60.1678 225.178 68.3024 221.125 69.0067C219.443 67.9084 216.679 64.4841 219.083 59.5731C221.486 54.6622 224.69 53.4018 225.698 53.822Z" fill="#F4BAD2"/>
<path d="M216.353 45.8015C222.801 50.8931 235.405 61.9177 234.242 65.2824C234.04 65.8684 234.018 66.4646 234.133 67.0572M240.4 73.7769C242.873 75.6002 247.36 80.4833 245.527 85.4295C243.694 90.3757 241.022 84.9524 239.915 81.6224L240.4 73.7769ZM240.4 73.7769C238.305 72.5963 234.678 69.8672 234.133 67.0572M232.366 60.8842C234.999 58.8195 242.092 55.6485 245.948 61.2324C244.318 63.7966 240.122 68.2231 236.382 65.4146C232.641 62.6062 233.514 62.2544 234.418 62.4295M236.073 70.4086C235.546 73.7967 233.52 81.2274 229.811 80.9984C228.681 79.974 226.721 76.9414 227.918 73.006C229.116 69.0706 232.56 67.4004 234.133 67.0572M227.449 55.4944C228.711 60.1678 225.178 68.3024 221.125 69.0067C219.443 67.9084 216.679 64.4841 219.083 59.5731C221.486 54.6622 224.69 53.4018 225.698 53.822M223.213 51.56C225.405 48.9111 231.446 43.3209 237.446 48.1782C236.695 50.041 232.138 52.8482 230.277 53.0982C227.016 53.7321 225.38 53.1865 223.213 51.56Z" stroke="#F4BAD2"/>
<path d="M259.333 139.832C259.285 138.717 259.221 137.594 259.145 136.486C259.145 136.483 259.144 136.48 259.144 136.477C259.144 136.477 259.144 136.477 259.145 136.476C262.565 136.122 270.791 136.366 271.67 144.035C269.828 144.838 264.61 143.649 263.107 142.524C260.34 140.693 259.552 139.159 259.145 136.486C259.221 137.594 259.285 138.717 259.333 139.832C259.368 140.646 259.394 141.456 259.41 142.252C259.464 144.957 259.399 147.506 259.143 149.543C262.468 149.914 269.751 152.621 268.59 159.306C265.63 159.994 259.536 160.213 258.834 155.589C258.543 153.67 258.523 152.61 258.635 152.08C258.331 153.059 257.926 153.733 257.4 153.995C256.845 154.272 256.412 154.682 256.079 155.185C255.423 156.176 255.156 157.528 255.115 158.936C255.058 160.922 255.452 163.019 255.843 164.371C256.33 167.404 256.111 174.032 251.338 176.278C246.564 178.523 248.457 172.781 250 169.63L255.843 164.371C255.452 163.019 255.058 160.922 255.115 158.936C252.365 160.984 245.714 164.867 243.228 162.105C243.139 160.583 243.865 157.045 247.477 155.076C251.088 153.107 254.716 154.328 256.079 155.185C256.412 154.682 256.845 154.272 257.4 153.995C257.926 153.733 258.331 153.059 258.635 152.08C258.653 151.995 258.675 151.924 258.699 151.864C258.886 151.205 259.032 150.421 259.143 149.543C259.399 147.506 259.464 144.957 259.41 142.252C257.037 146.471 248.816 149.8 245.431 147.463C245 145.501 245.427 141.121 250.583 139.301C255.738 137.48 258.908 138.826 259.333 139.832Z" fill="#F4BAD2"/>
<path d="M258.284 127.562C259.317 135.712 260.587 152.409 257.4 153.995C256.845 154.272 256.412 154.682 256.079 155.185M255.843 164.371C256.33 167.404 256.111 174.032 251.338 176.278C246.564 178.523 248.457 172.781 250 169.63L255.843 164.371ZM255.843 164.371C255.175 162.061 254.499 157.572 256.079 155.185M259.143 149.543C262.468 149.914 269.751 152.621 268.59 159.306C265.63 159.994 259.536 160.213 258.834 155.589C258.133 150.964 259.002 151.325 259.525 152.083M255.115 158.936C252.365 160.984 245.714 164.867 243.228 162.105C243.139 160.583 243.865 157.045 247.477 155.076C251.088 153.107 254.716 154.328 256.079 155.185M259.41 142.252C257.037 146.471 248.816 149.8 245.431 147.463C245 145.501 245.427 141.121 250.583 139.301C255.738 137.48 258.908 138.826 259.333 139.832M259.144 136.477C262.564 136.122 270.791 136.366 271.67 144.035C269.828 144.838 264.61 143.649 263.107 142.524C260.336 140.691 259.55 139.155 259.144 136.477Z" stroke="#F4BAD2"/>
<path d="M82.1738 40.7148C89.2816 35.3014 104.017 25.1264 106.096 27.7339C106.492 27.6083 106.943 27.4719 107.431 27.3321M116.912 26.3602C115.914 25.241 110.796 26.368 107.431 27.3321M107.431 27.3321C107.808 23.9879 108.96 17.8463 110.558 20.0333M95.3908 31.5973C97.8793 33.2283 104.111 36.89 106.335 36.2865M92.476 26.1641C90.6934 27.3416 87.3689 32.1465 88.0226 36.4509" stroke="#A8C692"/>
<path d="M92.3864 26.187C91.3704 25.6144 90.9958 24.1896 91.6873 22.9626C92.3788 21.7357 93.7916 21.3183 94.8076 21.8909C95.8236 22.4635 96.1982 23.8883 95.5067 25.1152C94.8152 26.3422 93.4024 26.7596 92.3864 26.187Z" fill="#A8C692" stroke="#A8C692"/>
<path d="M111.037 21.3664C110.338 20.6586 110.375 19.301 111.363 18.3256C112.351 17.3502 113.709 17.3302 114.408 18.0379C115.107 18.7456 115.069 20.1033 114.081 21.0787C113.094 22.0541 111.736 22.0741 111.037 21.3664Z" fill="#A8C692" stroke="#A8C692"/>
<path d="M117.365 26.6274C116.822 25.6652 117.214 24.3234 118.379 23.6653C119.544 23.0071 120.895 23.3637 121.439 24.3259C121.982 25.2881 121.59 26.6298 120.426 27.288C119.261 27.9462 117.909 27.5896 117.365 26.6274Z" fill="#A8C692" stroke="#A8C692"/>
<path d="M106.069 35.4914C105.723 34.4934 106.427 33.1642 107.929 32.6439C109.43 32.1236 110.806 32.7324 111.152 33.7304C111.497 34.7283 110.794 36.0575 109.292 36.5779C107.79 37.0982 106.415 36.4893 106.069 35.4914Z" fill="#A8C692" stroke="#A8C692"/>
<path d="M174.832 29.1474C183.638 30.6587 201.127 34.5058 200.636 37.8042C200.998 38.0085 201.405 38.2456 201.84 38.5072M209.014 44.7826C209.152 43.2888 204.839 40.312 201.84 38.5072M201.84 38.5072C204.544 36.5034 209.823 33.1607 209.312 35.8203M190.512 32.6042C191.015 35.5368 192.583 42.5925 194.541 43.8086M192.501 26.768C190.425 26.2663 184.643 27.1087 181.939 30.5208" stroke="#A8C692"/>
<path d="M192.424 26.7182C192.151 25.5845 192.938 24.3393 194.307 24.009C195.676 23.6787 196.945 24.428 197.218 25.5617C197.492 26.6954 196.704 27.9407 195.335 28.271C193.966 28.6013 192.698 27.8519 192.424 26.7182Z" fill="#A8C692" stroke="#A8C692"/>
<path d="M208.663 37.0794C208.704 36.0857 209.723 35.1876 211.11 35.2457C212.497 35.3037 213.438 36.2837 213.396 37.2775C213.355 38.2712 212.336 39.1693 210.949 39.1112C209.562 39.0532 208.621 38.0731 208.663 37.0794Z" fill="#A8C692" stroke="#A8C692"/>
<path d="M209.127 45.2963C209.461 44.2427 210.71 43.615 211.985 44.0188C213.261 44.4226 213.921 45.6547 213.588 46.7083C213.254 47.7619 212.005 48.3896 210.73 47.9858C209.454 47.582 208.794 46.3499 209.127 45.2963Z" fill="#A8C692" stroke="#A8C692"/>
<path d="M194.942 43.0722C195.436 42.139 196.888 41.748 198.293 42.4922C199.697 43.2363 200.189 44.6577 199.694 45.5909C199.2 46.5241 197.747 46.9151 196.343 46.171C194.939 45.4268 194.447 44.0054 194.942 43.0722Z" fill="#A8C692" stroke="#A8C692"/>
<path d="M238.389 87.5253C244.395 94.14 255.802 107.943 253.384 110.239C253.543 110.623 253.718 111.061 253.899 111.535M255.685 120.897C256.714 119.805 255.15 114.804 253.899 111.535M253.899 111.535C257.263 111.622 263.481 112.241 261.44 114.021M248.612 99.9071C247.201 102.527 244.09 109.051 244.883 111.215M253.773 96.5347C252.447 94.8603 247.373 91.9624 243.141 92.9847" stroke="#A8C692"/>
<path d="M253.743 96.4478C254.226 95.3862 255.613 94.8902 256.895 95.4733C258.177 96.0565 258.715 97.4281 258.232 98.4897C257.749 99.5512 256.362 100.047 255.08 99.4641C253.798 98.881 253.26 97.5093 253.743 96.4478Z" fill="#A8C692" stroke="#A8C692"/>
<path d="M260.153 114.613C260.798 113.856 262.154 113.776 263.211 114.676C264.268 115.576 264.405 116.927 263.76 117.685C263.115 118.442 261.759 118.522 260.702 117.622C259.645 116.722 259.508 115.37 260.153 114.613Z" fill="#A8C692" stroke="#A8C692"/>
<path d="M255.458 121.372C256.369 120.747 257.74 121.022 258.496 122.126C259.252 123.23 259.013 124.607 258.102 125.231C257.19 125.856 255.819 125.581 255.063 124.477C254.307 123.373 254.546 121.996 255.458 121.372Z" fill="#A8C692" stroke="#A8C692"/>
<path d="M245.652 110.882C246.617 110.451 248.002 111.038 248.65 112.489C249.298 113.94 248.809 115.363 247.845 115.794C246.881 116.224 245.496 115.637 244.848 114.186C244.2 112.735 244.688 111.312 245.652 110.882Z" fill="#A8C692" stroke="#A8C692"/>
<path d="M252.305 176.742C249.34 185.17 242.617 201.767 239.448 200.731C239.185 201.053 238.884 201.415 238.553 201.8M231.164 207.821C232.614 208.207 236.271 204.454 238.553 201.8M238.553 201.8C240.075 204.801 242.486 210.566 239.95 209.616M246.27 191.621C243.295 191.626 236.076 191.99 234.549 193.716M251.691 194.56C252.533 192.597 252.671 186.755 249.76 183.518" stroke="#A8C692"/>
<path d="M251.753 194.492C252.916 194.412 254.012 195.397 254.108 196.802C254.204 198.207 253.253 199.332 252.09 199.412C250.926 199.492 249.83 198.507 249.734 197.102C249.638 195.697 250.589 194.572 251.753 194.492Z" fill="#A8C692" stroke="#A8C692"/>
<path d="M238.818 208.766C239.79 208.973 240.505 210.128 240.215 211.486C239.926 212.844 238.802 213.607 237.829 213.399C236.857 213.192 236.142 212.037 236.432 210.679C236.721 209.321 237.845 208.559 238.818 208.766Z" fill="#A8C692" stroke="#A8C692"/>
<path d="M230.639 207.847C231.622 208.352 232.031 209.689 231.42 210.879C230.808 212.068 229.482 212.513 228.5 212.008C227.517 211.502 227.107 210.166 227.719 208.976C228.331 207.786 229.656 207.341 230.639 207.847Z" fill="#A8C692" stroke="#A8C692"/>
<path d="M235.208 194.235C236.045 194.878 236.188 196.376 235.219 197.636C234.25 198.895 232.766 199.142 231.929 198.498C231.092 197.854 230.95 196.357 231.918 195.097C232.887 193.838 234.371 193.591 235.208 194.235Z" fill="#A8C692" stroke="#A8C692"/>
<path d="M97.3407 243.563C88.4487 242.691 70.7278 240.116 70.9794 236.791C70.6037 236.613 70.1805 236.406 69.728 236.176M62.1203 230.435C62.0902 231.935 66.6069 234.593 69.728 236.176M69.728 236.176C67.1759 238.37 62.1511 242.085 62.4694 239.395M81.4519 241.247C80.7389 238.358 78.6658 231.434 76.6257 230.362M79.8893 247.211C81.9967 247.562 87.7027 246.304 90.1536 242.706" stroke="#A8C692"/>
<path d="M79.9699 247.255C80.3245 248.366 79.6291 249.665 78.2874 250.093C76.9457 250.521 75.6265 249.866 75.2719 248.754C74.9173 247.643 75.6127 246.345 76.9544 245.916C78.2961 245.488 79.6153 246.144 79.9699 247.255Z" fill="#A8C692" stroke="#A8C692"/>
<path d="M63.0258 238.093C63.056 239.087 62.1046 240.056 60.717 240.098C59.3293 240.14 58.3208 239.231 58.2906 238.237C58.2603 237.242 59.2117 236.273 60.5994 236.231C61.987 236.189 62.9956 237.098 63.0258 238.093Z" fill="#A8C692" stroke="#A8C692"/>
<path d="M61.9701 229.931C61.7134 231.006 60.513 231.722 59.2115 231.411C57.9101 231.1 57.1627 229.919 57.4193 228.844C57.6759 227.769 58.8764 227.053 60.1778 227.364C61.4793 227.675 62.2267 228.856 61.9701 229.931Z" fill="#A8C692" stroke="#A8C692"/>
<path d="M76.2789 231.125C75.8529 232.092 74.4326 232.587 72.9783 231.946C71.524 231.305 70.9309 229.923 71.3568 228.956C71.7827 227.99 73.2031 227.495 74.6574 228.136C76.1116 228.777 76.7048 230.159 76.2789 231.125Z" fill="#A8C692" stroke="#A8C692"/>
<path d="M190.649 242.671C182.649 246.65 166.262 253.869 164.711 250.917C164.298 250.965 163.829 251.014 163.324 251.06M153.829 250.229C154.6 251.517 159.838 251.373 163.324 251.06M163.324 251.06C162.325 254.273 160.036 260.088 158.879 257.64M175.952 249.137C173.815 247.067 168.384 242.298 166.086 242.472M177.792 255.022C179.764 254.201 183.934 250.108 184.102 245.758" stroke="#A8C692"/>
<path d="M177.884 255.017C178.774 255.77 178.873 257.24 177.963 258.315C177.053 259.39 175.587 259.534 174.697 258.78C173.807 258.027 173.707 256.557 174.617 255.482C175.528 254.407 176.994 254.263 177.884 255.017Z" fill="#A8C692" stroke="#A8C692"/>
<path d="M158.659 256.24C159.212 257.067 158.92 258.393 157.766 259.165C156.613 259.937 155.275 259.701 154.722 258.874C154.169 258.048 154.461 256.721 155.615 255.949C156.769 255.177 158.106 255.413 158.659 256.24Z" fill="#A8C692" stroke="#A8C692"/>
<path d="M153.435 249.882C153.787 250.929 153.15 252.173 151.882 252.6C150.614 253.027 149.353 252.423 149.001 251.375C148.648 250.328 149.285 249.084 150.554 248.657C151.822 248.23 153.082 248.834 153.435 249.882Z" fill="#A8C692" stroke="#A8C692"/>
<path d="M166.197 243.303C166.349 244.348 165.407 245.521 163.835 245.749C162.262 245.978 161.026 245.121 160.874 244.076C160.722 243.03 161.664 241.857 163.236 241.629C164.809 241.401 166.045 242.258 166.197 243.303Z" fill="#A8C692" stroke="#A8C692"/>
<path d="M31.2656 109.645C31.7372 100.723 33.5138 82.9046 36.847 83.0066C37.0076 82.6233 37.1954 82.1912 37.4045 81.7289M42.7983 73.8709C41.2986 73.9082 38.8464 78.5397 37.4045 81.7289M37.4045 81.7289C35.0984 79.2778 31.1615 74.4251 33.8626 74.6221M32.8659 93.6687C35.7196 92.8267 42.5437 90.4446 43.5227 88.3583M26.8373 92.3756C26.5817 94.4966 28.0941 100.14 31.799 102.427" stroke="#A8C692"/>
<path d="M26.9809 95.1272C25.8869 95.5313 24.5582 94.895 24.0701 93.5739C23.582 92.2527 24.178 90.9054 25.272 90.5013C26.3659 90.0972 27.6947 90.7334 28.1827 92.0546C28.6708 93.3757 28.0749 94.723 26.9809 95.1272Z" fill="#A8C692" stroke="#A8C692"/>
<path d="M35.3729 77.7884C34.3811 77.8632 33.3701 76.9563 33.2656 75.572C33.1611 74.1876 34.0245 73.1392 35.0163 73.0644C36.0081 72.9895 37.0191 73.8964 37.1236 75.2808C37.2281 76.6651 36.3646 77.7135 35.3729 77.7884Z" fill="#A8C692" stroke="#A8C692"/>
<path d="M43.4793 76.367C42.394 76.1589 41.6246 74.9919 41.8765 73.6778C42.1285 72.3637 43.2749 71.5639 44.3603 71.772C45.4456 71.9801 46.215 73.1472 45.9631 74.4612C45.7112 75.7753 44.5647 76.5751 43.4793 76.367Z" fill="#A8C692" stroke="#A8C692"/>
<path d="M42.9283 90.7152C41.9437 90.3331 41.3856 88.9364 41.9605 87.4548C42.5354 85.9732 43.8896 85.3185 44.8742 85.7006C45.8588 86.0827 46.4169 87.4794 45.842 88.961C45.267 90.4426 43.9129 91.0972 42.9283 90.7152Z" fill="#A8C692" stroke="#A8C692"/>
<path d="M39.2174 188.124C33.1116 181.602 21.4959 167.973 23.8793 165.64C23.7142 165.259 23.5328 164.824 23.3444 164.353M21.4168 155.019C20.4044 156.126 22.0443 161.104 23.3444 164.353M23.3444 164.353C19.9792 164.317 13.7524 163.793 15.7662 161.982M28.8076 175.899C30.178 173.258 33.1895 166.688 32.3637 164.536M23.6976 179.35C25.0498 181.004 30.1668 183.824 34.3828 182.738" stroke="#A8C692"/>
<path d="M23.7293 179.436C23.2626 180.505 21.8831 181.022 20.5924 180.458C19.3016 179.895 18.7432 178.531 19.21 177.462C19.6767 176.394 21.0562 175.877 22.3469 176.44C23.6376 177.004 24.196 178.367 23.7293 179.436Z" fill="#A8C692" stroke="#A8C692"/>
<path d="M17.044 161.37C16.4107 162.137 15.0563 162.238 13.9858 161.354C12.9153 160.47 12.7578 159.121 13.3911 158.354C14.0244 157.587 15.3788 157.486 16.4493 158.37C17.5198 159.254 17.6773 160.603 17.044 161.37Z" fill="#A8C692" stroke="#A8C692"/>
<path d="M21.6366 154.541C20.7345 155.179 19.3599 154.925 18.5871 153.833C17.8142 152.741 18.0321 151.36 18.9342 150.722C19.8364 150.083 21.2109 150.337 21.9838 151.43C22.7566 152.522 22.5387 153.903 21.6366 154.541Z" fill="#A8C692" stroke="#A8C692"/>
<path d="M31.5993 164.881C30.6415 165.326 29.2478 164.761 28.578 163.319C27.9082 161.878 28.3746 160.448 29.3324 160.003C30.2902 159.558 31.6839 160.124 32.3536 161.565C33.0234 163.006 32.5571 164.436 31.5993 164.881Z" fill="#A8C692" stroke="#A8C692"/>
</svg>
