<svg width="280" height="278" viewBox="0 0 280 278" fill="none" xmlns="http://www.w3.org/2000/svg">
<path d="M49.6549 60.1448C48.9448 61.0053 48.241 61.8827 47.5557 62.7568C47.5539 62.7595 47.5521 62.7622 47.5503 62.765C47.5501 62.7648 47.5499 62.7646 47.5497 62.7645C44.7705 60.7394 38.8198 55.0548 43.2976 48.7668C45.2032 49.402 48.2859 53.7771 48.6502 55.619C49.4828 58.8308 49.0413 60.4981 47.5557 62.7568C48.241 61.8827 48.9448 61.0053 49.6549 60.1448C50.1735 59.5164 50.6955 58.8971 51.2162 58.2947C52.9856 56.2477 54.7396 54.397 56.2926 53.0544C54.0695 50.5533 50.4673 43.6694 55.8029 39.4772C58.4628 40.946 63.1394 44.8604 60.5668 48.7668C59.4997 50.3874 58.8055 51.1895 58.367 51.5081C59.2486 50.9835 60.0004 50.7533 60.5668 50.9106C61.1642 51.0766 61.7606 51.0619 62.3449 50.9106C63.4948 50.613 64.598 49.7866 65.5703 48.7668C66.9412 47.3291 68.0517 45.5071 68.6655 44.2411C70.3329 41.6606 74.9301 36.8808 79.9799 38.4053C85.0297 39.9297 79.7814 42.931 76.526 44.2411H68.6655C68.0517 45.5071 66.9412 47.3291 65.5703 48.7668C68.9845 49.0844 76.526 50.6486 76.526 54.3645C75.5732 55.5555 72.6672 57.6992 68.6655 56.7464C64.6638 55.7937 62.7844 52.4589 62.3449 50.9106C61.7606 51.0619 61.1642 51.0766 60.5668 50.9106C60.0004 50.7533 59.2486 50.9835 58.367 51.5081C58.2968 51.5591 58.2331 51.5977 58.1755 51.6253C57.5952 51.9905 56.9626 52.4751 56.2926 53.0544C54.7396 54.397 52.9856 56.2477 51.2162 58.2947C55.8029 56.7464 64.1398 59.7715 65.0926 63.7732C64.1001 65.52 60.8527 68.4895 55.8029 66.3934C50.7531 64.2973 49.2976 61.177 49.6549 60.1448Z" fill="#F4BAD2"/>
<path d="M42.2257 69.9664C46.9102 63.2175 57.1368 49.9579 60.5668 50.9106C61.1642 51.0766 61.7606 51.0619 62.3449 50.9106M68.6655 44.2411C70.3329 41.6606 74.9301 36.8808 79.9799 38.4053C85.0297 39.9297 79.7814 42.931 76.526 44.2411H68.6655ZM68.6655 44.2411C67.6164 46.405 65.116 50.1934 62.3449 50.9106M56.2926 53.0544C54.0695 50.5533 50.4673 43.6694 55.8029 39.4772C58.4628 40.946 63.1394 44.8604 60.5668 48.7668C57.9943 52.6733 57.5894 51.8237 57.7085 50.9106M65.5703 48.7668C68.9845 49.0844 76.526 50.6486 76.526 54.3645C75.5732 55.5555 72.6672 57.6992 68.6655 56.7464C64.6638 55.7937 62.7844 52.4589 62.3449 50.9106M51.2162 58.2947C55.8029 56.7464 64.1398 59.7715 65.0926 63.7732C64.1001 65.52 60.8527 68.4895 55.8029 66.3934C50.7531 64.2973 49.2976 61.177 49.6549 60.1448M47.5503 62.765C44.7714 60.7403 38.8195 55.0552 43.2976 48.7668C45.2032 49.402 48.2859 53.7771 48.6502 55.619C49.4838 58.8347 49.0402 60.5021 47.5503 62.765Z" stroke="#F4BAD2"/>
<path d="M22.1567 140.912C22.3806 142.005 22.6217 143.104 22.8719 144.186C22.8729 144.189 22.8738 144.192 22.8748 144.195C22.8746 144.195 22.8743 144.196 22.8741 144.196C19.553 145.087 11.3923 146.15 9.30927 138.717C11 137.633 16.3408 137.98 18.0032 138.853C21.0259 140.221 22.0464 141.612 22.8719 144.186C22.6217 143.104 22.3806 142.005 22.1567 140.912C21.9931 140.114 21.8388 139.319 21.6968 138.536C21.2144 135.873 20.8751 133.346 20.805 131.294C17.4626 131.455 9.84289 129.936 9.92956 123.151C12.7428 122.003 18.7256 120.821 20.1512 125.276C20.7425 127.124 20.931 128.168 20.9038 128.709C21.049 127.693 21.3417 126.964 21.8198 126.622C22.324 126.261 22.687 125.787 22.9361 125.238C23.4264 124.156 23.4757 122.778 23.2924 121.381C23.034 119.411 22.313 117.403 21.713 116.131C20.7513 113.213 19.917 106.634 24.2739 103.66C28.6308 100.687 27.672 106.656 26.6479 110.012L21.713 116.131C22.313 117.403 23.034 119.411 23.2924 121.381C25.6831 118.923 31.6353 114.035 34.5276 116.368C34.8564 117.857 34.7006 121.465 31.4467 123.982C28.1927 126.498 24.4172 125.867 22.9361 125.238C22.687 125.787 22.324 126.261 21.8198 126.622C21.3417 126.964 21.049 127.693 20.9038 128.709C20.8994 128.796 20.8895 128.869 20.8748 128.932C20.7947 129.612 20.7748 130.409 20.805 131.294C20.8751 133.346 21.2144 135.873 21.6968 138.536C23.3713 133.993 30.96 129.403 34.6729 131.174C35.4095 133.043 35.682 137.435 30.8802 140.05C26.0783 142.664 22.7358 141.838 22.1567 140.912Z" fill="#F4BAD2"/>
<path d="M25.1373 152.861C22.8252 144.978 18.9248 128.693 21.8198 126.622C22.324 126.261 22.687 125.787 22.9361 125.238M21.713 116.131C20.7513 113.213 19.917 106.634 24.2739 103.66C28.6308 100.687 27.672 106.656 26.6479 110.012L21.713 116.131ZM21.713 116.131C22.7386 118.306 24.1176 122.63 22.9361 125.238M20.805 131.294C17.4626 131.455 9.84289 129.936 9.92956 123.151C12.7428 122.003 18.7256 120.821 20.1512 125.276C21.5767 129.73 20.6612 129.512 20.0253 128.846M23.2924 121.381C25.6831 118.923 31.6353 114.035 34.5276 116.368C34.8564 117.857 34.7006 121.465 31.4467 123.982C28.1927 126.498 24.4172 125.867 22.9361 125.238M21.6968 138.536C23.3713 133.993 30.96 129.403 34.6729 131.174C35.4095 133.043 35.682 137.435 30.8802 140.05C26.0783 142.664 22.7358 141.838 22.1567 140.912M22.8748 144.195C19.5542 145.087 11.3925 146.151 9.30927 138.717C11 137.633 16.3408 137.98 18.0032 138.853C21.0296 140.223 22.0489 141.615 22.8748 144.195Z" stroke="#F4BAD2"/>
<path d="M52.0078 217.8C52.9199 218.442 53.8485 219.077 54.7722 219.694C54.7751 219.695 54.7779 219.697 54.7808 219.698C54.7806 219.698 54.7805 219.699 54.7803 219.699C52.973 222.624 47.7584 228.991 41.1475 225.006C41.6356 223.057 45.7629 219.65 47.5718 219.146C50.7108 218.071 52.4068 218.384 54.7722 219.694C53.8485 219.077 52.9199 218.442 52.0078 217.8C51.3417 217.33 50.6844 216.857 50.0441 216.384C47.8682 214.776 45.8892 213.168 44.4321 211.722C42.1078 214.129 35.5184 218.245 30.9317 213.245C32.1936 210.481 35.7401 205.519 39.8312 207.787C41.5284 208.727 42.3811 209.358 42.7322 209.771C42.142 208.932 41.8551 208.2 41.9688 207.623C42.0887 207.015 42.0286 206.421 41.8333 205.85C41.4489 204.726 40.5408 203.689 39.4499 202.798C37.9118 201.54 36.0104 200.572 34.7014 200.056C32.0013 198.591 26.885 194.371 28.0202 189.22C29.1553 184.068 32.5479 189.073 34.1023 192.219L34.7014 200.056C36.0104 200.572 37.9118 201.54 39.4499 202.798C39.5063 199.369 40.4911 191.73 44.1962 191.447C45.4563 192.306 47.8153 195.041 47.1703 199.103C46.5253 203.166 43.3435 205.294 41.8333 205.85C42.0286 206.421 42.0887 207.015 41.9688 207.623C41.8551 208.2 42.142 208.932 42.7322 209.771C42.7884 209.837 42.8318 209.898 42.8637 209.953C43.272 210.504 43.8035 211.098 44.4321 211.722C45.8892 213.168 47.8682 214.776 50.0441 216.384C48.1507 211.928 50.5316 203.385 54.449 202.13C56.2664 202.987 59.4748 205.998 57.7696 211.193C56.0645 216.388 53.0642 218.077 52.0078 217.8Z" fill="#F4BAD2"/>
<path d="M62.3671 224.459C55.2808 220.302 41.2802 211.116 41.9688 207.623C42.0887 207.015 42.0286 206.421 41.8333 205.85M34.7014 200.056C32.0013 198.591 26.885 194.371 28.0202 189.22C29.1553 184.068 32.5479 189.073 34.1023 192.219L34.7014 200.056ZM34.7014 200.056C36.9389 200.938 40.9069 203.142 41.8333 205.85M44.4321 211.722C42.1078 214.129 35.5184 218.245 30.9317 213.245C32.1936 210.481 35.7401 205.519 39.8312 207.787C43.9224 210.054 43.1062 210.522 42.1867 210.473M39.4499 202.798C39.5063 199.369 40.4911 191.73 44.1962 191.447C45.4563 192.306 47.8153 195.041 47.1703 199.103C46.5253 203.166 43.3435 205.294 41.8333 205.85M50.0441 216.384C48.1507 211.928 50.5316 203.385 54.449 202.13C56.2664 202.987 59.4748 205.998 57.7696 211.193C56.0645 216.388 53.0642 218.077 52.0078 217.8M54.7808 219.698C52.9738 222.623 47.7589 228.991 41.1475 225.006C41.6356 223.057 45.7629 219.65 47.5718 219.146C50.7146 218.07 52.4109 218.385 54.7808 219.698Z" stroke="#F4BAD2"/>
<path d="M135.272 255.855C136.376 255.697 137.487 255.522 138.582 255.337C138.586 255.336 138.589 255.336 138.592 255.335C138.592 255.335 138.592 255.335 138.592 255.336C139.283 258.704 139.855 266.914 132.311 268.548C131.33 266.795 131.996 261.485 132.967 259.878C134.514 256.942 135.963 256.007 138.582 255.337C137.487 255.522 136.376 255.697 135.272 255.855C134.465 255.97 133.662 256.077 132.872 256.172C130.185 256.494 127.642 256.681 125.59 256.628C125.55 259.974 123.578 267.489 116.81 266.996C115.833 264.119 115.011 258.076 119.543 256.92C121.423 256.44 122.476 256.315 123.015 256.374C122.01 256.169 121.299 255.833 120.986 255.335C120.656 254.81 120.206 254.419 119.672 254.138C118.621 253.584 117.249 253.452 115.844 253.551C113.862 253.691 111.814 254.29 110.508 254.813C107.538 255.598 100.92 256.037 98.2133 251.51C95.5062 246.982 101.407 248.297 104.696 249.52L110.508 254.813C111.814 254.29 113.862 253.691 115.844 253.551C113.533 251.017 109.011 244.783 111.513 242.036C113.019 241.797 116.611 242.168 118.928 245.567C121.245 248.966 120.389 252.697 119.672 254.138C120.206 254.419 120.656 254.81 120.986 255.335C121.299 255.833 122.01 256.169 123.015 256.374C123.101 256.384 123.175 256.398 123.236 256.417C123.911 256.537 124.705 256.605 125.59 256.628C127.642 256.681 130.185 256.494 132.872 256.172C128.438 254.228 124.311 246.378 126.301 242.778C128.211 242.154 132.611 242.146 134.934 247.095C137.256 252.045 136.231 255.332 135.272 255.855Z" fill="#F4BAD2"/>
<path d="M147.378 253.596C139.37 255.431 122.881 258.349 120.986 255.335C120.656 254.81 120.206 254.419 119.672 254.138M110.508 254.813C107.538 255.598 100.92 256.037 98.2133 251.51C95.5062 246.982 101.407 248.297 104.696 249.52L110.508 254.813ZM110.508 254.813C112.741 253.92 117.14 252.802 119.672 254.138M125.59 256.628C125.55 259.974 123.578 267.489 116.81 266.996C115.833 264.119 115.011 258.076 119.543 256.92C124.075 255.764 123.803 256.665 123.1 257.26M115.844 253.551C113.533 251.017 109.011 244.783 111.513 242.036C113.019 241.797 116.611 242.168 118.928 245.567C121.245 248.966 120.389 252.697 119.672 254.138M132.872 256.172C128.438 254.228 124.311 246.378 126.301 242.778C128.211 242.154 132.611 242.146 134.934 247.095C137.256 252.045 136.231 255.332 135.272 255.855M138.592 255.335C139.283 258.703 139.856 266.914 132.311 268.548C131.33 266.795 131.996 261.485 132.967 259.878C134.516 256.939 135.967 256.005 138.592 255.335Z" stroke="#F4BAD2"/>
<path d="M225.295 223.608C226.093 222.828 226.886 222.031 227.661 221.235C227.663 221.232 227.665 221.23 227.667 221.227C227.667 221.227 227.668 221.228 227.668 221.228C230.215 223.538 235.526 229.825 230.403 235.599C228.576 234.764 225.977 230.085 225.811 228.215C225.326 224.933 225.943 223.322 227.661 221.235C226.886 222.031 226.093 222.828 225.295 223.608C224.712 224.177 224.127 224.738 223.545 225.281C221.568 227.128 219.626 228.781 217.939 229.95C219.883 232.674 222.73 239.903 216.978 243.502C214.49 241.758 210.257 237.367 213.232 233.757C214.466 232.26 215.242 231.536 215.712 231.266C214.779 231.694 214.007 231.843 213.461 231.626C212.884 231.397 212.29 231.348 211.693 231.436C210.518 231.609 209.333 232.313 208.257 233.224C206.741 234.507 205.442 236.2 204.697 237.393C202.764 239.781 197.683 244.044 192.825 241.989C187.966 239.935 193.505 237.511 196.881 236.555L204.697 237.393C205.442 236.2 206.741 234.507 208.257 233.224C204.896 232.544 197.564 230.184 197.961 226.489C199.035 225.407 202.153 223.585 206.03 224.959C209.908 226.334 211.421 229.85 211.693 231.436C212.29 231.348 212.884 231.397 213.461 231.626C214.007 231.843 214.779 231.694 215.712 231.266C215.787 231.223 215.854 231.191 215.915 231.17C216.53 230.869 217.211 230.454 217.939 229.95C219.626 228.781 221.568 227.128 223.545 225.281C218.82 226.331 210.853 222.434 210.332 218.354C211.506 216.723 215.051 214.117 219.849 216.739C224.646 219.362 225.76 222.62 225.295 223.608Z" fill="#F4BAD2"/>
<path d="M233.729 214.635C228.352 220.846 216.769 232.939 213.461 231.626C212.884 231.397 212.29 231.348 211.693 231.436M204.697 237.393C202.764 239.781 197.683 244.044 192.825 241.989C187.966 239.935 193.505 237.511 196.881 236.555L204.697 237.393ZM204.697 237.393C205.971 235.354 208.861 231.854 211.693 231.436M217.939 229.95C219.883 232.674 222.73 239.903 216.978 243.502C214.49 241.758 210.257 237.367 213.232 233.757C216.206 230.147 216.518 231.035 216.303 231.931M208.257 233.224C204.896 232.544 197.564 230.184 197.961 226.489C199.035 225.407 202.153 223.585 206.03 224.959C209.908 226.334 211.421 229.85 211.693 231.436M223.545 225.281C218.82 226.331 210.853 222.434 210.332 218.354C211.506 216.723 215.051 214.117 219.849 216.739C224.646 219.362 225.76 222.62 225.295 223.608M227.667 221.227C230.214 223.537 235.526 229.824 230.403 235.599C228.576 234.764 225.977 230.085 225.811 228.215C225.325 224.929 225.944 223.318 227.667 221.227Z" stroke="#F4BAD2"/>
<path d="M135.893 21.6538C134.788 21.8111 133.677 21.9853 132.582 22.1694C132.578 22.1702 132.575 22.171 132.572 22.1718C132.572 22.1716 132.572 22.1713 132.572 22.171C131.883 18.802 131.316 10.592 138.862 8.96285C139.842 10.7162 139.172 16.0261 138.2 17.6326C136.651 20.5669 135.201 21.5014 132.582 22.1694C133.677 21.9853 134.788 21.8111 135.893 21.6538C136.699 21.5389 137.502 21.4329 138.293 21.3387C140.98 21.0183 143.523 20.8327 145.575 20.887C145.617 17.5409 147.594 10.0272 154.361 10.5245C155.337 13.4021 156.155 19.4456 151.622 20.5988C149.742 21.0772 148.688 21.2021 148.15 21.1421C149.154 21.3485 149.865 21.6849 150.178 22.1829C150.507 22.708 150.958 23.099 151.492 23.3809C152.542 23.9358 153.914 24.0685 155.319 23.9701C157.301 23.8314 159.349 23.2333 160.656 22.7115C163.627 21.9282 170.244 21.4938 172.948 26.0228C175.653 30.5517 169.752 29.2332 166.464 28.0078L160.656 22.7115C159.349 23.2333 157.301 23.8314 155.319 23.9701C157.628 26.5052 162.147 32.7424 159.643 35.4882C158.137 35.7262 154.545 35.3523 152.23 31.9519C149.915 28.5515 150.773 24.8211 151.492 23.3809C150.958 23.099 150.507 22.708 150.178 22.1829C149.865 21.6849 149.154 21.3485 148.15 21.1421C148.063 21.1325 147.99 21.1181 147.929 21.0997C147.254 20.9785 146.46 20.9104 145.575 20.887C143.523 20.8327 140.98 21.0183 138.293 21.3387C142.725 23.2851 146.847 31.1378 144.855 34.7367C142.945 35.3587 138.544 35.3649 136.225 30.4135C133.906 25.4621 134.933 22.1757 135.893 21.6538Z" fill="#F4BAD2"/>
<path d="M123.785 23.9054C131.794 22.0749 148.285 19.1677 150.178 22.1829C150.507 22.708 150.958 23.099 151.492 23.3809M160.656 22.7115C163.627 21.9282 170.244 21.4938 172.948 26.0228C175.653 30.5517 169.752 29.2332 166.464 28.0078L160.656 22.7115ZM160.656 22.7115C158.423 23.6035 154.022 24.718 151.492 23.3809M145.575 20.887C145.617 17.5409 147.594 10.0272 154.361 10.5245C155.337 13.4021 156.155 19.4456 151.622 20.5988C147.089 21.752 147.362 20.8514 148.066 20.2569M155.319 23.9701C157.628 26.5052 162.147 32.7424 159.643 35.4882C158.137 35.7262 154.545 35.3523 152.23 31.9519C149.915 28.5515 150.773 24.8211 151.492 23.3809M138.293 21.3387C142.725 23.2851 146.847 31.1378 144.855 34.7367C142.945 35.3587 138.544 35.3649 136.225 30.4135C133.906 25.4621 134.933 22.1757 135.893 21.6538M132.572 22.1718C131.883 18.8033 131.315 10.5922 138.862 8.96285C139.842 10.7162 139.172 16.0261 138.2 17.6326C136.649 20.5705 135.198 21.5036 132.572 22.1718Z" stroke="#F4BAD2"/>
<path d="M225.699 53.822C224.884 53.0602 224.051 52.3037 223.221 51.5658C223.219 51.5638 223.216 51.5619 223.213 51.56C223.213 51.5597 223.214 51.5595 223.214 51.5593C225.406 48.9102 231.447 43.3213 237.447 48.1782C236.696 50.041 232.139 52.8482 230.278 53.0982C227.021 53.7313 225.384 53.1878 223.221 51.5658C224.051 52.3037 224.884 53.0602 225.699 53.822C226.294 54.3784 226.88 54.9376 227.449 55.4944C229.383 57.3866 231.122 59.2514 232.366 60.8842C235 58.8195 242.093 55.6485 245.948 61.2324C244.318 63.7966 240.123 68.2231 236.382 65.4146C234.831 64.2495 234.073 63.5073 233.782 63.05C234.251 63.9622 234.435 64.7268 234.243 65.2825C234.04 65.8684 234.018 66.4646 234.133 67.0572C234.359 68.2232 235.116 69.3753 236.074 70.4086C237.424 71.8655 239.175 73.0862 240.4 73.7769C242.873 75.6002 247.36 80.4833 245.528 85.4295C243.695 90.3757 241.023 84.9524 239.916 81.6224L240.4 73.7769C239.175 73.0862 237.424 71.8655 236.074 70.4086C235.546 73.7967 233.52 81.2274 229.812 80.9984C228.682 79.974 226.721 76.9414 227.919 73.006C229.116 69.0706 232.561 67.4004 234.133 67.0572C234.018 66.4646 234.04 65.8684 234.243 65.2825C234.435 64.7268 234.251 63.9622 233.782 63.05C233.735 62.9767 233.701 62.9108 233.677 62.8516C233.348 62.2499 232.903 61.5886 232.366 60.8842C231.122 59.2514 229.383 57.3866 227.449 55.4944C228.712 60.1678 225.178 68.3024 221.126 69.0067C219.443 67.9084 216.68 64.4841 219.083 59.5731C221.486 54.6622 224.691 53.4018 225.699 53.822Z" fill="#F4BAD2"/>
<path d="M216.354 45.8015C222.801 50.8931 235.405 61.9177 234.243 65.2824C234.04 65.8684 234.018 66.4646 234.133 67.0572M240.4 73.7769C242.873 75.6002 247.36 80.4833 245.528 85.4295C243.695 90.3757 241.023 84.9524 239.916 81.6224L240.4 73.7769ZM240.4 73.7769C238.305 72.5963 234.678 69.8672 234.133 67.0572M232.366 60.8842C235 58.8195 242.093 55.6485 245.948 61.2324C244.318 63.7966 240.123 68.2231 236.382 65.4146C232.642 62.6062 233.515 62.2544 234.419 62.4295M236.074 70.4086C235.546 73.7967 233.52 81.2274 229.812 80.9984C228.682 79.974 226.721 76.9414 227.919 73.006C229.116 69.0706 232.561 67.4004 234.133 67.0572M227.449 55.4944C228.712 60.1678 225.178 68.3024 221.126 69.0067C219.443 67.9084 216.68 64.4841 219.083 59.5731C221.486 54.6622 224.691 53.4018 225.699 53.822M223.213 51.56C225.405 48.9111 231.447 43.3209 237.447 48.1782C236.696 50.041 232.139 52.8482 230.278 53.0982C227.017 53.7321 225.38 53.1865 223.213 51.56Z" stroke="#F4BAD2"/>
<path d="M259.333 139.832C259.285 138.717 259.221 137.594 259.146 136.486C259.145 136.483 259.145 136.48 259.144 136.477C259.145 136.477 259.145 136.477 259.145 136.476C262.566 136.122 270.792 136.366 271.67 144.035C269.829 144.838 264.611 143.649 263.108 142.524C260.34 140.693 259.553 139.159 259.146 136.486C259.221 137.594 259.285 138.717 259.333 139.832C259.368 140.646 259.394 141.456 259.41 142.252C259.465 144.957 259.399 147.506 259.143 149.543C262.469 149.914 269.752 152.621 268.591 159.306C265.631 159.994 259.536 160.213 258.835 155.589C258.544 153.67 258.523 152.61 258.636 152.08C258.332 153.059 257.927 153.733 257.401 153.995C256.846 154.272 256.412 154.682 256.079 155.185C255.424 156.176 255.156 157.528 255.116 158.936C255.059 160.922 255.453 163.019 255.843 164.371C256.33 167.404 256.111 174.032 251.338 176.278C246.565 178.523 248.458 172.781 250.001 169.63L255.843 164.371C255.453 163.019 255.059 160.922 255.116 158.936C252.366 160.984 245.714 164.867 243.228 162.105C243.14 160.583 243.865 157.045 247.477 155.076C251.089 153.107 254.717 154.328 256.079 155.185C256.412 154.682 256.846 154.272 257.401 153.995C257.927 153.733 258.332 153.059 258.636 152.08C258.654 151.995 258.675 151.924 258.7 151.864C258.887 151.205 259.033 150.421 259.143 149.543C259.399 147.506 259.465 144.957 259.41 142.252C257.037 146.471 248.817 149.8 245.432 147.463C245.001 145.501 245.428 141.121 250.583 139.301C255.739 137.48 258.908 138.826 259.333 139.832Z" fill="#F4BAD2"/>
<path d="M258.284 127.562C259.317 135.712 260.587 152.409 257.401 153.995C256.846 154.272 256.412 154.682 256.079 155.185M255.843 164.371C256.33 167.404 256.111 174.032 251.338 176.278C246.565 178.523 248.458 172.781 250.001 169.63L255.843 164.371ZM255.843 164.371C255.175 162.061 254.499 157.572 256.079 155.185M259.143 149.543C262.469 149.914 269.752 152.621 268.591 159.306C265.631 159.994 259.536 160.213 258.835 155.589C258.133 150.964 259.003 151.325 259.525 152.083M255.116 158.936C252.366 160.984 245.714 164.867 243.228 162.105C243.14 160.583 243.865 157.045 247.477 155.076C251.089 153.107 254.717 154.328 256.079 155.185M259.41 142.252C257.037 146.471 248.817 149.8 245.432 147.463C245.001 145.501 245.428 141.121 250.583 139.301C255.739 137.48 258.908 138.826 259.333 139.832M259.144 136.477C262.564 136.122 270.792 136.366 271.67 144.035C269.829 144.838 264.611 143.649 263.108 142.524C260.337 140.691 259.551 139.155 259.144 136.477Z" stroke="#F4BAD2"/>
<path d="M82.1743 40.7148C89.2821 35.3014 104.018 25.1264 106.097 27.7339C106.493 27.6083 106.944 27.4719 107.431 27.3321M116.913 26.3602C115.914 25.241 110.796 26.368 107.431 27.3321M107.431 27.3321C107.808 23.9879 108.961 17.8463 110.558 20.0333M95.3913 31.5973C97.8798 33.2283 104.111 36.89 106.336 36.2865M92.4764 26.1641C90.6939 27.3416 87.3694 32.1465 88.023 36.4509" stroke="#E7D5FF"/>
<path d="M92.3869 26.187C91.3709 25.6144 90.9963 24.1896 91.6878 22.9626C92.3793 21.7357 93.7921 21.3183 94.8081 21.8909C95.8241 22.4635 96.1987 23.8883 95.5072 25.1152C94.8157 26.3422 93.4029 26.7596 92.3869 26.187Z" fill="#E7D5FF" stroke="#E7D5FF"/>
<path d="M111.037 21.3664C110.338 20.6586 110.376 19.301 111.364 18.3256C112.352 17.3502 113.71 17.3302 114.408 18.0379C115.107 18.7456 115.07 20.1033 114.082 21.0787C113.094 22.0541 111.736 22.0741 111.037 21.3664Z" fill="#E7D5FF" stroke="#E7D5FF"/>
<path d="M117.366 26.6274C116.822 25.6652 117.214 24.3234 118.379 23.6653C119.544 23.0071 120.896 23.3637 121.439 24.3259C121.983 25.2881 121.591 26.6298 120.426 27.288C119.261 27.9462 117.91 27.5896 117.366 26.6274Z" fill="#E7D5FF" stroke="#E7D5FF"/>
<path d="M106.07 35.4914C105.724 34.4934 106.428 33.1642 107.929 32.6439C109.431 32.1236 110.806 32.7324 111.152 33.7304C111.498 34.7283 110.794 36.0575 109.292 36.5779C107.791 37.0982 106.415 36.4893 106.07 35.4914Z" fill="#E7D5FF" stroke="#E7D5FF"/>
<path d="M174.833 29.1474C183.638 30.6587 201.127 34.5058 200.637 37.8042C200.998 38.0085 201.406 38.2456 201.84 38.5072M209.014 44.7826C209.152 43.2888 204.839 40.312 201.84 38.5072M201.84 38.5072C204.544 36.5034 209.824 33.1607 209.312 35.8203M190.513 32.6042C191.016 35.5368 192.584 42.5925 194.541 43.8086M192.502 26.768C190.425 26.2663 184.643 27.1087 181.939 30.5208" stroke="#E7D5FF"/>
<path d="M192.425 26.7182C192.151 25.5845 192.938 24.3393 194.307 24.009C195.677 23.6787 196.945 24.428 197.219 25.5617C197.492 26.6954 196.705 27.9407 195.336 28.271C193.967 28.6013 192.698 27.8519 192.425 26.7182Z" fill="#E7D5FF" stroke="#E7D5FF"/>
<path d="M208.663 37.0794C208.705 36.0857 209.724 35.1876 211.111 35.2457C212.498 35.3037 213.438 36.2837 213.397 37.2775C213.355 38.2712 212.336 39.1693 210.949 39.1112C209.562 39.0532 208.622 38.0731 208.663 37.0794Z" fill="#E7D5FF" stroke="#E7D5FF"/>
<path d="M209.128 45.2963C209.461 44.2427 210.71 43.615 211.986 44.0188C213.261 44.4226 213.922 45.6547 213.588 46.7083C213.255 47.7619 212.006 48.3896 210.73 47.9858C209.454 47.582 208.794 46.3499 209.128 45.2963Z" fill="#E7D5FF" stroke="#E7D5FF"/>
<path d="M194.942 43.0722C195.437 42.139 196.889 41.748 198.293 42.4922C199.697 43.2363 200.189 44.6577 199.695 45.5909C199.2 46.5241 197.748 46.9151 196.344 46.171C194.939 45.4268 194.448 44.0054 194.942 43.0722Z" fill="#E7D5FF" stroke="#E7D5FF"/>
<path d="M238.389 87.5253C244.395 94.14 255.803 107.943 253.384 110.239C253.543 110.623 253.718 111.061 253.899 111.535M255.685 120.897C256.714 119.805 255.15 114.804 253.899 111.535M253.899 111.535C257.264 111.622 263.482 112.241 261.441 114.021M248.612 99.9071C247.202 102.527 244.091 109.051 244.884 111.215M253.774 96.5347C252.447 94.8603 247.373 91.9624 243.141 92.9847" stroke="#E7D5FF"/>
<path d="M253.743 96.4478C254.226 95.3862 255.614 94.8902 256.896 95.4733C258.178 96.0565 258.715 97.4281 258.232 98.4897C257.749 99.5512 256.362 100.047 255.08 99.4641C253.798 98.881 253.261 97.5093 253.743 96.4478Z" fill="#E7D5FF" stroke="#E7D5FF"/>
<path d="M260.154 114.613C260.798 113.856 262.154 113.776 263.211 114.676C264.268 115.576 264.405 116.927 263.76 117.685C263.115 118.442 261.76 118.522 260.703 117.622C259.646 116.722 259.509 115.37 260.154 114.613Z" fill="#E7D5FF" stroke="#E7D5FF"/>
<path d="M255.458 121.372C256.37 120.747 257.74 121.022 258.497 122.126C259.253 123.23 259.014 124.607 258.102 125.231C257.19 125.856 255.82 125.581 255.064 124.477C254.308 123.373 254.546 121.996 255.458 121.372Z" fill="#E7D5FF" stroke="#E7D5FF"/>
<path d="M245.653 110.882C246.617 110.451 248.002 111.038 248.65 112.489C249.298 113.94 248.81 115.363 247.846 115.794C246.881 116.224 245.496 115.637 244.848 114.186C244.201 112.735 244.689 111.312 245.653 110.882Z" fill="#E7D5FF" stroke="#E7D5FF"/>
<path d="M252.305 176.742C249.34 185.17 242.618 201.767 239.448 200.731C239.186 201.053 238.884 201.415 238.553 201.8M231.165 207.821C232.614 208.207 236.272 204.454 238.553 201.8M238.553 201.8C240.076 204.801 242.487 210.566 239.95 209.616M246.271 191.621C243.295 191.626 236.076 191.99 234.55 193.716M251.691 194.56C252.534 192.597 252.672 186.755 249.761 183.518" stroke="#E7D5FF"/>
<path d="M251.753 194.492C252.917 194.412 254.012 195.397 254.109 196.802C254.205 198.207 253.254 199.332 252.09 199.412C250.927 199.492 249.831 198.507 249.735 197.102C249.638 195.697 250.59 194.572 251.753 194.492Z" fill="#E7D5FF" stroke="#E7D5FF"/>
<path d="M238.818 208.766C239.791 208.973 240.506 210.128 240.216 211.486C239.926 212.844 238.803 213.607 237.83 213.399C236.857 213.192 236.143 212.037 236.432 210.679C236.722 209.321 237.845 208.559 238.818 208.766Z" fill="#E7D5FF" stroke="#E7D5FF"/>
<path d="M230.639 207.847C231.622 208.352 232.032 209.689 231.42 210.879C230.808 212.068 229.483 212.513 228.5 212.008C227.517 211.502 227.108 210.166 227.719 208.976C228.331 207.786 229.657 207.341 230.639 207.847Z" fill="#E7D5FF" stroke="#E7D5FF"/>
<path d="M235.209 194.235C236.046 194.878 236.188 196.376 235.219 197.636C234.25 198.895 232.767 199.142 231.929 198.498C231.092 197.854 230.95 196.357 231.919 195.097C232.888 193.838 234.371 193.591 235.209 194.235Z" fill="#E7D5FF" stroke="#E7D5FF"/>
<path d="M97.3412 243.563C88.4492 242.691 70.7283 240.116 70.9799 236.79C70.6042 236.613 70.181 236.406 69.7285 236.176M62.1208 230.435C62.0907 231.935 66.6074 234.592 69.7285 236.176M69.7285 236.176C67.1764 238.37 62.1516 242.085 62.4698 239.395M81.4524 241.246C80.7394 238.358 78.6663 231.434 76.6262 230.362M79.8897 247.211C81.9972 247.562 87.7032 246.304 90.154 242.706" stroke="#E7D5FF"/>
<path d="M79.9704 247.255C80.325 248.366 79.6296 249.665 78.2879 250.093C76.9461 250.521 75.627 249.865 75.2724 248.754C74.9178 247.643 75.6131 246.344 76.9549 245.916C78.2966 245.488 79.6158 246.144 79.9704 247.255Z" fill="#E7D5FF" stroke="#E7D5FF"/>
<path d="M63.0263 238.092C63.0565 239.086 62.1051 240.056 60.7174 240.098C59.3298 240.14 58.3213 239.23 58.291 238.236C58.2608 237.242 59.2122 236.273 60.5999 236.231C61.9875 236.189 62.996 237.098 63.0263 238.092Z" fill="#E7D5FF" stroke="#E7D5FF"/>
<path d="M61.9706 229.931C61.7139 231.005 60.5135 231.722 59.212 231.411C57.9106 231.1 57.1632 229.919 57.4198 228.844C57.6764 227.769 58.8769 227.053 60.1783 227.364C61.4798 227.674 62.2272 228.856 61.9706 229.931Z" fill="#E7D5FF" stroke="#E7D5FF"/>
<path d="M76.2794 231.125C75.8534 232.092 74.4331 232.586 72.9788 231.945C71.5245 231.305 70.9314 229.922 71.3573 228.956C71.7832 227.989 73.2036 227.495 74.6578 228.136C76.1121 228.777 76.7053 230.159 76.2794 231.125Z" fill="#E7D5FF" stroke="#E7D5FF"/>
<path d="M190.65 242.671C182.65 246.65 166.262 253.869 164.711 250.917C164.299 250.965 163.83 251.014 163.325 251.06M153.83 250.229C154.6 251.517 159.839 251.373 163.325 251.06M163.325 251.06C162.325 254.273 160.037 260.088 158.88 257.64M175.952 249.137C173.815 247.067 168.384 242.298 166.087 242.472M177.792 255.022C179.765 254.201 183.934 250.108 184.103 245.758" stroke="#E7D5FF"/>
<path d="M177.884 255.017C178.774 255.77 178.874 257.24 177.964 258.315C177.054 259.39 175.588 259.534 174.697 258.78C173.807 258.027 173.708 256.557 174.618 255.482C175.528 254.407 176.994 254.263 177.884 255.017Z" fill="#E7D5FF" stroke="#E7D5FF"/>
<path d="M158.66 256.24C159.213 257.067 158.921 258.393 157.767 259.165C156.613 259.937 155.276 259.701 154.722 258.874C154.169 258.048 154.462 256.721 155.615 255.949C156.769 255.177 158.107 255.413 158.66 256.24Z" fill="#E7D5FF" stroke="#E7D5FF"/>
<path d="M153.435 249.882C153.788 250.929 153.15 252.173 151.882 252.6C150.614 253.027 149.354 252.423 149.001 251.375C148.648 250.328 149.286 249.084 150.554 248.657C151.822 248.23 153.082 248.834 153.435 249.882Z" fill="#E7D5FF" stroke="#E7D5FF"/>
<path d="M166.198 243.303C166.349 244.348 165.408 245.521 163.835 245.749C162.262 245.978 161.026 245.121 160.875 244.076C160.723 243.03 161.664 241.857 163.237 241.629C164.81 241.401 166.046 242.258 166.198 243.303Z" fill="#E7D5FF" stroke="#E7D5FF"/>
<path d="M31.2661 109.645C31.7377 100.723 33.5143 82.9046 36.8475 83.0066C37.0081 82.6233 37.1959 82.1912 37.4049 81.7289M42.7988 73.8709C41.2991 73.9082 38.8469 78.5397 37.4049 81.7289M37.4049 81.7289C35.0988 79.2778 31.162 74.4251 33.8631 74.6221M32.8664 93.6687C35.7201 92.8267 42.5442 90.4446 43.5232 88.3583M26.8378 92.3756C26.5822 94.4966 28.0946 100.14 31.7995 102.427" stroke="#E7D5FF"/>
<path d="M26.9813 95.1272C25.8874 95.5313 24.5586 94.895 24.0706 93.5739C23.5825 92.2527 24.1785 90.9054 25.2724 90.5013C26.3664 90.0972 27.6951 90.7334 28.1832 92.0546C28.6713 93.3757 28.0753 94.723 26.9813 95.1272Z" fill="#E7D5FF" stroke="#E7D5FF"/>
<path d="M35.3734 77.7884C34.3816 77.8632 33.3706 76.9563 33.2661 75.572C33.1616 74.1876 34.025 73.1392 35.0168 73.0644C36.0086 72.9895 37.0196 73.8964 37.1241 75.2808C37.2286 76.6651 36.3651 77.7135 35.3734 77.7884Z" fill="#E7D5FF" stroke="#E7D5FF"/>
<path d="M43.4798 76.367C42.3945 76.1589 41.6251 74.9919 41.877 73.6778C42.1289 72.3637 43.2754 71.5639 44.3608 71.772C45.4461 71.9801 46.2155 73.1472 45.9636 74.4612C45.7116 75.7753 44.5652 76.5751 43.4798 76.367Z" fill="#E7D5FF" stroke="#E7D5FF"/>
<path d="M42.9288 90.7152C41.9442 90.3331 41.3861 88.9364 41.961 87.4548C42.5359 85.9732 43.89 85.3185 44.8747 85.7006C45.8593 86.0827 46.4174 87.4794 45.8425 88.961C45.2675 90.4426 43.9134 91.0972 42.9288 90.7152Z" fill="#E7D5FF" stroke="#E7D5FF"/>
<path d="M39.2179 188.124C33.1121 181.602 21.4964 167.973 23.8798 165.64C23.7147 165.259 23.5333 164.824 23.3449 164.353M21.4172 155.019C20.4049 156.126 22.0448 161.104 23.3449 164.353M23.3449 164.353C19.9797 164.317 13.7529 163.793 15.7667 161.982M28.8081 175.899C30.1785 173.258 33.1899 166.688 32.3642 164.536M23.6981 179.35C25.0502 181.004 30.1673 183.824 34.3833 182.738" stroke="#E7D5FF"/>
<path d="M23.7298 179.436C23.2631 180.505 21.8836 181.022 20.5928 180.458C19.3021 179.895 18.7437 178.531 19.2104 177.462C19.6772 176.394 21.0567 175.877 22.3474 176.44C23.6381 177.004 24.1965 178.367 23.7298 179.436Z" fill="#E7D5FF" stroke="#E7D5FF"/>
<path d="M17.0445 161.37C16.4112 162.137 15.0568 162.238 13.9863 161.354C12.9158 160.47 12.7583 159.121 13.3916 158.354C14.0249 157.587 15.3793 157.486 16.4498 158.37C17.5203 159.254 17.6778 160.603 17.0445 161.37Z" fill="#E7D5FF" stroke="#E7D5FF"/>
<path d="M21.6371 154.541C20.7349 155.179 19.3604 154.925 18.5875 153.833C17.8147 152.741 18.0326 151.36 18.9347 150.722C19.8369 150.083 21.2114 150.337 21.9843 151.43C22.7571 152.522 22.5392 153.903 21.6371 154.541Z" fill="#E7D5FF" stroke="#E7D5FF"/>
<path d="M31.5998 164.881C30.642 165.326 29.2483 164.761 28.5785 163.319C27.9087 161.878 28.3751 160.448 29.3329 160.003C30.2906 159.558 31.6843 160.124 32.3541 161.565C33.0239 163.006 32.5576 164.436 31.5998 164.881Z" fill="#E7D5FF" stroke="#E7D5FF"/>
</svg>
