<svg width="606" height="181" viewBox="0 0 606 181" fill="none" xmlns="http://www.w3.org/2000/svg">
<path d="M43.264 2.728V49H37.12V28.712H12.864V49H6.656V2.728H12.864V22.824H37.12V2.728H43.264ZM51.3455 49L71.5695 0.807999H71.9535L92.1135 49H85.0095L69.9055 10.536L74.3215 7.656L57.4255 49H51.3455ZM63.1855 31.464H80.4015L82.4495 36.84H61.3935L63.1855 31.464ZM100.829 2.728H107.037V49H100.829V2.728ZM132.617 2.728C134.963 2.728 137.118 3.048 139.081 3.688C141.086 4.28533 142.814 5.20267 144.265 6.44C145.758 7.63467 146.91 9.128 147.721 10.92C148.574 12.6693 149.001 14.7173 149.001 17.064C149.001 18.8987 148.723 20.6907 148.169 22.44C147.657 24.1893 146.782 25.7893 145.545 27.24C144.307 28.648 142.686 29.8 140.681 30.696C138.718 31.5493 136.286 31.976 133.385 31.976H126.537V49H120.329V2.728H132.617ZM133.257 26.024C135.091 26.024 136.606 25.7467 137.801 25.192C139.038 24.6373 139.998 23.9333 140.681 23.08C141.363 22.184 141.854 21.224 142.153 20.2C142.451 19.176 142.601 18.216 142.601 17.32C142.601 16.3813 142.43 15.4213 142.089 14.44C141.79 13.416 141.278 12.4773 140.553 11.624C139.87 10.7707 138.953 10.0667 137.801 9.512C136.691 8.95733 135.326 8.68 133.705 8.68H126.537V26.024H133.257ZM140.873 29.544L152.969 49H145.801L133.513 29.736L140.873 29.544ZM206.702 10.984C205.123 10.1733 203.395 9.46933 201.518 8.872C199.641 8.27466 197.806 7.976 196.014 7.976C193.539 7.976 191.555 8.552 190.062 9.704C188.611 10.856 187.886 12.392 187.886 14.312C187.886 15.7627 188.355 17 189.294 18.024C190.233 19.0053 191.47 19.8587 193.006 20.584C194.542 21.3093 196.142 21.992 197.806 22.632C199.257 23.1867 200.686 23.8053 202.094 24.488C203.502 25.1707 204.761 26.024 205.87 27.048C207.022 28.072 207.918 29.3307 208.558 30.824C209.241 32.3173 209.582 34.1733 209.582 36.392C209.582 38.824 208.963 41.0427 207.726 43.048C206.531 45.0533 204.803 46.632 202.542 47.784C200.281 48.936 197.593 49.512 194.478 49.512C192.43 49.512 190.467 49.2773 188.59 48.808C186.755 48.3387 185.049 47.7413 183.47 47.016C181.891 46.248 180.483 45.4587 179.246 44.648L181.998 39.784C183.022 40.5093 184.195 41.2133 185.518 41.896C186.841 42.536 188.227 43.0693 189.678 43.496C191.129 43.88 192.537 44.072 193.902 44.072C195.353 44.072 196.782 43.816 198.19 43.304C199.641 42.7493 200.835 41.9173 201.774 40.808C202.713 39.6987 203.182 38.2267 203.182 36.392C203.182 34.8133 202.755 33.512 201.902 32.488C201.091 31.4213 200.003 30.5253 198.638 29.8C197.273 29.032 195.822 28.3493 194.286 27.752C192.835 27.1973 191.363 26.6 189.87 25.96C188.377 25.2773 186.99 24.4667 185.71 23.528C184.43 22.5467 183.406 21.352 182.638 19.944C181.87 18.536 181.486 16.8293 181.486 14.824C181.486 12.392 182.062 10.28 183.214 8.488C184.409 6.65333 186.03 5.224 188.078 4.2C190.126 3.13333 192.473 2.55733 195.118 2.472C198.105 2.472 200.729 2.83466 202.99 3.56C205.294 4.28533 207.321 5.18133 209.07 6.248L206.702 10.984ZM215.408 49L235.632 0.807999H236.016L256.176 49H249.072L233.968 10.536L238.384 7.656L221.488 49H215.408ZM227.248 31.464H244.464L246.512 36.84H225.456L227.248 31.464ZM264.891 2.728H271.099V43.048H294.587V49H264.891V2.728ZM299.668 25.896C299.668 22.696 300.266 19.688 301.46 16.872C302.698 14.0133 304.404 11.496 306.58 9.32C308.756 7.10133 311.252 5.37333 314.068 4.136C316.927 2.856 319.999 2.216 323.284 2.216C326.527 2.216 329.556 2.856 332.372 4.136C335.231 5.37333 337.748 7.10133 339.924 9.32C342.143 11.496 343.871 14.0133 345.108 16.872C346.346 19.688 346.964 22.696 346.964 25.896C346.964 29.1813 346.346 32.2533 345.108 35.112C343.871 37.9707 342.143 40.488 339.924 42.664C337.748 44.7973 335.231 46.4827 332.372 47.72C329.556 48.9147 326.527 49.512 323.284 49.512C319.999 49.512 316.927 48.9147 314.068 47.72C311.252 46.5253 308.756 44.8613 306.58 42.728C304.404 40.5947 302.698 38.0987 301.46 35.24C300.266 32.3813 299.668 29.2667 299.668 25.896ZM306.068 25.96C306.068 28.392 306.516 30.6747 307.412 32.808C308.308 34.8987 309.546 36.7547 311.124 38.376C312.703 39.9973 314.538 41.2773 316.628 42.216C318.719 43.112 320.98 43.56 323.412 43.56C325.802 43.56 328.042 43.112 330.132 42.216C332.223 41.2773 334.036 39.9973 335.572 38.376C337.108 36.7547 338.324 34.8987 339.22 32.808C340.116 30.6747 340.564 28.3707 340.564 25.896C340.564 23.464 340.116 21.1813 339.22 19.048C338.324 16.872 337.087 14.9733 335.508 13.352C333.93 11.7307 332.095 10.472 330.004 9.576C327.914 8.63733 325.674 8.168 323.284 8.168C320.852 8.168 318.591 8.63733 316.5 9.576C314.41 10.5147 312.575 11.7947 310.996 13.416C309.418 15.0373 308.202 16.936 307.348 19.112C306.495 21.2453 306.068 23.528 306.068 25.96ZM396.848 50.472L361.072 14.184L362.864 14.632L362.992 49H356.784V1.32H357.104L392.496 37.736L391.024 37.416L390.896 2.728H397.04V50.472H396.848Z" fill="#BD68A1"/>
<path d="M52.58 88.66C49.8667 87.2667 46.8967 86.0567 43.67 85.03C40.4433 84.0033 37.29 83.49 34.21 83.49C29.9567 83.49 26.5467 84.48 23.98 86.46C21.4867 88.44 20.24 91.08 20.24 94.38C20.24 96.8733 21.0467 99 22.66 100.76C24.2733 102.447 26.4 103.913 29.04 105.16C31.68 106.407 34.43 107.58 37.29 108.68C39.7833 109.633 42.24 110.697 44.66 111.87C47.08 113.043 49.2433 114.51 51.15 116.27C53.13 118.03 54.67 120.193 55.77 122.76C56.9433 125.327 57.53 128.517 57.53 132.33C57.53 136.51 56.4667 140.323 54.34 143.77C52.2867 147.217 49.3167 149.93 45.43 151.91C41.5433 153.89 36.9233 154.88 31.57 154.88C28.05 154.88 24.6767 154.477 21.45 153.67C18.2967 152.863 15.3633 151.837 12.65 150.59C9.93667 149.27 7.51667 147.913 5.39 146.52L10.12 138.16C11.88 139.407 13.8967 140.617 16.17 141.79C18.4433 142.89 20.8267 143.807 23.32 144.54C25.8133 145.2 28.2333 145.53 30.58 145.53C33.0733 145.53 35.53 145.09 37.95 144.21C40.4433 143.257 42.4967 141.827 44.11 139.92C45.7233 138.013 46.53 135.483 46.53 132.33C46.53 129.617 45.7967 127.38 44.33 125.62C42.9367 123.787 41.0667 122.247 38.72 121C36.3733 119.68 33.88 118.507 31.24 117.48C28.7467 116.527 26.2167 115.5 23.65 114.4C21.0833 113.227 18.7 111.833 16.5 110.22C14.3 108.533 12.54 106.48 11.22 104.06C9.9 101.64 9.24 98.7067 9.24 95.26C9.24 91.08 10.23 87.45 12.21 84.37C14.2633 81.2167 17.05 78.76 20.57 77C24.09 75.1667 28.1233 74.1767 32.67 74.03C37.8033 74.03 42.3133 74.6533 46.2 75.9C50.16 77.1467 53.6433 78.6867 56.65 80.52L52.58 88.66ZM67.7634 74.47H119.463V84.7H78.4334V108.9H115.063V119.13H78.4334V143.77H121.003V154H67.7634V74.47ZM154.041 74.47C158.075 74.47 161.778 75.02 165.151 76.12C168.598 77.1467 171.568 78.7233 174.061 80.85C176.628 82.9033 178.608 85.47 180.001 88.55C181.468 91.5567 182.201 95.0767 182.201 99.11C182.201 102.263 181.725 105.343 180.771 108.35C179.891 111.357 178.388 114.107 176.261 116.6C174.135 119.02 171.348 121 167.901 122.54C164.528 124.007 160.348 124.74 155.361 124.74H143.591V154H132.921V74.47H154.041ZM155.141 114.51C158.295 114.51 160.898 114.033 162.951 113.08C165.078 112.127 166.728 110.917 167.901 109.45C169.075 107.91 169.918 106.26 170.431 104.5C170.945 102.74 171.201 101.09 171.201 99.55C171.201 97.9367 170.908 96.2867 170.321 94.6C169.808 92.84 168.928 91.2267 167.681 89.76C166.508 88.2933 164.931 87.0833 162.951 86.13C161.045 85.1767 158.698 84.7 155.911 84.7H143.591V114.51H155.141ZM168.231 120.56L189.021 154H176.701L155.581 120.89L168.231 120.56ZM197.731 74.47H249.431V84.7H208.401V108.9H245.031V119.13H208.401V143.77H250.971V154H197.731V74.47ZM332.849 156.53L271.359 94.16L274.439 94.93L274.659 154H263.989V72.05H264.539L325.369 134.64L322.839 134.09L322.619 74.47H333.179V156.53H332.849ZM347.249 74.47H398.949V84.7H357.919V108.9H394.549V119.13H357.919V143.77H400.489V154H347.249V74.47ZM413.507 74.47H424.177V143.77H464.547V154H413.507V74.47ZM474.235 74.47H484.905V143.77H525.275V154H474.235V74.47ZM531.443 154L566.203 71.17H566.863L601.513 154H589.303L563.343 87.89L570.933 82.94L541.893 154H531.443ZM551.793 123.86H581.383L584.903 133.1H548.713L551.793 123.86Z" fill="#BD68A1"/>
</svg>
