<svg width="700" height="175" viewBox="0 0 700 175" fill="none" xmlns="http://www.w3.org/2000/svg">
<path d="M41.664 23.6V62H32.512V23.6H41.664ZM15.616 23.6V62H6.4V23.6H15.616ZM33.024 41.584V44.144H15.04V41.584H33.024ZM6.592 57.968V62H2.176V61.36C2.176 61.36 2.28267 61.36 2.496 61.36C2.752 61.36 2.90133 61.36 2.944 61.36C3.88267 61.36 4.69333 61.04 5.376 60.4C6.05867 59.7173 6.4 58.9067 6.4 57.968H6.592ZM15.488 57.968H15.616C15.6587 58.9067 16.0213 59.7173 16.704 60.4C17.3867 61.04 18.1973 61.36 19.136 61.36C19.136 61.36 19.2427 61.36 19.456 61.36C19.712 61.36 19.84 61.36 19.84 61.36V62H15.488V57.968ZM15.488 27.632V23.6H19.84V24.24C19.84 24.24 19.712 24.24 19.456 24.24C19.2427 24.24 19.136 24.24 19.136 24.24C18.1973 24.24 17.3867 24.56 16.704 25.2C16.0213 25.84 15.6587 26.6507 15.616 27.632H15.488ZM6.592 27.632H6.4C6.4 26.6507 6.05867 25.84 5.376 25.2C4.69333 24.56 3.88267 24.24 2.944 24.24C2.90133 24.24 2.752 24.24 2.496 24.24C2.28267 24.24 2.176 24.24 2.176 24.24V23.6H6.592V27.632ZM32.64 57.968V62H28.288V61.36C28.288 61.36 28.3947 61.36 28.608 61.36C28.864 61.36 28.992 61.36 28.992 61.36C29.9307 61.36 30.7413 61.04 31.424 60.4C32.1067 59.7173 32.448 58.9067 32.448 57.968H32.64ZM41.472 57.968H41.664C41.7067 58.9067 42.048 59.7173 42.688 60.4C43.3707 61.04 44.2027 61.36 45.184 61.36C45.184 61.36 45.2907 61.36 45.504 61.36C45.76 61.36 45.888 61.36 45.888 61.36V62H41.472V57.968ZM41.536 27.632V23.6H45.952V24.24C45.952 24.24 45.824 24.24 45.568 24.24C45.312 24.24 45.184 24.24 45.184 24.24C44.2027 24.24 43.3707 24.56 42.688 25.2C42.048 25.84 41.728 26.6507 41.728 27.632H41.536ZM32.64 27.632H32.448C32.448 26.6507 32.1067 25.84 31.424 25.2C30.7413 24.56 29.9307 24.24 28.992 24.24C28.992 24.24 28.864 24.24 28.608 24.24C28.3947 24.24 28.288 24.24 28.288 24.24V23.6H32.64V27.632ZM68.4785 21.872L87.4225 61.68H76.6065L64.7025 33.584L68.4785 21.872ZM56.4465 57.776C55.9772 58.928 56.0412 59.824 56.6385 60.464C57.2358 61.0613 57.8972 61.36 58.6225 61.36H59.1345V62H46.3345V61.36C46.3345 61.36 46.4198 61.36 46.5905 61.36C46.7612 61.36 46.8465 61.36 46.8465 61.36C47.6998 61.36 48.5958 61.104 49.5345 60.592C50.4732 60.0373 51.2412 59.0987 51.8385 57.776H56.4465ZM68.4785 21.872L68.6065 29.552L54.7185 61.808H49.9825L64.9585 29.616C65.0438 29.36 65.2358 28.912 65.5345 28.272C65.8332 27.5893 66.1532 26.8427 66.4945 26.032C66.8358 25.1787 67.1558 24.3893 67.4545 23.664C67.7532 22.896 67.9238 22.2987 67.9665 21.872H68.4785ZM74.0465 49.456V51.952H57.7265V49.456H74.0465ZM75.0065 57.776H85.5665C86.2065 59.0987 86.9958 60.0373 87.9345 60.592C88.8732 61.104 89.7692 61.36 90.6225 61.36C90.6225 61.36 90.7078 61.36 90.8785 61.36C91.0492 61.36 91.1345 61.36 91.1345 61.36V62H72.3185V61.36H72.8305C73.5558 61.36 74.2172 61.0613 74.8145 60.464C75.4118 59.824 75.4758 58.928 75.0065 57.776ZM108.962 23.6V62H99.746V23.6H108.962ZM99.938 57.968V62H95.266V61.36C95.266 61.36 95.394 61.36 95.65 61.36C95.906 61.36 96.0553 61.36 96.098 61.36C97.0793 61.36 97.9327 61.04 98.658 60.4C99.3833 59.7173 99.746 58.9067 99.746 57.968H99.938ZM108.834 57.968H108.962C109.005 58.9067 109.367 59.7173 110.05 60.4C110.775 61.04 111.65 61.36 112.674 61.36C112.674 61.36 112.781 61.36 112.994 61.36C113.25 61.36 113.399 61.36 113.442 61.36V62H108.834V57.968ZM108.834 27.632V23.6H113.442L113.378 24.24C113.378 24.24 113.271 24.24 113.058 24.24C112.845 24.24 112.717 24.24 112.674 24.24C111.65 24.24 110.775 24.56 110.05 25.2C109.367 25.84 109.005 26.6507 108.962 27.632H108.834ZM99.938 27.632H99.746C99.746 26.6507 99.3833 25.84 98.658 25.2C97.9327 24.56 97.058 24.24 96.034 24.24C96.034 24.24 95.906 24.24 95.65 24.24C95.394 24.24 95.266 24.24 95.266 24.24V23.6H99.938V27.632ZM132.559 23.6H139.471C141.22 23.6 142.927 23.792 144.591 24.176C146.255 24.5173 147.748 25.0933 149.071 25.904C150.394 26.672 151.439 27.7387 152.207 29.104C153.018 30.4267 153.423 32.0907 153.423 34.096C153.423 35.5893 153.103 37.0827 152.463 38.576C151.866 40.0267 150.906 41.2853 149.583 42.352C148.303 43.4187 146.618 44.1227 144.527 44.464C145.764 44.848 146.938 45.5947 148.047 46.704C149.199 47.8133 150.095 48.8587 150.735 49.84C150.906 50.1813 151.204 50.736 151.631 51.504C152.058 52.2293 152.591 53.0827 153.231 54.064C153.914 55.0027 154.618 55.984 155.343 57.008C156.196 58.16 156.943 59.056 157.583 59.696C158.223 60.2933 158.884 60.72 159.567 60.976C160.25 61.232 161.039 61.36 161.935 61.36V62H156.559C154.255 62 152.292 61.8293 150.671 61.488C149.092 61.1467 147.706 60.528 146.511 59.632C145.359 58.6933 144.292 57.4347 143.311 55.856C142.927 55.3013 142.522 54.64 142.095 53.872C141.668 53.0613 141.242 52.2507 140.815 51.44C140.388 50.6293 140.004 49.84 139.663 49.072C139.364 48.304 139.151 47.664 139.023 47.152C138.468 45.7867 137.828 44.8053 137.103 44.208C136.42 43.568 135.78 43.248 135.183 43.248V42.672C135.183 42.672 135.332 42.672 135.631 42.672C135.93 42.672 136.314 42.672 136.783 42.672C137.679 42.672 138.554 42.5227 139.407 42.224C140.303 41.8827 141.114 41.264 141.839 40.368C142.564 39.4293 143.098 38.064 143.439 36.272C143.524 36.016 143.588 35.6533 143.631 35.184C143.716 34.7147 143.738 34.1813 143.695 33.584C143.61 32.0053 143.311 30.7467 142.799 29.808C142.33 28.8267 141.732 28.1013 141.007 27.632C140.282 27.12 139.535 26.7787 138.767 26.608C138.042 26.3947 137.402 26.288 136.847 26.288C136.036 26.2453 135.29 26.2453 134.607 26.288C133.967 26.288 133.476 26.2667 133.135 26.224C133.092 26.224 133.028 26.0107 132.943 25.584C132.858 25.1147 132.772 24.6667 132.687 24.24C132.602 23.8133 132.559 23.6 132.559 23.6ZM133.199 23.6V62H123.919V23.6H133.199ZM124.111 57.968L124.367 62H119.759V61.36C119.802 61.36 119.908 61.36 120.079 61.36C120.292 61.36 120.442 61.36 120.527 61.36C121.466 61.36 122.255 61.04 122.895 60.4C123.578 59.7173 123.94 58.9067 123.983 57.968H124.111ZM124.111 27.568H123.983C123.94 26.5867 123.578 25.7973 122.895 25.2C122.255 24.56 121.487 24.24 120.591 24.24C120.463 24.24 120.292 24.24 120.079 24.24C119.908 24.24 119.802 24.24 119.759 24.24V23.6H124.367L124.111 27.568ZM133.071 57.968H133.199C133.199 59.0347 133.562 59.8667 134.287 60.464C135.055 61.0613 135.866 61.36 136.719 61.36C136.719 61.36 136.804 61.36 136.975 61.36C137.146 61.36 137.274 61.36 137.359 61.36V62H132.751L133.071 57.968ZM196.252 22.768C197.105 22.768 198.129 22.8107 199.324 22.896C200.561 22.9813 201.777 23.088 202.972 23.216C204.167 23.3013 205.212 23.4293 206.108 23.6C207.047 23.728 207.687 23.856 208.028 23.984L207.196 31.792H206.62C206.62 29.8293 205.937 28.272 204.572 27.12C203.207 25.968 201.244 25.392 198.684 25.392C196.636 25.392 194.972 25.84 193.692 26.736C192.455 27.632 191.793 28.8267 191.708 30.32C191.623 31.088 191.751 31.792 192.092 32.432C192.476 33.0293 192.988 33.5627 193.628 34.032C194.311 34.5013 195.057 34.9707 195.868 35.44L205.916 41.648C207.623 42.5013 208.967 43.7387 209.948 45.36C210.929 46.9813 211.356 48.944 211.228 51.248C211.1 53.6373 210.396 55.7067 209.116 57.456C207.879 59.2053 206.151 60.5493 203.932 61.488C201.756 62.384 199.175 62.832 196.188 62.832C194.353 62.832 192.647 62.6827 191.068 62.384C189.489 62.0853 188.124 61.68 186.972 61.168C185.863 60.656 185.009 60.08 184.412 59.44C184.071 58.5867 183.921 57.5627 183.964 56.368C184.007 55.1307 184.199 53.9147 184.54 52.72C184.881 51.4827 185.308 50.4587 185.82 49.648H186.332C186.204 51.568 186.545 53.3387 187.356 54.96C188.209 56.5813 189.447 57.8827 191.068 58.864C192.689 59.8027 194.631 60.272 196.892 60.272C199.367 60.272 201.223 59.696 202.46 58.544C203.697 57.392 204.316 56.048 204.316 54.512C204.316 53.36 203.932 52.336 203.164 51.44C202.439 50.5013 201.223 49.584 199.516 48.688L190.428 42.928C188.295 41.8187 186.737 40.3467 185.756 38.512C184.817 36.6773 184.476 34.672 184.732 32.496C184.945 30.448 185.543 28.6987 186.524 27.248C187.548 25.7973 188.892 24.688 190.556 23.92C192.22 23.152 194.119 22.768 196.252 22.768ZM208.028 23.344L207.964 24.496H201.116V23.344H208.028ZM234.639 21.872L253.583 61.68H242.767L230.863 33.584L234.639 21.872ZM222.607 57.776C222.137 58.928 222.201 59.824 222.799 60.464C223.396 61.0613 224.057 61.36 224.783 61.36H225.295V62H212.495V61.36C212.495 61.36 212.58 61.36 212.751 61.36C212.921 61.36 213.007 61.36 213.007 61.36C213.86 61.36 214.756 61.104 215.695 60.592C216.633 60.0373 217.401 59.0987 217.999 57.776H222.607ZM234.639 21.872L234.767 29.552L220.879 61.808H216.143L231.119 29.616C231.204 29.36 231.396 28.912 231.695 28.272C231.993 27.5893 232.313 26.8427 232.655 26.032C232.996 25.1787 233.316 24.3893 233.615 23.664C233.913 22.896 234.084 22.2987 234.127 21.872H234.639ZM240.207 49.456V51.952H223.887V49.456H240.207ZM241.167 57.776H251.727C252.367 59.0987 253.156 60.0373 254.095 60.592C255.033 61.104 255.929 61.36 256.783 61.36C256.783 61.36 256.868 61.36 257.039 61.36C257.209 61.36 257.295 61.36 257.295 61.36V62H238.479V61.36H238.991C239.716 61.36 240.377 61.0613 240.975 60.464C241.572 59.824 241.636 58.928 241.167 57.776ZM273.65 23.6V62H264.434V23.6H273.65ZM288.562 59.44L290.098 62H273.522V59.44H288.562ZM292.786 50.224L290.29 62H279.218L281.202 59.44C283.037 59.44 284.658 59.0773 286.066 58.352C287.517 57.584 288.754 56.5173 289.778 55.152C290.802 53.744 291.591 52.1013 292.146 50.224H292.786ZM264.562 57.968L264.882 62H260.146V61.36C260.146 61.36 260.274 61.36 260.53 61.36C260.786 61.36 260.935 61.36 260.978 61.36C261.917 61.36 262.706 61.04 263.346 60.4C264.029 59.7173 264.391 58.9067 264.434 57.968H264.562ZM273.522 27.632V23.6H277.938V24.24C277.895 24.24 277.746 24.24 277.49 24.24C277.277 24.24 277.17 24.24 277.17 24.24C276.231 24.24 275.421 24.56 274.738 25.2C274.055 25.84 273.693 26.6507 273.65 27.632H273.522ZM264.562 27.632H264.434C264.391 26.6507 264.029 25.84 263.346 25.2C262.663 24.56 261.853 24.24 260.914 24.24C260.871 24.24 260.722 24.24 260.466 24.24C260.253 24.24 260.146 24.24 260.146 24.24V23.6H264.562V27.632ZM319.254 22.768C322.668 22.768 325.761 23.2373 328.534 24.176C331.308 25.072 333.697 26.3947 335.702 28.144C337.708 29.8933 339.244 32.0053 340.31 34.48C341.42 36.9547 341.974 39.7493 341.974 42.864C341.974 45.936 341.42 48.7093 340.31 51.184C339.244 53.616 337.708 55.7067 335.702 57.456C333.697 59.2053 331.308 60.5493 328.534 61.488C325.761 62.384 322.668 62.832 319.254 62.832C315.884 62.832 312.812 62.384 310.038 61.488C307.265 60.5493 304.876 59.2053 302.87 57.456C300.865 55.7067 299.329 53.616 298.262 51.184C297.196 48.7093 296.662 45.936 296.662 42.864C296.662 39.7493 297.196 36.9547 298.262 34.48C299.329 32.0053 300.865 29.8933 302.87 28.144C304.876 26.3947 307.265 25.072 310.038 24.176C312.812 23.2373 315.884 22.768 319.254 22.768ZM319.254 60.336C321.857 60.336 324.118 59.632 326.038 58.224C328.001 56.7733 329.494 54.7467 330.518 52.144C331.585 49.5413 332.118 46.448 332.118 42.864C332.118 39.2373 331.585 36.1227 330.518 33.52C329.494 30.8747 328.001 28.848 326.038 27.44C324.118 25.9893 321.857 25.264 319.254 25.264C316.694 25.264 314.454 25.9893 312.534 27.44C310.614 28.848 309.121 30.8747 308.054 33.52C306.988 36.1227 306.454 39.2373 306.454 42.864C306.454 46.448 306.988 49.5413 308.054 52.144C309.121 54.7467 310.614 56.7733 312.534 58.224C314.454 59.632 316.694 60.336 319.254 60.336ZM349.371 22.704L386.939 55.728L387.579 62.832L350.075 29.808L349.371 22.704ZM349.627 58.096V62H344.891V61.36C344.891 61.36 345.062 61.36 345.403 61.36C345.745 61.36 345.915 61.36 345.915 61.36C346.897 61.36 347.729 61.0613 348.411 60.464C349.094 59.824 349.435 59.0347 349.435 58.096H349.627ZM358.203 58.096C358.246 59.0347 358.609 59.824 359.291 60.464C359.974 61.0613 360.785 61.36 361.723 61.36C361.723 61.36 361.894 61.36 362.235 61.36C362.619 61.36 362.811 61.36 362.811 61.36V62H358.075V58.096H358.203ZM349.371 22.704L358.203 32.304V62H349.435V30C349.435 27.824 349.329 26.0747 349.115 24.752C348.902 23.3867 348.795 22.704 348.795 22.704H349.371ZM387.515 23.6V55.344C387.515 56.8373 387.558 58.16 387.643 59.312C387.771 60.4213 387.878 61.296 387.963 61.936C388.091 62.5333 388.155 62.832 388.155 62.832H387.579L378.747 52.656V23.6H387.515ZM387.323 27.504V23.6H392.123V24.24C392.123 24.24 391.931 24.24 391.547 24.24C391.206 24.24 391.035 24.24 391.035 24.24C390.097 24.24 389.265 24.56 388.539 25.2C387.857 25.7973 387.515 26.5653 387.515 27.504H387.323ZM378.747 27.504C378.705 26.5653 378.342 25.7973 377.659 25.2C377.019 24.56 376.209 24.24 375.227 24.24C375.227 24.24 375.035 24.24 374.651 24.24C374.31 24.24 374.139 24.24 374.139 24.24V23.6H378.875V27.504H378.747Z" fill="#BD68A1"/>
<path d="M30.464 89.3402C32.1707 89.3402 34.2187 89.4255 36.608 89.5962C39.0827 89.7669 41.5147 89.9802 43.904 90.2362C46.2933 90.4069 48.384 90.6629 50.176 91.0042C52.0533 91.2602 53.3333 91.5162 54.016 91.7722L52.352 107.388H51.2C51.2 103.463 49.8347 100.348 47.104 98.0442C44.3733 95.7402 40.448 94.5882 35.328 94.5882C31.232 94.5882 27.904 95.4842 25.344 97.2762C22.8693 99.0682 21.5467 101.458 21.376 104.444C21.2053 105.98 21.4613 107.388 22.144 108.668C22.912 109.863 23.936 110.93 25.216 111.868C26.5813 112.807 28.0747 113.746 29.696 114.684L49.792 127.1C53.2053 128.807 55.8933 131.282 57.856 134.524C59.8187 137.767 60.672 141.692 60.416 146.3C60.16 151.079 58.752 155.218 56.192 158.716C53.7173 162.215 50.2613 164.903 45.824 166.78C41.472 168.572 36.3093 169.468 30.336 169.468C26.6667 169.468 23.2533 169.17 20.096 168.572C16.9387 167.975 14.208 167.164 11.904 166.14C9.68533 165.116 7.97867 163.964 6.784 162.684C6.10133 160.978 5.80267 158.93 5.888 156.54C5.97333 154.066 6.35733 151.634 7.04 149.244C7.72267 146.77 8.576 144.722 9.6 143.1H10.624C10.368 146.94 11.0507 150.482 12.672 153.724C14.3787 156.967 16.8533 159.57 20.096 161.532C23.3387 163.41 27.2213 164.348 31.744 164.348C36.6933 164.348 40.4053 163.196 42.88 160.892C45.3547 158.588 46.592 155.9 46.592 152.828C46.592 150.524 45.824 148.476 44.288 146.684C42.8373 144.807 40.4053 142.972 36.992 141.18L18.816 129.66C14.5493 127.442 11.4347 124.498 9.472 120.828C7.59467 117.159 6.912 113.148 7.424 108.796C7.85067 104.7 9.04533 101.202 11.008 98.3002C13.056 95.3989 15.744 93.1802 19.072 91.6442C22.4 90.1082 26.1973 89.3402 30.464 89.3402ZM54.016 90.4922L53.888 92.7962H40.192V90.4922H54.016ZM95.205 91.0042V167.804H76.773V91.0042H95.205ZM125.157 162.684L128.101 167.804H94.949V162.684H125.157ZM120.805 127.228V132.348H94.949V127.228H120.805ZM126.565 91.0042V96.1242H94.949V91.0042H126.565ZM133.349 144.252L128.485 167.804H106.341L110.309 162.684C113.978 162.684 117.221 161.959 120.037 160.508C122.938 158.972 125.413 156.839 127.461 154.108C129.509 151.292 131.088 148.007 132.197 144.252H133.349ZM120.805 132.092V143.356H119.525V142.332C119.525 139.516 118.629 137.17 116.837 135.292C115.13 133.415 112.784 132.434 109.797 132.348V132.092H120.805ZM120.805 116.22V127.484H109.797V127.228C112.784 127.143 115.13 126.162 116.837 124.284C118.629 122.322 119.525 119.932 119.525 117.116V116.22H120.805ZM126.565 95.8682V109.436H125.285V108.284C125.285 104.53 124.261 101.586 122.213 99.4522C120.25 97.3189 117.392 96.2095 113.637 96.1242V95.8682H126.565ZM126.565 89.0842V92.1562L113.125 91.0042C115.6 91.0042 118.202 90.7909 120.933 90.3642C123.664 89.8522 125.541 89.4255 126.565 89.0842ZM77.029 159.74L77.669 167.804H68.197V166.524C68.197 166.524 68.453 166.524 68.965 166.524C69.477 166.524 69.7757 166.524 69.861 166.524C71.7383 166.524 73.317 165.884 74.597 164.604C75.9623 163.239 76.6877 161.618 76.773 159.74H77.029ZM77.029 99.0682H76.773C76.6877 97.1055 75.9623 95.4842 74.597 94.2042C73.317 92.9242 71.7383 92.2842 69.861 92.2842C69.7757 92.2842 69.477 92.2842 68.965 92.2842C68.453 92.2842 68.197 92.2842 68.197 92.2842V91.0042H77.669L77.029 99.0682ZM166.443 91.0042H180.267C183.766 91.0042 187.179 91.3882 190.507 92.1562C193.835 92.8389 196.822 93.9909 199.467 95.6122C202.112 97.1482 204.203 99.2815 205.739 102.012C207.36 104.658 208.171 107.986 208.171 111.996C208.171 114.983 207.531 117.97 206.251 120.956C205.056 123.858 203.136 126.375 200.491 128.508C197.931 130.642 194.56 132.05 190.379 132.732C192.854 133.5 195.2 134.994 197.419 137.212C199.723 139.431 201.515 141.522 202.795 143.484C203.136 144.167 203.734 145.276 204.587 146.812C205.44 148.263 206.507 149.97 207.787 151.932C209.152 153.81 210.56 155.772 212.011 157.82C213.718 160.124 215.211 161.916 216.491 163.196C217.771 164.391 219.094 165.244 220.459 165.756C221.824 166.268 223.403 166.524 225.195 166.524V167.804H214.443C209.835 167.804 205.91 167.463 202.667 166.78C199.51 166.098 196.736 164.86 194.347 163.068C192.043 161.191 189.91 158.674 187.947 155.516C187.179 154.407 186.368 153.084 185.515 151.548C184.662 149.927 183.808 148.306 182.955 146.684C182.102 145.063 181.334 143.484 180.651 141.948C180.054 140.412 179.627 139.132 179.371 138.108C178.262 135.378 176.982 133.415 175.531 132.22C174.166 130.94 172.886 130.3 171.691 130.3V129.148C171.691 129.148 171.99 129.148 172.587 129.148C173.184 129.148 173.952 129.148 174.891 129.148C176.683 129.148 178.432 128.85 180.139 128.252C181.931 127.57 183.552 126.332 185.003 124.54C186.454 122.663 187.52 119.932 188.203 116.348C188.374 115.836 188.502 115.111 188.587 114.172C188.758 113.234 188.8 112.167 188.715 110.972C188.544 107.815 187.947 105.298 186.923 103.42C185.984 101.458 184.79 100.007 183.339 99.0682C181.888 98.0442 180.395 97.3615 178.859 97.0202C177.408 96.5935 176.128 96.3802 175.019 96.3802C173.398 96.2949 171.904 96.2949 170.539 96.3802C169.259 96.3802 168.278 96.3375 167.595 96.2522C167.51 96.2522 167.382 95.8255 167.211 94.9722C167.04 94.0335 166.87 93.1375 166.699 92.2842C166.528 91.4309 166.443 91.0042 166.443 91.0042ZM167.723 91.0042V167.804H149.163V91.0042H167.723ZM149.547 159.74L150.059 167.804H140.843V166.524C140.928 166.524 141.142 166.524 141.483 166.524C141.91 166.524 142.208 166.524 142.379 166.524C144.256 166.524 145.835 165.884 147.115 164.604C148.48 163.239 149.206 161.618 149.291 159.74H149.547ZM149.547 98.9402H149.291C149.206 96.9775 148.48 95.3989 147.115 94.2042C145.835 92.9242 144.299 92.2842 142.507 92.2842C142.251 92.2842 141.91 92.2842 141.483 92.2842C141.142 92.2842 140.928 92.2842 140.843 92.2842V91.0042H150.059L149.547 98.9402ZM167.467 159.74H167.723C167.723 161.874 168.448 163.538 169.899 164.732C171.435 165.927 173.056 166.524 174.763 166.524C174.763 166.524 174.934 166.524 175.275 166.524C175.616 166.524 175.872 166.524 176.043 166.524V167.804H166.827L167.467 159.74ZM249.925 91.0042V167.804H231.493V91.0042H249.925ZM279.877 162.684L282.821 167.804H249.669V162.684H279.877ZM275.525 127.228V132.348H249.669V127.228H275.525ZM281.285 91.0042V96.1242H249.669V91.0042H281.285ZM288.069 144.252L283.205 167.804H261.061L265.029 162.684C268.698 162.684 271.941 161.959 274.757 160.508C277.658 158.972 280.133 156.839 282.181 154.108C284.229 151.292 285.808 148.007 286.917 144.252H288.069ZM275.525 132.092V143.356H274.245V142.332C274.245 139.516 273.349 137.17 271.557 135.292C269.85 133.415 267.504 132.434 264.517 132.348V132.092H275.525ZM275.525 116.22V127.484H264.517V127.228C267.504 127.143 269.85 126.162 271.557 124.284C273.349 122.322 274.245 119.932 274.245 117.116V116.22H275.525ZM281.285 95.8682V109.436H280.005V108.284C280.005 104.53 278.981 101.586 276.933 99.4522C274.97 97.3189 272.112 96.2095 268.357 96.1242V95.8682H281.285ZM281.285 89.0842V92.1562L267.845 91.0042C270.32 91.0042 272.922 90.7909 275.653 90.3642C278.384 89.8522 280.261 89.4255 281.285 89.0842ZM231.749 159.74L232.389 167.804H222.917V166.524C222.917 166.524 223.173 166.524 223.685 166.524C224.197 166.524 224.496 166.524 224.581 166.524C226.458 166.524 228.037 165.884 229.317 164.604C230.682 163.239 231.408 161.618 231.493 159.74H231.749ZM231.749 99.0682H231.493C231.408 97.1055 230.682 95.4842 229.317 94.2042C228.037 92.9242 226.458 92.2842 224.581 92.2842C224.496 92.2842 224.197 92.2842 223.685 92.2842C223.173 92.2842 222.917 92.2842 222.917 92.2842V91.0042H232.389L231.749 99.0682ZM298.623 89.2122L373.759 155.26L375.039 169.468L300.031 103.42L298.623 89.2122ZM299.135 159.996V167.804H289.663V166.524C289.663 166.524 290.004 166.524 290.687 166.524C291.37 166.524 291.711 166.524 291.711 166.524C293.674 166.524 295.338 165.927 296.703 164.732C298.068 163.452 298.751 161.874 298.751 159.996H299.135ZM316.287 159.996C316.372 161.874 317.098 163.452 318.463 164.732C319.828 165.927 321.45 166.524 323.327 166.524C323.327 166.524 323.668 166.524 324.351 166.524C325.119 166.524 325.503 166.524 325.503 166.524V167.804H316.031V159.996H316.287ZM298.623 89.2122L316.287 108.412V167.804H298.751V103.804C298.751 99.4522 298.538 95.9535 298.111 93.3082C297.684 90.5775 297.471 89.2122 297.471 89.2122H298.623ZM374.911 91.0042V154.492C374.911 157.479 374.996 160.124 375.167 162.428C375.423 164.647 375.636 166.396 375.807 167.676C376.063 168.871 376.191 169.468 376.191 169.468H375.039L357.375 149.116V91.0042H374.911ZM374.527 98.8122V91.0042H384.127V92.2842C384.127 92.2842 383.743 92.2842 382.975 92.2842C382.292 92.2842 381.951 92.2842 381.951 92.2842C380.074 92.2842 378.41 92.9242 376.959 94.2042C375.594 95.3989 374.911 96.9349 374.911 98.8122H374.527ZM357.375 98.8122C357.29 96.9349 356.564 95.3989 355.199 94.2042C353.919 92.9242 352.298 92.2842 350.335 92.2842C350.335 92.2842 349.951 92.2842 349.183 92.2842C348.5 92.2842 348.159 92.2842 348.159 92.2842V91.0042H357.631V98.8122H357.375ZM412.965 91.0042V167.804H394.533V91.0042H412.965ZM442.917 162.684L445.861 167.804H412.709V162.684H442.917ZM438.565 127.228V132.348H412.709V127.228H438.565ZM444.325 91.0042V96.1242H412.709V91.0042H444.325ZM451.109 144.252L446.245 167.804H424.101L428.069 162.684C431.738 162.684 434.981 161.959 437.797 160.508C440.698 158.972 443.173 156.839 445.221 154.108C447.269 151.292 448.848 148.007 449.957 144.252H451.109ZM438.565 132.092V143.356H437.285V142.332C437.285 139.516 436.389 137.17 434.597 135.292C432.89 133.415 430.544 132.434 427.557 132.348V132.092H438.565ZM438.565 116.22V127.484H427.557V127.228C430.544 127.143 432.89 126.162 434.597 124.284C436.389 122.322 437.285 119.932 437.285 117.116V116.22H438.565ZM444.325 95.8682V109.436H443.045V108.284C443.045 104.53 442.021 101.586 439.973 99.4522C438.01 97.3189 435.152 96.2095 431.397 96.1242V95.8682H444.325ZM444.325 89.0842V92.1562L430.885 91.0042C433.36 91.0042 435.962 90.7909 438.693 90.3642C441.424 89.8522 443.301 89.4255 444.325 89.0842ZM394.789 159.74L395.429 167.804H385.957V166.524C385.957 166.524 386.213 166.524 386.725 166.524C387.237 166.524 387.536 166.524 387.621 166.524C389.498 166.524 391.077 165.884 392.357 164.604C393.722 163.239 394.448 161.618 394.533 159.74H394.789ZM394.789 99.0682H394.533C394.448 97.1055 393.722 95.4842 392.357 94.2042C391.077 92.9242 389.498 92.2842 387.621 92.2842C387.536 92.2842 387.237 92.2842 386.725 92.2842C386.213 92.2842 385.957 92.2842 385.957 92.2842V91.0042H395.429L394.789 99.0682ZM480.875 91.0042V167.804H462.443V91.0042H480.875ZM510.699 162.684L513.771 167.804H480.619V162.684H510.699ZM519.147 144.252L514.155 167.804H492.011L495.979 162.684C499.648 162.684 502.891 161.959 505.707 160.508C508.608 158.972 511.083 156.839 513.131 154.108C515.179 151.292 516.758 148.007 517.867 144.252H519.147ZM462.699 159.74L463.339 167.804H453.867V166.524C453.867 166.524 454.123 166.524 454.635 166.524C455.147 166.524 455.446 166.524 455.531 166.524C457.408 166.524 458.987 165.884 460.267 164.604C461.632 163.239 462.358 161.618 462.443 159.74H462.699ZM480.619 99.0682V91.0042H489.451V92.2842C489.366 92.2842 489.067 92.2842 488.555 92.2842C488.128 92.2842 487.915 92.2842 487.915 92.2842C486.038 92.2842 484.416 92.9242 483.051 94.2042C481.686 95.4842 480.96 97.1055 480.875 99.0682H480.619ZM462.699 99.0682H462.443C462.358 97.1055 461.632 95.4842 460.267 94.2042C458.902 92.9242 457.28 92.2842 455.403 92.2842C455.318 92.2842 455.019 92.2842 454.507 92.2842C454.08 92.2842 453.867 92.2842 453.867 92.2842V91.0042H462.699V99.0682ZM549.875 91.0042V167.804H531.443V91.0042H549.875ZM579.699 162.684L582.771 167.804H549.619V162.684H579.699ZM588.147 144.252L583.155 167.804H561.011L564.979 162.684C568.648 162.684 571.891 161.959 574.707 160.508C577.608 158.972 580.083 156.839 582.131 154.108C584.179 151.292 585.758 148.007 586.867 144.252H588.147ZM531.699 159.74L532.339 167.804H522.867V166.524C522.867 166.524 523.123 166.524 523.635 166.524C524.147 166.524 524.446 166.524 524.531 166.524C526.408 166.524 527.987 165.884 529.267 164.604C530.632 163.239 531.358 161.618 531.443 159.74H531.699ZM549.619 99.0682V91.0042H558.451V92.2842C558.366 92.2842 558.067 92.2842 557.555 92.2842C557.128 92.2842 556.915 92.2842 556.915 92.2842C555.038 92.2842 553.416 92.9242 552.051 94.2042C550.686 95.4842 549.96 97.1055 549.875 99.0682H549.619ZM531.699 99.0682H531.443C531.358 97.1055 530.632 95.4842 529.267 94.2042C527.902 92.9242 526.28 92.2842 524.403 92.2842C524.318 92.2842 524.019 92.2842 523.507 92.2842C523.08 92.2842 522.867 92.2842 522.867 92.2842V91.0042H531.699V99.0682ZM630.692 87.5482L668.58 167.164H646.948L623.14 110.972L630.692 87.5482ZM606.628 159.356C605.689 161.66 605.817 163.452 607.012 164.732C608.207 165.927 609.529 166.524 610.98 166.524H612.004V167.804H586.404V166.524C586.404 166.524 586.575 166.524 586.916 166.524C587.257 166.524 587.428 166.524 587.428 166.524C589.135 166.524 590.927 166.012 592.804 164.988C594.681 163.879 596.217 162.002 597.412 159.356H606.628ZM630.692 87.5482L630.948 102.908L603.172 167.42H593.7L623.652 103.036C623.823 102.524 624.207 101.628 624.804 100.348C625.401 98.9829 626.041 97.4895 626.724 95.8682C627.407 94.1615 628.047 92.5829 628.644 91.1322C629.241 89.5962 629.583 88.4015 629.668 87.5482H630.692ZM641.828 142.716V147.708H609.188V142.716H641.828ZM643.748 159.356H664.868C666.148 162.002 667.727 163.879 669.604 164.988C671.481 166.012 673.273 166.524 674.98 166.524C674.98 166.524 675.151 166.524 675.492 166.524C675.833 166.524 676.004 166.524 676.004 166.524V167.804H638.372V166.524H639.396C640.847 166.524 642.169 165.927 643.364 164.732C644.559 163.452 644.687 161.66 643.748 159.356Z" fill="#BD68A1"/>
</svg>
